<?xml version="1.0" standalone="no"?>
<!DOCTYPE svg PUBLIC "-//W3C//DTD SVG 1.1//EN" "http://www.w3.org/Graphics/SVG/1.1/DTD/svg11.dtd" >
<svg xmlns="http://www.w3.org/2000/svg">
<metadata>
This is a custom SVG webfont generated by Font Squirrel.
Copyright   : Copyright c 2010 Kimberly Geswein kimberlygesweincom This Font Software is licensed under the SIL Open Font License Version 11  This license is available with a FAQ at  httpscriptssilorgOFL
Designer    : Kimberly Geswein
Foundry     : Kimberly Geswein
Foundry URL : httpkimberlygesweincom
</metadata>
<defs>
<font id="GiveYouGloryRegular" horiz-adv-x="1134" >
<font-face units-per-em="2048" ascent="1638" descent="-410" />
<missing-glyph horiz-adv-x="1024" />
<glyph unicode=" "  horiz-adv-x="1024" />
<glyph unicode="&#x09;" horiz-adv-x="1024" />
<glyph unicode="&#xa0;" horiz-adv-x="1024" />
<glyph unicode="!" horiz-adv-x="284" d="M65 107q9 29 31 67q64 24 97 14t41 -36t-4 -59t-36 -55t-54 -24t-58 34q-26 30 -17 59zM123 1564q-1 26 8 47t39 29q42 12 64 -32q2 -48 2 -139v-191v-192q0 -92 2 -140q0 -10 -11 -51t-28 -79t-36 -58t-35 14q-4 116 9 238t5 236q-4 76 -2 139t0 81q-2 20 -9 46t-8 52z " />
<glyph unicode="&#x22;" horiz-adv-x="520" d="M64 976q-2 12 4 60t17 107t26 118t33 94t38 33t40 -62q8 -24 -1 -75t-23 -108t-27 -108t-13 -73q-4 -16 -18 -21t-31 -3t-30 12t-15 26zM286 1036q4 44 27 94t57 94t63 64t43 2t-2 -92q-2 -8 -9 -26t-14 -38t-14 -37t-11 -23q20 -28 14 -52t-26 -38t-47 -17t-51 9 q-34 16 -30 60z" />
<glyph unicode="#" horiz-adv-x="2032" d="M48 804q-2 16 3 34t11 28q48 66 128 102t168 61t173 51t145 70q-6 84 10 132t38 67t42 11t20 -36v-142h16q6 0 27 5t45 10t44 10t26 5q14 2 53 10t81 15t80 14t54 9q20 6 24 36t9 62t20 53t59 7q4 0 9 -7t5 -9v-110q50 -4 103 6t105 22t103 16t97 -12q38 -14 43 -43 t-13 -63t-52 -69t-71 -62t-72 -41t-53 -6v32l124 126q-18 0 -71 2t-111 -1t-107 -14t-57 -35q-4 -22 -10 -80t-14 -124t-14 -124t-8 -80q0 -6 -1 -22t-1 -34t1 -34t1 -22h30q20 6 70 17t105 23t104 23t69 15t57 17t80 26t87 20t79 2t56 -27t19 -68q-26 -44 -73 -47t-85 15 q-70 -12 -148 -26t-158 -32t-159 -39t-149 -45q-14 -84 -21 -134t-14 -94t-16 -95t-27 -133q-20 -34 -57 -45t-71 13q-2 6 -6 12q-8 12 -8 20v16q26 2 47 30t35 71t23 94t14 96t6 78t-1 41h-16q-16 -4 -51 -11l-80 -16q-45 -9 -94 -22t-93 -27t-77 -31t-45 -35q-4 -6 -4 -31 t1 -60t-1 -72t-10 -65t-23 -41t-41 1q-8 4 -20 15t-12 15v206q-12 -6 -44 -20t-66 -29t-66 -28t-44 -19q-22 -10 -59 -30t-70 -29t-53 5t-8 72q102 62 201 100t209 88q28 34 44 112t22 169t5 182t-7 151q-76 -18 -145 -53t-135 -73t-133 -73t-139 -53q-22 -6 -33 5t-13 27z M690 513q0 -17 1 -33t1 -24q54 -8 120 3t131 33t124 50t99 56q2 26 9 91t15 138t14 138t8 89q2 12 2 41t-2 39q-50 6 -112 3t-125 -15t-120 -33t-99 -49q-16 -54 -26 -116t-17 -123t-12 -121t-9 -112q0 -6 -1 -22t-1 -33z" />
<glyph unicode="$" horiz-adv-x="994" d="M62 276q-22 134 13 272t129 256q10 14 19 18t29 -2q12 -32 -3 -76t-40 -97t-50 -114t-35 -129t6 -142t74 -150q12 -16 30 -41t36 -47t31 -38t15 -16h14q40 228 99 459t121 455v62q-36 58 -74 136t-64 162t-33 167t19 149t92 109t188 49q4 24 7 38t7 25t9 24t11 37 q34 28 51 28t24 -16t5 -43t-7 -55t-10 -52t-3 -34q44 -48 80 -92t60 -92t33 -102t-1 -124q-10 -18 -38 -36t-60 -26t-63 -2t-45 34q-16 32 -5 48t32 26t46 19t36 30t0 57t-59 102q-10 16 -26 30t-38 2q-16 -70 -33 -143t-30 -146t-18 -147t1 -146q6 -58 39 -116t72 -117 t76 -119t51 -122q16 -66 11 -156t-29 -182t-66 -174t-104 -134t-141 -61t-175 45q-136 78 -215 197t-101 253zM426 -94q58 -60 125 -41t124 92t96 184t41 232t-43 240t-155 207q-34 -64 -52 -141t-28 -160t-16 -169t-15 -166t-27 -151t-50 -127zM462 1408q-18 -84 26 -178 q4 -10 15 -32t24 -47t24 -48t15 -31l18 16q2 24 11 85t19 128t18 127t12 84q0 6 3 17t6 24t5 24t4 15q-10 42 -54 26t-86 -71t-60 -139z" />
<glyph unicode="%" horiz-adv-x="1480" d="M45 855q-15 57 2 118t62 120t104 103t124 69t124 17t104 -53t65 -141q10 -46 -13 -97t-65 -96t-99 -83t-116 -59t-116 -22t-97 25q-64 42 -79 99zM146 975q-18 -59 12 -109q22 -36 74 -32t111 33t112 75t74 93t-3 88t-116 59q-46 8 -103 -21t-100 -78t-61 -108zM202 56 q0 30 2 38q112 138 212 286t214 282q54 62 115 126t127 124t136 113t140 93q32 18 65 24t52 -1t18 -29t-37 -58q-46 -46 -106 -89t-122 -85t-122 -84t-108 -88q-6 -4 -33 -42t-67 -95t-91 -127t-103 -140t-102 -132t-90 -105t-67 -59t-31 8q-2 10 -2 40zM1029 294 q3 44 21 87t44 77t46 38t25 -29t-17 -121v-30q48 -18 88 -7t67 39t39 67t5 76t-36 67t-83 40q-16 4 -30 0t-27 -11t-26 -13t-27 -6q-22 0 -11 20t42 43t75 41t86 14t77 -37t47 -113t-7 -144t-61 -108t-106 -65t-142 -15q-12 2 -36 8t-28 10q-28 28 -25 72z" />
<glyph unicode="&#x26;" horiz-adv-x="1166" d="M34 440q-10 72 16 148t83 136t144 93t197 19q44 -6 82 -27t71 -49t65 -59t66 -55h14q4 46 0 89t-13 86t-19 86t-16 87q44 58 71 55t43 -45t23 -109t12 -138t10 -132t17 -89q12 6 34 34t46 58t49 51t43 13q40 -16 46 -42t-10 -57t-46 -62t-61 -59t-56 -49t-31 -29 q-10 -16 6 -59t35 -99t27 -115t-20 -105q-38 -10 -65 -6t-45 38q-18 28 -24 63t-8 73l-4 76q-2 38 -12 72q-192 -86 -332 -107t-234 3t-144 82t-60 130zM123 429q5 -57 51 -83q62 -34 143 -38t164 12t160 48t131 72q6 18 0 38t-16 39t-23 37t-25 30q-96 106 -186 138 t-164 14t-130 -72t-83 -116t-22 -119z" />
<glyph unicode="'" horiz-adv-x="346" d="M95 1328q-9 66 7 90q18 26 40 12t45 -53t43 -97t34 -119t20 -118t0 -96t-27 -51t-59 18q-4 2 -9 14t-7 16q-4 28 -23 97t-37 145t-27 142z" />
<glyph unicode="(" horiz-adv-x="536" d="M44 783q0 63 5 122t16 118t29 127q8 36 29 101t50 130t66 117t77 62q28 6 45 -14t17 -48q0 -30 -23 -67t-53 -76t-59 -76t-39 -67q-26 -84 -37 -206t-5 -262t28 -286t60 -276t92 -232t124 -154q12 -6 26 -1t31 14t34 16t35 1q4 -22 -4 -56t-23 -67t-37 -57t-46 -24 q-4 2 -13 11t-20 19t-20 20t-11 14q-34 42 -74 113t-81 159t-78 184t-67 189t-49 175t-21 140q-4 74 -4 137z" />
<glyph unicode=")" horiz-adv-x="456" d="M34 1384q6 30 26 60t50 37t66 -19t72 -106q30 -70 60 -163t54 -192t41 -196t23 -175q0 -12 -5 -72t-16 -148t-27 -196t-36 -215t-42 -206t-47 -170t-52 -106t-53 -13q-2 2 -7 10t-10 18t-9 20t-6 16q-6 32 1 66t19 69t25 69t19 64q32 54 60 165t44 252t16 298t-21 305 t-67 272t-122 198q-36 -12 -49 8t-7 50z" />
<glyph unicode="*" horiz-adv-x="1008" d="M29 348q9 14 40 34t65 40t63 34t39 18q4 2 16 7t16 7q-2 2 -19 16t-40 34t-46 44t-34 46t-7 39t36 25q6 2 24 2t22 -2q36 -10 77 -3t72 2t45 -37t-4 -118q22 6 30 31t12 56t6 64t10 57t27 33t55 -5q22 -10 24 -39t-5 -63t-18 -64t-15 -38q36 -6 84 1t99 21t99 30t80 26 q6 18 23 17t37 -13t37 -32t21 -41t-11 -37t-59 -20q-20 -2 -63 -5t-96 -8t-107 -13t-97 -20t-66 -28t-13 -36q6 -14 22 -20t33 -11t29 -12t12 -21v-110q0 -24 -19 -25t-42 9t-43 25t-24 23q-22 -6 -30 -34t-11 -64t-7 -73t-16 -63t-37 -34t-73 16q-40 20 -45 65t2 98t19 103 t10 80q-38 6 -72 -10t-72 -20q-64 -10 -84 -4t-11 20z" />
<glyph unicode="+" horiz-adv-x="1212" d="M17 722q-5 26 16 50t54 42t55 22q10 2 37 8t57 14t57 14t37 10q2 42 -4 82t-14 79t-13 77t1 78q4 30 21 41t36 7t35 -21t18 -43q2 -16 4 -54t4 -80t4 -81t2 -53l16 -16l48 7q48 7 113 17t134 21t115 17q6 2 42 11t82 19t94 15t80 -2t41 -31t-23 -74q-2 -4 -8 -9t-10 -7 q-176 20 -358 -9t-350 -85q-2 -30 2 -100t9 -157t11 -181t8 -172t-1 -128t-13 -50h-80l-4 11q-4 11 -9 26t-10 31t-7 26q-6 24 4 44t26 36q-6 146 -10 292t-20 290q-30 4 -68 -10t-75 -31t-71 -30t-54 -7q-56 18 -61 44z" />
<glyph unicode="," horiz-adv-x="400" d="M82 300q28 56 71 46t85 -66t77 -148t49 -200t-2 -222t-76 -214q-22 -36 -39 -46t-55 16q-14 10 -14 39t10 67t26 83t32 87t27 78t13 56q2 16 1 44t-3 56t-6 53t-8 35q-6 16 -39 49l-69 69q-36 36 -62 69t-18 49z" />
<glyph unicode="-" d="M41 554q-1 20 4 38t17 33t32 21q26 6 105 10t183 6t219 2t213 -2t165 -6t75 -10q32 -22 23 -47t-35 -45t-60 -28t-54 8q-100 2 -207 -5t-216 -16t-217 -14t-210 5q-4 0 -16 6t-14 10q-6 14 -7 34z" />
<glyph unicode="." horiz-adv-x="434" d="M197 243q-1 35 19 57q78 -10 118 -44t51 -76t-1 -83t-35 -64t-51 -20t-52 51q-6 10 -18 41t-21 67t-10 71z" />
<glyph unicode="/" horiz-adv-x="866" d="M8 54q0 22 10 44t25 43t21 33q62 122 115 231t107 211t114 202t136 206q102 128 174 206q30 32 57 57t44 31t21 -9t-12 -63q-16 -44 -47 -85t-69 -80t-75 -77t-61 -74q-64 -94 -114 -177t-95 -168t-89 -177t-96 -204q-6 -14 -14 -55t-24 -79t-41 -59t-65 5q-22 16 -22 38 z" />
<glyph unicode="0" horiz-adv-x="820" d="M30 778q2 116 15 208t33 132q6 12 21 15t31 0t29 -11t15 -20q10 -64 0 -147t-23 -176t-23 -188t0 -181t49 -156t123 -112q66 -34 125 -9t108 88t84 155t54 197t19 212t-23 198t-70 157t-123 88q-78 24 -125 -3t-97 -91q-18 -10 -22 2t4 35t27 51t48 52t66 39t81 11 q98 -10 165 -78t104 -171t46 -229t-8 -254t-59 -245t-105 -200t-146 -122t-185 -9q-68 20 -115 98t-75 187t-39 235t-9 242z" />
<glyph unicode="1" horiz-adv-x="282" d="M48 1072q-2 22 7 41t22 28t31 5t34 -28q-2 -94 13 -225t34 -269t34 -266t14 -216t-26 -119t-87 25q-22 262 -40 513t-36 511z" />
<glyph unicode="2" horiz-adv-x="1356" d="M53 884q-7 46 4 98t26 107t11 109q4 18 18 26t31 10t34 -1t27 -5q4 -28 28 -36t60 -8t80 3t89 -2t89 -23t78 -60q10 -122 -21 -244t-82 -240t-113 -230t-112 -214v-32q138 -8 261 7t240 47t233 75t242 91q4 2 15 2t15 -2q24 -40 -13 -80t-113 -77t-181 -69t-219 -58 t-226 -43t-202 -25t-148 -3t-62 23q-4 16 -4 51t4 45t37 66t80 139t99 183t95 198t67 184t15 141t-61 68t-160 -33q-48 -22 -72 -55t-41 -71t-36 -76t-57 -68q-48 36 -55 82z" />
<glyph unicode="3" horiz-adv-x="914" d="M52 883q0 31 6 77t17 99t22 99t19 79t8 39q30 32 51 35t33 -12t15 -43t-1 -58q22 18 55 37t70 32t74 17t67 -8q46 -18 64 -57t17 -88t-15 -103t-33 -104t-38 -91t-27 -61v-30q142 -6 230 -44t132 -96t46 -130t-27 -144t-84 -137t-129 -111t-162 -65t-180 1q-46 10 -68 41 t-25 69t8 78t32 70t48 43t53 -1q10 -24 0 -45t-22 -42t-19 -42t11 -45q30 -46 79 -51t103 19t109 69t97 99t66 110t18 100q-8 60 -50 92t-98 43t-114 3t-100 -28q-24 -12 -41 -32t-31 -44t-30 -46t-40 -36q-30 -16 -47 -3t-25 37t-5 51t13 43q20 28 56 74t74 101t73 115 t56 117t22 107t-29 84q-64 14 -111 -7t-83 -60t-61 -90t-43 -95q-8 -18 -13 -33t-13 -23t-24 -11t-44 3q-12 2 -12 33z" />
<glyph unicode="4" horiz-adv-x="1260" d="M17 918q1 66 4 116t9 68q4 10 19 21t32 15t31 1t14 -21v-440q0 -48 53 -82t136 -52t183 -22t193 9t166 41t103 74q14 18 21 73t12 123t12 138t20 120t35 68t58 -18q4 -4 10 -16t6 -16q4 -114 3 -225t-1 -222t6 -223t24 -226q30 -20 34 -62t-12 -82t-47 -65t-69 -13 q-2 8 -9 32t-9 32q-2 16 -5 56t-5 92t-3 111t-2 114t-1 98t2 63q-2 2 -18 -17t-36 -44t-40 -49t-32 -32q-24 -14 -45 -20t-49 -10q-82 -2 -180 -5t-198 1t-198 18t-180 48q-14 6 -23 49t-15 105t-8 136t-1 140z" />
<glyph unicode="5" horiz-adv-x="960" d="M49 717q7 61 32 138t57 149t67 129t63 79q30 24 93 43t138 32t153 16t138 -7t92 -33t16 -65t-61 -46t-106 6t-133 22t-142 4t-132 -46t-102 -130q-8 -16 -18 -40t-18 -51t-12 -52t0 -45q36 -10 82 -3t101 14t120 4t137 -33q106 -42 169 -108t90 -144t21 -160t-39 -156 t-91 -134t-135 -92t-168 -30t-193 52q-40 44 -20 83t67 68t103 45t86 10q8 -18 -4 -36t-33 -34t-43 -30t-30 -26q74 -40 151 -22t137 70t96 128t28 156t-67 151t-189 115q-130 46 -233 24t-193 -134q-48 -12 -65 23t-10 96z" />
<glyph unicode="6" horiz-adv-x="1040" d="M41 610q3 96 18 186t40 157t60 104t77 31q10 -48 -3 -107t-33 -120t-38 -121t-20 -110q-4 -92 -2 -188t29 -173t90 -123t181 -36q22 2 51 8t57 18t50 29t32 39q28 64 33 152t19 174t52 153t132 89q58 12 89 -16t53 -78q6 -88 -22 -183t-81 -181t-128 -158t-163 -116 t-185 -54t-193 30q-56 22 -94 81t-62 141t-33 179t-6 193zM747 433q-7 -47 9 -87q0 -2 12 -7t20 -7h14q20 20 53 65t56 94t25 96t-38 75q-34 -20 -67 -57t-55 -81t-29 -91z" />
<glyph unicode="7" horiz-adv-x="1260" d="M24 1073q2 25 24 29q68 36 144 75t154 77t158 72t158 60q22 8 36 -2t24 -28q6 -66 -1 -131t-15 -130t-14 -130t0 -129q126 38 248 68t242 90l10 -14q10 -14 19 -36t14 -46t0 -41t-27 -25t-66 4h-14q-22 -4 -76 -18t-114 -29t-114 -28t-74 -19q-34 -10 -51 -16t-24 -14 t-10 -22t-9 -44q-6 -28 -20 -100t-29 -152t-28 -152t-19 -100q12 -42 -4 -75t-40 -51t-45 -20t-21 20v172q42 28 62 93t30 139t16 145t20 113h-18q-108 -34 -204 -72t-204 -86q-26 -16 -40 11t-12 63t21 62t61 6q102 32 178 55t129 48t85 58t49 87t19 135t-4 201 q-82 -22 -147 -54t-125 -68t-120 -74t-128 -74q-24 -12 -44 5t-31 42t-9 50z" />
<glyph unicode="8" horiz-adv-x="930" d="M49 313q1 93 18 189t42 173t51 123t44 38q18 -10 19 -29t-3 -35q-22 -66 -41 -136t-31 -142t-14 -145t8 -145q42 -60 91 -77t100 -2t100 57t88 101t66 129t34 142t-9 141t-62 125q-22 26 -50 26t-58 -8t-59 -17t-53 -1q-10 4 -21 30t-20 56t-15 56t-8 32q-8 26 -9 79 t6 117t24 130t46 118t70 80t97 18q14 -4 -3 -38t-47 -86t-64 -114t-53 -121t-13 -109t56 -74q76 -10 121 -11t80 14t70 52t93 101q20 22 40 37t33 30t15 34t-14 49q-8 12 -44 23t-80 21t-82 18t-48 18t20 20t124 24q108 16 155 -10t51 -75t-26 -114t-76 -128t-99 -117 t-95 -82q30 -68 50 -116t31 -96t14 -105t-1 -141q-4 -52 -32 -113t-73 -119t-103 -107t-120 -77t-124 -30t-114 36t-73 114t-20 169z" />
<glyph unicode="9" horiz-adv-x="788" d="M47 703q-11 95 3 202t52 212t99 183t144 114t189 4q72 -22 114 -76t61 -129t19 -167t-10 -188t-27 -192t-32 -181t-25 -154t-6 -109q6 8 18 23t27 27t32 16t35 -6q-4 -18 -18 -53t-35 -75t-47 -77t-53 -61t-53 -27t-46 27q-6 8 2 65t23 140t34 181t35 189t26 165t6 110 q-38 -28 -71 -66t-64 -80t-64 -82t-69 -70q-90 -76 -152 -73t-99 58t-48 150zM106 755q4 -51 36 -93t72 -33t86 33q120 66 189 146t97 161t22 155t-36 127t-79 78t-104 7t-112 -85t-105 -197q-14 -40 -32 -91t-28 -104t-6 -104z" />
<glyph unicode=":" horiz-adv-x="316" d="M30 1040q6 6 16 17t22 20t23 13t17 -2l80 -78q14 -14 9 -33t-18 -37t-30 -34t-25 -24l-8 8q-6 6 -8 10q-14 22 -26 33t-22 22t-17 30t-13 55zM134 488q0 28 14 48t37 31t44 13t37 -5t16 -23v-126q0 -8 -12 -15t-28 -13t-32 -11t-22 -9h16l-24 24q-18 18 -22 24 q-24 34 -24 62z" />
<glyph unicode=";" horiz-adv-x="522" d="M99 690q-9 44 9 82t59 61t97 15q42 -52 45 -103t-18 -87t-59 -51t-78 3q-46 36 -55 80zM140 -556q86 28 125 69t49 90t-1 105t-24 114t-20 114t11 108q14 42 42 15t53 -92t40 -155t5 -174t-53 -148t-133 -76q-10 -2 -24 -4t-27 -2t-25 4t-18 16q-6 10 0 16z" />
<glyph unicode="&#x3c;" horiz-adv-x="1276" d="M14 212q2 32 21 55t59 15q16 10 55 37t82 57t80 58t51 40q6 4 34 31t63 62l70 70l55 55q26 28 45 59t36 63t35 62t42 54q6 6 32 -3t44 -32t17 -58t-47 -81l-378 -378q-46 -28 -89 -59t-83 -67q2 -10 14 -15t25 -9t24 -5t15 -1q110 -16 224 -35t229 -32t230 -18t229 5 q24 -36 -5 -65t-79 -47t-104 -22t-78 8q-24 4 -75 11t-115 16t-134 20t-134 20t-114 16t-74 11q-4 0 -15 3t-24 6t-25 5t-14 2h-174q-26 0 -39 27t-11 59z" />
<glyph unicode="=" horiz-adv-x="914" d="M12 386q22 30 80 42t143 10t173 -14t170 -29t134 -35t64 -33t-38 -23q-42 2 -106 -4t-137 -14t-149 -15t-141 -8t-113 8t-64 33q-38 52 -16 82zM32 662q-10 42 30 61t106 23t146 -4t150 -19t117 -21t49 -10q46 -34 56 -67t-1 -53t-33 -21t-38 33q-130 10 -259 14t-261 0 q-22 10 -39 24t-23 40z" />
<glyph unicode="&#x3e;" horiz-adv-x="882" d="M30 836q-8 32 12 46t50 17t59 1t37 -2q116 4 189 9t136 7t135 -1t186 -15q16 -36 18 -78t-2 -78q-8 -24 -30 -82t-48 -123t-49 -123t-31 -82q-10 -28 -28 -89t-45 -121t-63 -99t-84 -23q-6 4 -17 15l-15 15q-8 28 16 87t63 133t86 155t84 154t54 130t-3 83q-4 6 -22 12 t-26 4h-426q-6 0 -31 -7t-56 -14t-60 -11t-41 0q-22 10 -33 34t-15 46z" />
<glyph unicode="?" horiz-adv-x="1054" d="M66 1278q4 22 39 55t86 71t112 77t115 72t96 57l56 32q80 42 168 57t178 5q120 -12 156 -79t19 -164t-73 -211t-120 -221t-122 -192t-80 -125q-14 -24 -24 -54t-23 -57t-31 -49t-48 -28q-16 -4 -20 5t-10 25q-16 46 15 114t85 151t121 178t123 193t89 197t23 191 q-8 16 -30 23t-34 9q-116 8 -220 -17t-198 -77t-178 -125t-160 -159q-4 0 -24 -1t-40 2t-35 13t-11 32zM522 77q-8 33 5 60t45 43t74 8q18 -2 29 -24t14 -50t-2 -57t-20 -47t-40 -20t-59 26q-38 28 -46 61z" />
<glyph unicode="@" horiz-adv-x="2260" d="M80 188q0 120 28 222q58 204 160 410t232 388t284 328t316 230q182 88 336 97t277 -40t214 -148t150 -227t84 -274t15 -291t-56 -279t-128 -237t-202 -164t-280 -61q-128 0 -228 70t-134 198q-20 10 -46 -8t-60 -48t-72 -64t-81 -56t-89 -25t-92 29q-60 40 -84 127 t-20 199t33 236t72 235t99 198t115 126t117 17t108 -130q54 -116 87 -245t23 -259q-34 -14 -44 -57t-7 -93t14 -97t21 -69q36 -80 106 -123t152 -52t165 15t145 80q188 170 253 394t15 474q-22 104 -65 200t-109 171t-157 123t-205 58q-144 10 -286 -38t-275 -138t-253 -214 t-221 -267t-177 -296t-121 -301t-55 -282t23 -240t112 -174t213 -84q32 -4 68 -6t72 2t68 16t58 36q12 -4 16 -16t5 -25t-1 -25l-2 -12q-14 4 -59 -2t-99 -15t-106 -15t-82 0q-128 22 -206 102t-116 188t-38 228zM692 426q4 -6 15 -24t15 -24l16 -16l16 -16q84 -10 151 39 t111 125t62 165t6 161q22 10 34 51t14 96t-6 113t-25 105t-43 73t-62 14t-80 -70t-98 -178q-68 -148 -102 -298t-24 -316zM1122 458q0 -16 10 -16q12 0 12 16t-12 16q-10 0 -10 -16z" />
<glyph unicode="A" horiz-adv-x="1508" d="M59 539q-2 40 -1.5 78.5t1.5 75.5q3 73 5 127q8 178 68 323t178 291q76 90 143 119q44 19 84 19q20 0 39 -5q56 -15 102 -64t78 -114t51 -135t23 -128q1 -14 1 -28q0 -40 -9 -67q-12 -37 -42 -33q-12 54 -17 78t-13 48t-25 63t-53 123q-56 112 -114 142q-28 15 -55 15 q-29 0 -57 -17q-54 -32 -103 -114t-89 -191t-68 -233t-40 -241q-8 -78 -8 -148q0 -35 2 -67q6 -98 34 -156q14 -36 35 -76t51 -71t67 -49q26 -12 56 -12q13 0 27 2q96 20 166 82t120 150t84 196t57 218t39 215t29 188t28 136t37 61q20 6 34 -2t22 -24t10 -35t-2 -33 q-66 -114 -91 -231q-20 -91 -20 -179q0 -25 2 -49q7 -111 40 -212t82 -186t108 -150t118 -102t112 -43q8 -1 16 -1q43 0 75 29q80 84 124 103t58 0q7 -10 7 -26t-7 -39q-14 -46 -50 -91t-92 -78q-49 -29 -106 -29q-9 0 -18 1q-68 5 -148 63t-164 192q-34 44 -64 98t-57 110 t-50 112t-43 108q-12 -58 -35 -137t-58 -160t-82 -156t-106 -125t-131 -68q-25 -6 -51 -6q-49 0 -103 22q-70 28 -115 83t-72 126t-39 152t-15 162z" />
<glyph unicode="B" horiz-adv-x="1370" d="M71 1371q45 47 124 92t177 76t206 41q32 3 63 3q75 0 147 -17q118 0 160 -40q38 -36 38 -87q0 -6 -1 -13q-5 -60 -42 -132t-80 -134t-77 -107t-30 -51q198 -24 320 -85t181 -142t61 -177v-9q0 -92 -41 -179q-43 -92 -126 -175t-194 -140t-243 -81q-63 -12 -129 -12 q-71 0 -145 14q-100 18 -161 44t-93 61t-40 81q-6 37 -6 81v23q2 58 9 129t9 157v126q0 70 -2 141t-4 139t-3 120t-3 84t-2 34l-16 16q-6 -10 -19 -24t-29 -8q-56 21 -56 60q0 42 47 91zM222 1314q0 -24 2 -64t5 -83t5 -84t2 -65q0 -16 2 -54t5 -81t5 -81t4 -52 q48 54 119 98t148 86t151 87t128 102t80 130q15 41 15 91q0 38 -9 80q-34 30 -92 47t-126 21q-21 1 -42 1q-48 0 -97 -6q-71 -9 -133 -31t-108 -58t-64 -84zM236 346q4 -4 19 5t34 19t39 18t34 6v-16l-94 -142q-10 -14 2 -32t30 -34t37 -29t25 -15q142 -51 278 -51 q29 0 57 2q163 13 287 88t193 205q55 103 55 231q0 33 -4 69q-20 66 -74 109t-114 65q-132 52 -223 55h-18q-80 0 -138 -24q-65 -27 -112 -73t-92 -90t-97 -75q-49 -29 -115 -29h-9v-262z" />
<glyph unicode="C" horiz-adv-x="1212" d="M40 673q6 109 30 220t61 210t84 180t101 135q52 52 98 62q17 4 33 4q27 0 51 -11q38 -17 68 -57t48 -87t23 -96q2 -15 2 -29q0 -31 -8 -56q-11 -36 -38 -55q-16 -11 -37 -11q-16 0 -36 6q-16 18 -16 44q0 10 3 22q9 40 18 81q6 26 6 51q0 14 -2 27q-5 37 -55 57 q-20 8 -39 8q-29 0 -55 -18q-44 -30 -81 -95t-66 -156t-49 -192t-29 -205q-8 -94 -8 -177v-18q1 -91 15 -161t42 -104q42 -50 91 -78t103 -40t113 -12t119 4q70 4 128 33t112 65t106 71t112 51q35 10 55 10q23 0 28 -13q2 -4 2 -10q0 -24 -34 -61q-41 -46 -122 -103 t-187 -99t-227 -58q-39 -5 -77 -5q-82 0 -164 23q-96 28 -160 91t-102 149t-52 190q-10 73 -10 148q0 32 2 65z" />
<glyph unicode="D" horiz-adv-x="1260" d="M74 1411q0 13 8 28t20 28t20 17q92 17 183 17l141 -10q162 -23 305 -90t259 -175t186 -250q49 -121 49 -234q0 -16 -1 -32q-8 -128 -63 -234t-149 -185t-211 -122t-248 -45h-10q-126 0 -249 50q0 -8 5 -41q3 -21 3 -42q0 -13 -1 -26q-3 -35 -17 -57q-9 -13 -26 -13 q-11 0 -26 5q-4 4 -16 15t-16 15q0 10 -2 35t-5 53t-5 52t-4 34l-16 32q4 138 4 242t-5 202t-17 201t-32 241q-20 102 -22 166q0 26 3 47t12 27t26 -5t45 -47q6 -48 15 -135t18 -182t17 -181t14 -134q2 -16 5 -52t5 -76t4 -75t2 -49q12 -12 17 -34t5 -44t-2 -41t-2 -25 q12 -24 40 -41t62 -28t70 -17t62 -8q21 -1 40 -1q132 0 240 57q124 66 202 180t103 259q9 54 9 109q0 92 -26 184t-86 160t-143 115t-182 77t-203 46t-206 19q-44 1 -85 1q-55 0 -107 -2q-16 6 -16 19z" />
<glyph unicode="E" horiz-adv-x="1454" d="M27 1348q0 23 35 38q48 20 101 33t109 23t110 18t106 20l946 34q24 13 50 13q6 0 13 -1q33 -4 55 -20t28 -43q1 -5 1 -10q0 -23 -21 -49q-32 2 -103 3q-36 0 -77 0.5t-88 -0.5q-94 -1 -206 -3t-225 -7t-220 -14t-192 -21t-142 -30t-71 -40q-34 -58 -43 -147 q-7 -67 -7 -138q0 -24 1 -48q3 -97 14 -189t19 -156q30 -4 42 -4t19 3t16 7t33 10q12 2 49 9t88 17t107 21t107 20t89 17t50 10q72 14 98 27t35 24t15 22t40 23q38 12 48 -11t-5 -59t-54 -72t-99 -48q-32 -6 -115 -22t-176 -34t-176 -33t-117 -21q-4 -2 -18 -8t-29 -14 t-28 -15t-19 -9q-2 -2 -9 -8t-7 -10q8 -180 50 -264t118 -103q30 -8 66 -8q55 0 125 18q115 29 271 75q40 12 95 23t109 29t101 43t73 63q8 12 4 20t-10 18t-7 23t13 33q92 -24 110 -61q6 -13 6 -26q0 -25 -22 -53q-34 -42 -112 -87t-179 -84t-215 -69t-221 -45 q-76 -11 -145 -11q-27 0 -53 2q-91 6 -145 38q-38 24 -63 86t-40 148t-21 190t-7 210v53q0 79 2 156q3 103 7 186t7 141t3 76q-6 -18 -31 -9t-44 30q-22 25 -22 51z" />
<glyph unicode="F" horiz-adv-x="1418" d="M48 1261q0 19 5 37t9 26q4 4 9 10t7 6h188v110q0 29 11 29q3 0 6 -2q17 -9 37 -34t38 -54t18 -33q108 -16 215 -17h21q96 0 192 8q106 9 212 24t212 31q12 2 31 -8t34 -25t21 -32t-8 -31q-36 -36 -104 -52t-154 -20q-57 -3 -120 -3q-31 0 -63 1q-97 2 -188 4q-30 1 -59 1 q-58 0 -111 -3q-79 -4 -131 -22q2 -82 2 -164q0 -61 -1 -123q-3 -143 -8 -287t-8 -287q-1 -61 -1 -123q0 -82 2 -164l-32 -64q-1 -1 -4 -1q-5 0 -16 4q-18 7 -28 13q-4 2 -16 14t-14 18q-4 52 -4 104q0 84 10 169q16 139 33 279t21 278v29q0 123 -30 243l-16 62h-188 q-18 0 -24 15t-6 34zM424 756q8 22 20 48t30 42t41 17t53 -27h12q27 0 81 6q67 8 153 19t180 23t174 20q71 7 123 7h13q56 -1 66 -13q6 -8 6 -17q0 -14 -16 -27q-26 -22 -80 -42t-130 -37t-160 -30t-171 -21t-162 -9h-21q-62 0 -112 5q-58 6 -84 22q-4 0 -9 6t-7 8z" />
<glyph unicode="G" horiz-adv-x="1592" d="M60 653q16 165 64 319t119 283t154 200q79 67 160 67h9q86 -4 164 -112q70 -96 103 -208q25 -86 25 -177q0 -27 -2 -55q-34 -42 -72 -53q-22 -6 -44 -6q-16 0 -31 3q-37 8 -69 28t-53 42t-26 39t13 17h172q2 20 -1 61t-13 91t-26 100t-40 88t-55 57q-19 12 -41 12 q-14 0 -30 -5q-68 -24 -119 -90t-88 -149t-62 -169t-43 -146q-76 -250 -76 -426q0 -28 2 -54q14 -190 95 -289t213 -112q23 -2 46 -2q112 0 234 52q148 63 294 197t256 328q24 40 54 82t40 90q-2 1 -6 1q-16 0 -58 -14q-52 -17 -121 -42t-146 -50t-139 -38q-45 -9 -77 -9 q-12 0 -23 1q-38 5 -28 41q6 24 37 53t72 50t81 30q14 3 26 3q21 0 36 -10q50 8 107 32t115 48t114 43t104 19q60 0 77 -19q13 -14 13 -32q0 -6 -2 -14q-6 -27 -25 -57t-31 -50q-64 -112 -131 -224t-142 -211t-160 -181t-187 -132t-223 -63q-32 -3 -66 -3q-94 0 -201 26 q-144 36 -223 142t-107 249q-18 91 -18 191q0 57 6 117z" />
<glyph unicode="H" horiz-adv-x="1434" d="M38 883q0 14 9 25q11 14 36 17q4 1 10 1q24 0 65 -12q8 -4 22 -5t26 -5q14 -4 30 -6l16 48q2 2 3 36t3 82t2 100t-2 92q0 8 -6 33t-11 57t-8 67t3 62t22 42t48 7q10 -4 20 -24t10 -24q-2 -47 -2 -89q0 -32 1 -62q3 -69 6 -137t5 -138q1 -35 1 -73t-1 -79q74 -18 181 -28 q76 -7 156 -7q32 0 65 1q114 4 221 27t179 69q26 16 44 61t31 103t23 125t20 128t21 110t28 71q12 16 27 16q6 0 12 -3q22 -9 54 -65v-46q-10 -142 -28 -271t-37 -255t-37 -254t-30 -270q-2 -27 -2 -50q0 -17 1 -32q3 -34 5 -66q1 -13 1 -26q0 -20 -2 -41q-3 -35 -19 -85 q-26 -18 -51 -15t-43 31q-2 34 -2 69q0 58 6 116q10 93 22 186t20 186q4 46 4 92t-4 91q-212 -70 -436 -86q-149 -11 -298 -11q-74 0 -148 3q-2 -16 -9 -59t-15 -90t-15 -90t-9 -59q-16 -102 -29 -213t-31 -213q-4 -24 -20 -36q-7 -5 -16 -5q-12 0 -28 9q-4 2 -12 13t-16 24 t-14 24t-6 17q-7 28 -7 63q0 40 9 88q16 91 41 190t51 194t32 165h-158q-4 0 -13 13t-16 31q-11 27 -11 45z" />
<glyph unicode="I" horiz-adv-x="268" d="M63 330q3 150 7 300t8 299q3 99 3 199q0 50 -1 100q2 34 18 55t36 25q4 1 8 1q16 0 31 -12q19 -15 31 -51v-18q-34 -250 -34 -510t4 -514q6 4 20 13t28 5v-15q0 -24 -4 -59q-6 -46 -23 -85t-45 -57q-11 -7 -24 -7q-20 0 -46 17q-4 0 -9 6t-7 8q-2 86 -2 171q0 65 1 129z " />
<glyph unicode="J" horiz-adv-x="1344" d="M71 1263q21 25 67 36t98 13t72 4q14 2 60 8t98 13t101 15t73 12q10 2 40 7t38 9q38 4 116 14t176 22t206 26t206 26t175 22t115 14q2 0 25 9t51 18t52 16q19 5 25 5h3q44 -22 56 -46q8 -15 8 -30q0 -8 -3 -16q-7 -22 -27 -41t-41 -29t-38 -10t-17 14h-126l-724 -94 l-64 -14q26 -40 47 -118t33 -180t12 -219t-16 -230t-50 -215t-90 -176t-136 -111q-56 -26 -125 -26q-30 0 -63 5q-8 2 -32 14t-32 18q-92 86 -162 165t-115 166t-63 189q-11 61 -11 133q0 48 5 101q4 10 12 16t18 2q14 -114 38 -208t65 -176t101 -157t144 -153 q24 -22 53 -29t59 -2t58 17t50 30q74 58 123 145t73 189t25 213v12q0 105 -17 204q-18 105 -56 199t-90 164q-38 6 -76 6l-88 -8q-82 -14 -166 -34t-167 -35q-54 -10 -107 -10q-28 0 -56 3q-26 31 -26 53q0 11 7 20z" />
<glyph unicode="K" horiz-adv-x="1514" d="M50 1437q4 35 18 54t44 9q20 -16 33 -66t21 -117t12 -143t6 -148t3 -131t3 -89q10 -3 23 -3q19 0 44 7q41 12 82 32t78 42t59 34q98 60 193 119t172 130t131 159t70 206q0 4 6 10t10 6q10 2 39 2t39 -2q38 -38 38 -86q0 -14 -3 -30q-15 -66 -70 -137t-136 -143t-162 -133 t-150 -105t-99 -60q-14 -6 -50 -24l-76 -38l-76 -38q-36 -18 -50 -26l-24 -24q250 -176 441 -306t350 -192q119 -46 226 -46q36 0 72 5q139 21 285 147q26 -13 26 -34q0 -5 -2 -11q-8 -29 -42 -64t-89 -69t-118 -61t-128 -40q-40 -8 -76 -8q-22 0 -43 3q-66 10 -142 49 t-158 94t-170 120t-176 129t-175 121t-169 93q-16 -86 -22 -156t-6 -137t4 -137t8 -156q6 -30 -10 -34q-5 -1 -10 -1q-12 0 -27 6q-21 9 -40 24t-23 21v46q8 122 15 214t12 178t7 176q1 30 1 63q0 66 -3 145q0 14 -2 53t-5 84t-5 87t-4 60q0 4 -6 33t-12 70t-11 85 q-3 24 -3 46q0 17 2 33z" />
<glyph unicode="L" horiz-adv-x="1386" d="M30 48q-5 9 -5 24.5t5 37.5q30 144 64 283t61 277t42 280q10 93 10 190q0 52 -3 106q14 26 28 26l8 -2q18 -10 31 -39t21 -64t8 -49q-12 -118 -24 -231t-27 -225t-33 -225t-44 -233q-2 -12 -2 -23q0 -42 38 -62q48 -25 117 -31q38 -3 76 -3q32 0 63 2q70 5 104 7 q18 2 67 6t104 9t105 9t70 8q18 20 61 30t92 18t98 18t79 30q16 10 43 24t51 6v-48q-8 -8 -36 -32t-62 -55t-68 -63t-54 -54q0 4 -6 10t-10 6q-97 13 -219 13h-17q-132 -1 -266 -8t-259 -15q-100 -6 -179 -6h-38q-6 2 -24 7t-22 9q-38 14 -48 32z" />
<glyph unicode="M" horiz-adv-x="1970" d="M32 1503q4 39 46 61q5 3 9 3t7 -3l78 -78q-2 -22 -2 -47q0 -19 1 -40q3 -49 8 -100t12 -101t13 -90q80 202 179 272q69 49 135 49q29 0 58 -10q94 -31 173 -147t117 -288q38 20 68 71t65 111t78 117t105 93q99 57 201 57h10q107 -3 199 -52t159 -137t93 -198 q10 -46 14 -116t4 -152t-5 -170t-12 -169t-16 -151t-19 -114q10 -6 20 0t20 15t23 16t31 -1q3 -9 3 -21q0 -20 -9 -47q-14 -42 -40 -77t-60 -51q-14 -6 -27 -6q-20 0 -39 14l-16 16l-16 16q-5 37 -5 84q0 24 1 50q4 78 13 168t21 186t22 186t14 170q2 32 2 60q0 43 -4 78 q-10 90 -51 152t-101 95t-132 41q-23 3 -46 3q-49 0 -99 -12q-73 -17 -138 -56t-111 -97q-42 -54 -72 -133t-53 -170t-39 -190t-31 -194t-28 -180t-29 -147q0 -4 -6 -10t-8 -6q-6 0 -17 -1t-24 -1t-24 1t-15 1q-12 10 -14 71q-1 20 -1 44q0 46 3 104q4 87 11 187t15 190 t13 157t5 87q-8 156 -61 249t-125 110q-15 4 -30 4q-58 0 -120 -51q-78 -64 -136 -218q-22 -54 -34 -145t-21 -196t-15 -215t-19 -207t-33 -168t-54 -99q-24 18 -38 44t-24 52v16q14 106 25 255t16 306q4 112 4 220q0 43 -1 86q-2 149 -12 257q-2 26 -21 69t-32 86 q-10 33 -10 63q0 10 1 19z" />
<glyph unicode="N" horiz-adv-x="1702" d="M34 102q0 54 8 125t22 148t27 142t23 110t12 51q28 186 53 354t25 354q46 27 90 27q18 0 35 -4q61 -15 116 -55t102 -94t83 -94q20 -22 60 -68t90 -104t105 -121t105 -120t88 -103t56 -66q12 -14 39 -50l57 -76l57 -76q27 -36 37 -50q44 144 58 301t20 316t16 317t48 308 q10 44 33 55q12 6 24 5.5t25 -5.5q26 -11 52 -37t41 -55q16 -31 16 -56q0 -23 -19 -31q-8 -4 -32 -4t-30 18l-16 -14q-2 -2 -8 -30t-13 -65t-14 -77t-11 -66q-22 -130 -30 -262t-13 -264t-12 -264t-25 -264q-18 -45 -42 -45q-26 1 -53 27t-55 70t-50 87t-36 76t-16 37 q-176 222 -356 422t-384 396q-22 16 -52 36t-58 12q-2 -6 -7 -24t-10 -38t-9 -38t-6 -26q-36 -282 -69 -559t-73 -561q-32 -30 -58 -32h-3l-49 32q-14 18 -14 72z" />
<glyph unicode="O" horiz-adv-x="1324" d="M48 316q-2 43 -2 84q0 83 8 163q12 119 39 234t68 229t91 234q0 4 6 10t10 6q10 2 40 2t38 -2q2 -19 2 -39q0 -61 -22 -132q-30 -95 -73 -197t-85 -209t-54 -205q-3 -27 -3 -53q0 -69 23 -132q32 -87 134 -151q60 -38 134 -50q40 -7 81 -7q34 0 68 5q75 10 145 40t124 76 q148 126 225 259t98 263q10 59 10 116q0 68 -14 132q-25 118 -83 213t-138 160t-169 86q-38 9 -76 9l-102 -16q-89 -28 -161 -120q-30 -16 -35 -7t8 31t40 52t60 60t67 53t64 31q21 5 45 5q15 0 31 -2q42 -5 83 -19t79 -34t62 -44q38 -36 80 -75t83 -82t76 -91t59 -100 q60 -132 60 -273t-49 -273t-138 -244t-206 -189t-254 -108q-67 -15 -136 -15q-71 0 -143 16q-54 12 -103 40t-88 68t-67 89t-40 103z" />
<glyph unicode="P" horiz-adv-x="1156" d="M68 1224q-4 24 -4 47q0 61 31 114q43 73 120 123t180 77q96 25 194 25h14q105 -2 202 -35t165 -103t95 -177q12 -47 12 -104q0 -71 -19 -155q-44 -146 -95 -232t-130 -135t-198 -70t-301 -35l-64 32v-16q4 -24 13 -85t19 -128t19 -128t13 -85q6 -14 13 -51t11 -80t4 -83 t-7 -61q-5 -16 -16 -16q-3 0 -7 1q-16 6 -46 54q-22 148 -37 262t-28 211t-26 185t-30 183t-40 207t-57 258zM177 1253q3 -41 9 -98t15 -123t18 -125t15 -102t8 -55q4 -34 7 -45t6 -17t7 -18t8 -44q36 38 82 43q26 3 53 3q22 0 46 -2q53 -4 111 -6h10q53 0 108 19 q60 21 120 76t116 167q64 126 73 223q2 23 2 44q0 69 -22 123q-29 70 -90 112t-137 61q-63 16 -132 16q-15 0 -29 -1q-85 -4 -163 -28t-141 -68t-97 -106q-4 -5 -4 -25q0 -10 1 -24z" />
<glyph unicode="Q" horiz-adv-x="1228" d="M-19 854v16q0 144 17 279q18 143 48 245t72 149q23 26 49 26q21 0 43 -17q0 -2 -15 -75t-35 -189t-37 -260t-20 -288v-39q0 -122 16 -233q19 -128 71 -211t143 -108q26 -7 55 -7q76 0 180 46l11 5q11 5 24 12t26 15t17 16q6 10 0 16q-20 24 -54 73t-69 112t-68 132 t-54 135t-25 121q-1 8 -1 16q0 44 19 73q16 24 33 7t34 -56t33 -93t31 -106t26 -93t17 -53t23 -44t37 -67t38 -66t26 -43q14 -4 28 -4q35 0 66 29q44 41 74 121t43 186q7 55 7 112q0 52 -6 106q-12 112 -52 219t-115 187t-190 123q-87 32 -200 32q-37 0 -77 -3q-2 6 -2 17 t3 23t7 22t8 12q34 4 66 4q95 0 185 -34q121 -46 218 -132t165 -203t94 -245q14 -69 14 -139q0 -59 -10 -117q-22 -128 -104 -238q-2 -2 -21 -26t-41 -55t-39 -65t-11 -58q16 -16 48 -60t71 -92t79 -90t70 -55t44 12q8 15 8 50q0 25 -4 61q12 3 22 3q24 0 38 -16 q20 -23 23 -60q1 -7 1 -15q0 -30 -10 -64q-12 -42 -34 -71t-52 -37q-6 -2 -12 -2q-25 0 -54 26q-46 42 -84 88t-74 93t-74 93t-84 88q-5 2 -16 2q-17 0 -48 -6q-50 -10 -109 -23t-113 -25q-46 -10 -69 -10h-7q-19 -3 -36 -3q-81 0 -140 53q-72 64 -117 178t-66 262t-22 300z " />
<glyph unicode="R" horiz-adv-x="1272" d="M90 1418q-2 4 -2 9q0 11 10 24q14 19 36 25t46 -11t36 -77l7 -35q5 -25 9 -53t8 -52t6 -34h18q110 188 206 273t173 96q14 2 27 2q60 0 102 -42q52 -51 73 -136q12 -48 12 -104q0 -42 -7 -88q-16 -107 -76 -208t-167 -184t-271 -119v-16q70 -30 141 -90t143 -133 t144 -147t146 -133t150 -92q58 -25 118 -25q18 0 36 2q4 0 28 26t54 58t59 59t46 31q14 3 14 -18q0 -31 -37 -126q-40 -110 -97 -153q-50 -38 -109 -38q-8 0 -16 1q-68 6 -144 51t-154 111t-154 144t-145 150t-126 130t-97 82l-6 -562q0 -12 -11 -15t-19 -1q-10 4 -27 9 t-21 7t-10 14t-6 18q-22 152 -27 260t-5 197v171q0 82 -9 183t-33 234t-72 325zM292 901q2 -37 14 -87q92 20 176 82t149 142t107 166t50 153q2 14 2 26q0 49 -25 79q-21 26 -64 26q-20 0 -45 -6q-62 -14 -110 -45t-85 -73t-66 -93t-53 -105q-16 -64 -28 -108t-18 -82 q-4 -28 -4 -56v-19z" />
<glyph unicode="S" horiz-adv-x="1008" d="M137 1283q19 89 80 152t152 94q66 22 135 22q27 0 54 -3q60 -8 110 -46t83 -89t45 -107q5 -24 5 -46q0 -29 -9 -53q-16 -43 -65 -64q-28 -12 -68 -12q-31 0 -69 7q-10 34 8 52t42 33t44 30t16 43q-16 98 -74 141q-57 42 -126 42h-3q-71 -1 -139 -40t-105 -105 q-29 -52 -29 -117q0 -18 2 -36q10 -87 96 -185q64 -74 122 -111t115 -66t117 -65t126 -108q56 -62 94 -141t51 -160q6 -40 6.5 -78.5t-6.5 -75.5q-13 -73 -56 -123t-119 -67q-26 -6 -57 -6q-58 0 -133 21q-40 10 -94 44t-107 82t-98 105t-67 114q-16 40 -16 79q0 16 3 32 q9 54 63 96q8 6 33 16t50 14t40 -6t5 -42q-70 -30 -88 -78q-9 -23 -9 -48q0 -26 10 -54q19 -54 66 -108t107 -97t125 -71t121 -28t95 31t45 107q1 24 1 47q0 73 -14 143q-19 92 -81 174q-52 66 -107 108t-110 74t-110 60t-106 65t-95 88t-80 129q-33 72 -33 138q0 27 6 53z " />
<glyph unicode="T" horiz-adv-x="1312" d="M43 1284q-2 7 -2 14q0 16 11 32q34 12 136 34t241 47t301 49t320 41t296 23q46 2 87 2q81 0 141 -8q90 -12 118 -46q9 -11 9 -24q0 -29 -43 -72h-14q-8 4 -33 16t-31 18q-125 3 -249 3q-62 0 -123 -1q-184 -2 -368 -36q0 -4 3 -23t7 -42t7 -43t3 -24q16 -172 22 -320 t7 -292v-72q0 -109 -2 -221q-3 -149 -5 -323q-6 -16 -17 -19q-4 -1 -8 -1q-7 0 -15 3q-12 5 -23 15t-15 16q-18 32 -26 70t-9 78v11q0 34 5 68q6 39 14 75q2 120 11 249t10 261v15q0 125 -16 248q-17 131 -65 257q-27 3 -56 3q-40 0 -86 -6q-78 -11 -158 -31t-154 -41 t-128 -35q-14 -20 -37 -19t-41 15t-25 36z" />
<glyph unicode="U" horiz-adv-x="1670" d="M46 1205q0 13 1 24t1 17q14 20 29 20l11 -3q20 -11 35 -36t25 -55t10 -38l46 -834q6 -98 29 -135q20 -32 48 -32q5 0 9 1q34 6 76 46t85 99t84 127t75 128t56 104t26 54q10 22 33 76t48 114t47 114t30 76q2 8 9 35t17 57t23 57t28 34t32 -11t35 -78q-3 -43 -3 -115v-38 q1 -99 13 -216t38 -236t73 -213t117 -149q56 -44 131 -44q19 0 39 3q26 4 49 27l46 46q23 23 49 37q13 7 28.5 7t33.5 -7q1 -15 1 -29q0 -72 -34 -120q-41 -57 -108 -77q-36 -11 -76 -11q-34 0 -69 8q-78 17 -140 71q-78 66 -124 163t-74 206t-43 219t-27 200l-16 32 q-4 -8 -24 -59t-54 -127t-78 -169t-96 -185t-109 -175t-114 -138t-113 -75q-21 -7 -41 -7q-34 0 -65 21q-32 20 -47 69t-21 104t-8 107t-4 82q-6 120 -13 219t-17 191t-22 183t-24 195q0 4 -1 15t-1 24z" />
<glyph unicode="V" horiz-adv-x="1166" d="M28 1215q9 7 23 7q10 0 23 -4q30 -10 64 -39t52 -61q60 -108 119 -230t120 -243t126 -235t139 -206l8 8q6 6 6 10q2 6 8 21t11 33t9 34t6 22q4 22 13 69t19 106t23 124t23 124t19 106t13 69q12 28 17 59t9 61t11 60t25 56q8 12 43 26t71 23q27 7 48 7q7 0 13 -1 q18 -2 18 -13q0 -4 -3 -10q-6 -10 -19 -32t-28 -48t-28 -48t-19 -30q-10 -18 -25 -82t-32 -154t-38 -197t-43 -208t-47 -188t-52 -137t-55 -54h-3l-53 58q-52 114 -106 233t-114 238t-126 232t-142 213q-6 8 -26 25t-43 40t-44 47t-29 44q-11 29 -11 46q0 13 7 19z" />
<glyph unicode="W" horiz-adv-x="1812" d="M31 993q-2 8 -2 15q0 26 19 46q26 13 46 13q13 0 23 -5q27 -14 41 -54q12 -38 12 -98t-3 -123t-8 -122q-3 -33 -3 -59q0 -21 2 -38q2 -22 6 -73t9 -109t9 -110t6 -72q0 -6 6 -24t10 -22q2 -4 9 -4t7 4q84 72 145 163t110 191t93 203t94 199q18 29 42 29q6 0 13 -2 q33 -9 55 -43q46 -78 69 -160t47 -165t60 -165t106 -156q106 -114 194 -139q36 -10 69 -10q48 0 89 21q70 36 122 122t85 195t45 228q7 71 7 137q0 44 -3 85q-8 103 -38 178t-82 97q-4 4 -13 4t-9 -4v-78q0 -4 -11 -1t-24 9t-24 16t-13 22v158q25 6 47 6q57 0 101 -39 q62 -55 100 -156t50 -235q6 -64 6 -129q0 -70 -7 -142q-13 -137 -52 -264t-103 -214t-155 -120q-36 -13 -76 -13q-61 0 -131 30q-102 44 -181 127t-140 183t-106 209t-79 207l-14 14q-8 -4 -29 -47t-51 -107t-69 -143t-82 -154t-89 -141t-92 -104t-90 -41h-5q-41 0 -77 45 q-4 4 -10 16t-6 14l-60 836q-10 28 -17 63z" />
<glyph unicode="X" horiz-adv-x="1118" d="M23 1287q0 8 1 17q2 14 6 36q26 18 55 10t58 -32t56 -58t49 -68t39 -63t27 -41q14 -22 51 -76t77 -114l76 -114q36 -54 50 -76q2 -4 14 -16t16 -14q2 -4 8 -4t8 4l314 646q18 36 46 65t54 36q6 2 12 2q17 0 28 -16q8 -12 8 -40q0 -20 -4 -47q-68 -82 -121 -173t-99 -186 t-88 -191t-88 -190v-34l252 -376l16 -16q6 12 16 47t22 70t26 59t30 12q18 -12 24 -43q4 -21 4 -45q0 -12 -1 -26q-3 -40 -16 -83t-32 -74t-46 -46t-57 1q-20 10 -45 49t-52 91t-55 108t-55 100t-51 67t-42 11q-12 -26 -28 -49t-29 -47t-21 -50t-2 -58q-16 -28 -37 -62 t-45 -68t-50 -66t-56 -56q-3 -3 -7 -3t-9 3q-10 8 -28 26t-20 22q-4 10 -4 39t4 39q18 30 49 69t65 84t66 94t52 97t24 93q1 6 1 13q0 38 -21 70q-56 84 -108 164t-108 156t-118 146t-136 134q-12 10 -18 17q-7 8 -7 24z" />
<glyph unicode="Y" horiz-adv-x="1292" d="M22 1417q0 25 11 41t31 18t48 -16q26 -18 51 -65t55 -110t67 -133t88 -132t118 -109t157 -61q16 -3 31 -3q43 0 78 22q47 29 86 82t69 125t56 146t50 145t48 123t52 78q18 17 39 17q11 0 23 -5q-10 -100 -29 -227t-39 -264t-38 -279t-30 -276t-15 -251q-1 -21 -1 -40 q0 -92 12 -165q6 -28 -4 -45t-28 -23q-11 -4 -23 -4q-8 0 -16 2q-21 4 -39 22q-32 32 -44 98q-11 61 -11 136v13q1 83 10 176t20 181t19 161q6 58 6 100v19h-16q-76 -124 -147 -177t-136 -55h-6q-61 0 -117 36q-58 38 -107 94t-88 121t-67 115l-212 318q-12 26 -12 51z" />
<glyph unicode="Z" horiz-adv-x="1560" d="M20 1260q0 18 46 34t103 31t107 27t60 18q198 52 392 100t394 88q11 2 20 2q26 0 29 -22q1 -9 1 -19q0 -23 -8 -52q-12 -41 -31 -81t-25 -48q-16 -22 -52 -76l-76 -114l-76 -114q-36 -54 -48 -74q-4 -4 -9 -16t-7 -16q2 0 29 2t68 7t90 13t94 20t80 29t49 39q8 -8 28 -29 t35 -46t18 -48t-19 -35q-58 -30 -130 -32q-48 -1 -97 -1h-50h-15q-67 0 -131 -8q-71 -9 -127 -53q-156 -140 -228 -255t-81 -202q-2 -15 -2 -29q0 -68 37 -115q44 -57 123 -82q60 -19 133 -19q24 0 49 2q103 8 212 51t213 122t184 197q4 32 5 47t-2 24t-8 20t-11 37 q-4 16 15 12t44 -24t47 -54q24 -37 24 -79q0 -38 -27 -81q-29 -46 -103 -90q-90 -54 -198 -116t-224 -107t-234 -59q-28 -3 -56 -3q-88 0 -170 33q-104 40 -150 95t-51 117q-1 10 -1 20q0 53 23 112q27 70 69 142t91 144t89 140h-6q-25 0 -65 -14q-45 -16 -91 -32t-86 -21 t-54 21q-13 22 -13 39q0 13 8 23q19 22 63 36t106 25t125 29t121 48t94 84q66 98 125 197t127 197q-6 1 -13 1q-42 0 -120 -22q-91 -25 -203 -60t-231 -73t-217 -57q-69 -13 -121 -13q-22 0 -40 2q-63 8 -63 64z" />
<glyph unicode="[" horiz-adv-x="1246" d="M61 -130q-21 34 19 106q2 56 -3 189t-8 303t-1 356t16 348t43 279t81 149q60 -2 133 9t148 22t145 15t124 -14q52 -18 54 -42t-25 -44t-75 -29t-94 5q-14 -2 -57 -5t-95 -7t-103 -9t-77 -11q-32 -8 -53 -72t-33 -164t-17 -226t-5 -260t4 -265t8 -239t8 -185t6 -103 q12 -24 52 -39t85 -23t88 -12t61 -6q100 -8 189 -15t175 -11t174 -6t186 2v-64l-126 -94q-4 -2 -16 -2t-16 2q-2 0 -11 5t-20 10t-20 10t-11 5q-28 10 -62 9t-67 -3t-62 2t-47 26q-24 0 -82 4t-123 9t-123 10t-82 7q-40 4 -102 5t-112 15t-71 48z" />
<glyph unicode="\" horiz-adv-x="1068" d="M66 1433q4 17 23 10t49 -32t64 -59q80 -80 196 -212q86 -108 153 -211t127 -208t120 -216t130 -237q8 -14 24 -35t27 -44t10 -45t-25 -38q-44 -28 -72 -6t-46 61t-28 81t-16 58q-58 114 -106 208t-98 181t-107 173t-129 182q-28 38 -70 76t-84 78t-77 82t-51 88 q-18 48 -14 65z" />
<glyph unicode="]" horiz-adv-x="1228" d="M15 1516q5 24 27 42t52 29t54 15q32 6 98 18t136 25t129 23t77 14q18 2 70 15t113 25t119 20t92 2q10 -22 22 -115t24 -230t24 -305t22 -340t18 -335t12 -291t3 -206t-7 -80q-10 0 -68 -13t-139 -30t-172 -35t-170 -30t-133 -15t-58 11q-2 8 -2 33t2 31q32 14 88 25 t122 21t136 20t129 25t101 35t54 48q12 32 11 73t-6 85t-12 85t-9 73q-2 22 -3 80t-3 139t-4 177t-4 194t-4 190t-3 164t-2 118t-1 50l-5 60q-3 36 -12 70t-27 57t-50 19q-22 -2 -71 -9t-102 -15t-99 -15t-60 -9q-58 -10 -119 -29t-123 -37t-123 -28t-121 0q-28 32 -23 56z " />
<glyph unicode="^" horiz-adv-x="850" d="M116 1286q-2 2 39 32t92 70t99 78t60 56q16 26 33 58t45 54h16q24 -16 54 -53t61 -85t57 -100t42 -98t17 -81t-19 -45q-28 -14 -61 17t-64 79t-55 98t-32 76q-24 12 -48 -5t-49 -47t-53 -67t-57 -63t-61 -36t-68 14q-4 4 -23 22t-25 26z" />
<glyph unicode="_" horiz-adv-x="1306" d="M16 64q-10 22 1 51t31 43q16 -2 56 -3t85 -1t86 1t57 3q26 2 83 8t129 13t150 16t150 17t128 14t84 10q62 32 109 27t66 -30t2 -61t-83 -62q-42 2 -140 -7t-221 -20t-255 -23t-244 -18t-188 -2t-86 24z" />
<glyph unicode="`" horiz-adv-x="504" d="M102 1473q4 23 19 36t43 5q10 -4 46 -34t81 -67t94 -76t87 -61q22 -12 16 -42t-27 -56t-49 -38t-50 10q-40 40 -71 64t-58 47t-55 51t-60 74q-10 14 -15 39t-1 48z" />
<glyph unicode="a" horiz-adv-x="1048" d="M18 603q6 117 27 228t56 207t86 159t116 82q20 6 42 6q48 0 103 -29q28 -16 59 -54t59 -85t49 -94t31 -79q2 -10 1 -61t-3 -123q-1 -29 -1 -60q0 -47 2 -99q3 -87 14 -170t35 -154t64 -112t101 -44h7q59 0 142 49q32 28 38 55t6 46t4 25t36 -10q30 -39 30 -82 q0 -14 -3 -29q-13 -59 -58 -104t-113 -64q-27 -8 -55 -8q-41 0 -84 17q-71 28 -135 114t-102 250q-12 -34 -37 -84t-59 -100t-77 -94t-89 -66q-37 -18 -77 -18q-9 0 -18 1q-49 5 -97 55q-40 40 -64 122t-33 186q-5 62 -5 129q0 45 2 92zM86 544v-29q0 -86 10 -164 q12 -91 40 -151q34 -72 80 -78q6 -1 12 -1q40 0 82 37q48 42 95 122t80 181t50 212q10 67 10 131q0 41 -4 82q-11 102 -53 186t-128 132q-2 2 -7 2h-9q-62 -28 -108 -96t-79 -160t-51 -198t-20 -208z" />
<glyph unicode="b" horiz-adv-x="1024" d="M42 1397q4 35 25 37q23 0 75 -64q0 -10 2 -37t4 -57t5 -57t5 -37q6 -42 18 -109t25 -133t23 -115t12 -53l16 -30q10 44 30 98t51 103t73 84t98 45q38 6 73 6q86 0 154 -35q95 -49 152 -140t79 -209q13 -72 13 -144q0 -46 -5 -91q-14 -117 -62 -220t-128 -163t-193 -62h-5 q-111 0 -252 80q-2 -24 -5 -45t-12 -34t-23 -14h-2q-14 0 -36 15q-18 10 -31 38t-17 40q2 75 2 151.5t-2 155.5q-4 157 -32 307q-2 12 -16 77t-32 148t-35 165t-27 130q-6 32 -15 83q-6 35 -6 63q0 12 1 23zM314 236q0 6 4 17t9 24t10 24t9 15q6 10 25 22t23 8l16 -14 q-4 -32 -6 -61t3 -54t20 -44t45 -31q56 -23 110 -23q37 0 73 11q89 26 147 106q78 108 97 220q9 51 9 98q0 58 -13 112q-23 98 -77 173t-121 110q-48 25 -98 25q-20 0 -41 -4q-72 -14 -129 -94t-91 -236q-26 -121 -26 -296q0 -52 2 -108z" />
<glyph unicode="c" horiz-adv-x="820" d="M52 753q10 97 47 170t105 101q23 9 44 9q29 0 53 -18q41 -31 67 -82t35 -105q4 -26 4 -45q0 -21 -5 -34q-10 -25 -39 -4t-79 121q-17 35 -35 35q-6 0 -12 -4q-25 -15 -46 -71t-34 -141t-14 -177v-11q0 -86 14 -168q15 -87 51 -148t97 -84q24 -9 52 -9q44 0 99 22 q18 8 58 50t87 94t93 100t77 66t39 -5q2 -5 2 -13q0 -30 -24 -102q-22 -70 -79 -141t-130 -118t-155 -56q-12 -1 -23 -1q-69 0 -133 46q-52 40 -97 122t-75 183t-42 211q-7 60 -7 116q0 47 5 91z" />
<glyph unicode="d" horiz-adv-x="836" d="M24 717q6 93 28 170t63 122t102 49h9q58 0 136 -50q70 -42 127 -103t95 -133q0 6 1 22t1 33t-1 33t-1 22q-2 14 -7 70t-11 119t-10 119t-4 70q-2 22 -3 56t-1 67t1 57t3 24l16 16q12 13 24 13q8 0 15 -5q19 -14 34 -46t27 -76t21 -86t13 -74t6 -40q2 -16 3 -82t1 -156 v-191q0 -101 1 -187t3 -144t8 -60l34 -14v-222q0 -20 -20 -18t-44 13t-44 27t-20 26v158q-36 -64 -79 -123t-95 -103t-118 -65q-42 -13 -90 -13q-28 0 -58 4l-16 16l-16 16q-34 42 -61 116t-45 166t-26 193q-5 58 -5 113q0 41 3 81zM100 574q2 -90 13 -174t31 -153t46 -105 q2 -2 15 -9t17 -7q18 -2 36 -2q76 0 136 42q74 52 121 136t69 183q17 78 17 143q0 18 -1 34q-48 -36 -73 -42t-36 7t-14 39t-5 57t-7 62t-23 51q-76 90 -134 116q-32 14 -59 14q-21 0 -39 -9q-40 -21 -65 -79t-36 -136q-9 -66 -9 -141v-27z" />
<glyph unicode="e" horiz-adv-x="898" d="M19 523q11 15 55 31t130 30q12 0 35 12t27 18q14 20 26 69t25 109t32 121t48 105t70 62q17 7 37 7q29 0 64 -15q6 -4 17 -15l23 -23l23 -23q11 -11 15 -17q2 -28 2 -54q0 -64 -14 -112q-20 -68 -54 -115t-76 -79t-80 -61t-65 -59t-29 -74q-4 -52 -4 -95t10 -81t34 -72 t70 -66q23 -16 52 -16q15 0 32 4q50 12 102 42t102 68t86 65t52 35q8 4 8 -2t-8 -22q-28 -66 -66 -132t-90 -112t-119 -61q-20 -4 -41 -4q-51 0 -110 25q-76 32 -115 82t-57 110t-22 128t-10 138q-41 -7 -80 -7h-10q-44 1 -77 8t-47 20q-8 7 -8 15q0 6 5 13zM362 662 q2 -2 7 -2t7 2q6 4 18 13l24 18q12 9 23 18t15 13q60 60 85 111t25 83t-21 43q-8 4 -17 4q-15 0 -33 -11q-29 -18 -61 -69t-58 -143l-8 -40q-6 -30 -6 -40z" />
<glyph unicode="f" horiz-adv-x="946" d="M42 636q6 22 36 26q8 0 44 -2q24 -1 50 -1h27q41 1 76 8t41 25q-2 84 -6 180t-4 195t9 196t31 187q14 52 41 72q16 12 43 12q19 0 44 -6q48 -10 100 -49t97 -91t78 -111t39 -111q2 -20 -17 -36t-43 -14t-45 31t-21 99q0 4 -6 15t-10 15l-142 142q-17 7 -31 7 q-18 0 -30 -12q-21 -21 -31 -55t-13 -72t-5 -58q-6 -76 -11 -138t-6 -122v-24q0 -48 3 -98q4 -62 14 -138q8 -2 57 17t116 42t139 43t125 22h8q47 0 68 -21q10 -10 10 -26q0 -23 -19 -61q-12 -22 -36 -21t-42 5q-14 -4 -48 -15t-71 -24t-71 -24t-46 -15q-6 -2 -25 -6 t-40 -10t-40 -10t-23 -6q-6 -2 -13 -3t-15 -5t-18 -6v-568q0 -16 -15 -20q-7 -2 -14 -2q-9 0 -18 3q-17 5 -32 18t-15 33v520q-16 2 -34 2q-33 0 -70 -7q-58 -11 -102 -27q-20 -8 -39 10t-27 43q-5 14 -5 28q0 10 3 19z" />
<glyph unicode="g" horiz-adv-x="870" d="M37 416q1 46 7 93t22 89q18 52 53 127t81 147t103 128t120 72q19 5 38 5q45 0 93 -26q68 -37 136 -153q16 -4 32 -1t30 6t25 3t21 -8q2 -24 4 -88t2 -140t-7 -149t-23 -117q0 -26 -2 -82t-4 -125t-4 -146t-3 -146t-3 -124t-2 -81q-2 -12 -5 -48t-7 -76t-7 -77t-3 -51 q-2 -12 -11 -68t-27 -131t-44 -156t-61 -144t-78 -94q-23 -17 -49 -17q-22 0 -46 12q-76 36 -128 107t-84 162t-46 192t-16 197v38q0 75 6 140q8 82 20 136q4 20 21 51t33 63t27 62t3 48h-42q-34 0 -62 25t-49 57t-35 64t-20 48q-4 38 -7 84q-2 34 -2 69v23zM170 194 q73 -24 139 -24q35 0 68 7q95 19 163 76t105 145q34 81 34 173v15q-3 100 -50 205t-145 197q-14 3 -27 3q-41 0 -80 -32q-51 -43 -94 -121t-75 -175t-48 -191q-15 -88 -15 -161q0 -84 25 -117zM220 -459q2 -109 18 -210t46 -186t72 -133t76 -49h2q33 0 60 30q28 31 51 88 t40 124t29 137t20 128t12 97t4 43q2 20 6 62t7 85t5 78t2 45q2 20 2 69v103v103q0 49 -2 69h-44l-250 -178q-56 -40 -91 -119t-51 -178q-14 -88 -14 -184v-24z" />
<glyph unicode="h" horiz-adv-x="1054" d="M64 1356q-1 14 -1 25q0 41 17 50q4 2 8 2q21 0 54 -47q16 -164 22 -323t26 -321q18 60 45 127t64 127t88 106t117 64q50 15 92 15q32 0 60 -9q64 -20 109 -71t73 -127t46 -164t26 -181t14 -177t10 -153t12 -111q6 -32 30 -37t44 -10q23 -6 23 -25q0 -18 -33 -68 q-14 -20 -39 -30q-23 -9 -45 -9h-5q-25 1 -42 18t-13 51q3 81 3 155q0 266 -34 444q-43 227 -116 325q-60 80 -129 80q-16 0 -32 -4q-88 -22 -167 -145t-136 -337t-65 -502q-8 -24 -24 -23t-32 15t-28 35t-12 37q0 8 3 38t6 64t5 64t2 38q0 18 1 57t1 89v105v104q0 49 -1 89 t-1 60q0 10 -2 43t-4 70t-5 72t-5 51q0 10 -5 47t-10 80t-9 80t-6 47z" />
<glyph unicode="i" horiz-adv-x="222" d="M39 296v67q0 69 1 146q2 115 5 216t8 175t11 94q12 6 26 0t25 -16t19 -24t8 -24v-882q0 -22 -12 -33t-29 -11t-32 11t-21 33q-4 12 -6 81t-3 167zM60 1347q0 13 1 24t3 15q16 8 36 14q12 4 25 4q8 0 17 -2q34 -44 43 -71q5 -14 5 -25q0 -10 -4 -17q-8 -15 -27 -18 q-8 -1 -16 -1q-11 0 -23 2q-20 4 -37 13t-19 21q-2 6 -3 17t-1 24z" />
<glyph unicode="j" horiz-adv-x="300" d="M-236 -646q12 6 39 -33t62 -90t76 -97t82 -53q5 -1 10 -1q36 0 70 42q39 48 71 186q4 14 9 42t10 55t8 49t3 26v506q-6 24 -17 82t-25 131t-27 152t-24 148t-16 118t1 61q16 38 37 44t39 -9t28 -43t4 -56q4 -28 11 -87t16 -133t17 -157t16 -157t13 -134t7 -88 q0 -14 1 -65t1 -114t-1 -123t-1 -90q-2 -36 -9 -95t-23 -122t-42 -123t-62 -97t-85 -43q-6 -1 -12 -1q-44 0 -99 39q-34 24 -70 61t-65 81t-45 93q-11 33 -11 64q0 16 3 31zM-23 1095q0 20 24 27q18 6 43 6q9 0 20 -1q38 -3 63 -17q24 -13 24 -37q-1 -27 -55 -63 q-8 4 -33 15t-31 15q-55 33 -55 55z" />
<glyph unicode="k" horiz-adv-x="1224" d="M28 1288q-5 13 -5 24t5 20q10 18 28 21q3 1 6 1l30 -13q18 -15 28 -53q28 -164 47 -329t43 -333q32 -26 67 -26q19 0 38 8q55 22 111 80t109 139t100 157t84 136t61 76q44 32 44 5t-30 -87t-80 -141t-105 -158t-106 -137t-81 -80q-4 -4 -15 -10t-23 -14t-24 -15t-16 -9 v-16q0 -2 14 -11t33 -21t39 -24t32 -20q38 -20 93 -54t118 -71t130 -71t133 -56t125 -26q8 -1 17 -1q49 0 87 21q45 24 73 82t30 160h40q10 0 16 -28q5 -24 5 -58v-11q-1 -41 -13 -88t-40 -86t-75 -63q-38 -19 -90 -19q-13 0 -27 1q-98 8 -204 50t-210 99t-201 121t-177 114 q-6 4 -27 9t-25 7h-14q-12 -118 -13 -241t-27 -235q-2 -2 -14 -4q-8 -1 -16 -1h-9q-13 1 -22 9t-5 26q31 222 31 440q0 94 -6 188q-19 310 -117 616z" />
<glyph unicode="l" horiz-adv-x="282" d="M78 1445q0 63 4 97q12 10 22 10q15 0 27 -23q19 -39 29 -112t13 -165t3 -174t-2 -138t-2 -58q10 -188 13 -371t19 -369q21 -40 21 -87q0 -39 -12 -63q-11 -23 -31 -23q-3 0 -6 1q-24 4 -52 60q-8 32 -12 88t-4 125t1 145t3 148q1 48 1 92v42q-1 62 -5 102q-2 30 -5 89 t-7 133t-9 156t-7 157t-2 138z" />
<glyph unicode="m" horiz-adv-x="1780" d="M75 172q-2 8 -2 16q0 25 21 48q2 34 2 104t-2 158t-3 186t-1 188t3 163t9 113q4 24 18 27q4 1 8 1q11 0 22 -6q16 -8 29 -24t17 -30q10 -40 13 -79t5 -78l4 -78q2 -39 12 -79q18 38 48 92t68 104t81 88t86 46q9 2 18 2q34 0 65 -25q40 -31 74 -117q10 -28 19 -71t19 -89 t24 -89t32 -67q34 20 59 54t50 71t54 71t73 56q106 36 185 36q32 0 60 -6q97 -20 155 -85t83 -162t28 -201q1 -18 1 -37q0 -85 -12 -166q-14 -99 -34 -165l14 -16q10 -10 47 14t81 54t84 55t56 19v-32q-16 -14 -39 -43t-52 -61t-62 -63t-66 -49t-66 -18t-61 28q-4 6 -10 18 t-10 25t-8 23t-4 14q2 24 7 74t10 112t10 132t5 133t-5 115t-19 80q-22 46 -65 68t-93 26q-19 2 -37 2q-90 0 -152 -42q-75 -50 -123 -133t-75 -185t-46 -195t-36 -162t-43 -87q-20 -14 -33 -10t-22 19t-15 34t-8 35q2 74 11 180t13 218q2 50 2 98q0 60 -3 117 q-5 103 -31 173q-30 84 -64 100q-11 5 -23 5q-23 0 -47 -21q-36 -32 -71 -102t-67 -158t-60 -184t-49 -181t-35 -147t-16 -82q-6 -40 -32 -42t-50 18t-33 54z" />
<glyph unicode="n" d="M30 48q6 26 13 117t16 211t22 250t29 232t38 157q15 36 32 36q9 0 18 -9q60 -44 112 -111t100 -145t93 -161t94 -158t104 -136t119 -95h14q4 48 9 119t11 155t12 173t15 174t19 157t22 122q2 4 9 17t16 26t19 21q5 4 10 4l10 -4l94 -96q2 -2 2 -5q0 -7 -9 -20 q-13 -19 -31 -42t-36 -44t-20 -31q-14 -52 -24 -125t-16 -156t-10 -171t-7 -171t-4 -157t-3 -128q-72 2 -138 44t-127 111t-118 156t-110 176t-103 175t-96 152h-18q-8 0 -13 -43t-9 -111t-8 -155t-11 -174t-17 -166t-24 -133t-34 -76q-9 -10 -19 -10q-13 0 -29 16 q-4 4 -10 16z" />
<glyph unicode="o" horiz-adv-x="692" d="M35 225q-4 30 -4.5 60.5t4.5 61.5q9 63 27 127q12 40 23 96t27 113t38 106t54 77q20 18 52 27t66 10h22q22 0 44 -1q32 -2 52 -4q88 -6 136 -59t64 -131q9 -46 9 -99q0 -36 -4 -75q-11 -96 -44 -189t-83 -175t-109 -133t-124 -61q-11 -2 -22 -2q-54 0 -105 42 q-58 44 -86 97t-37 112zM122 402q-4 -35 -4 -68q0 -50 9 -96q15 -76 61 -112q32 -26 68 -26q20 0 40 8q58 22 111 82t95 145t60 170q11 51 11 98q0 31 -5 60q-12 73 -64 109q-54 36 -103 36q-19 0 -37 -5q-66 -19 -116 -78t-83 -147t-43 -176z" />
<glyph unicode="p" horiz-adv-x="772" d="M-16 -614q6 148 20 294t32 290t37 289t37 293q2 12 -2 39t-8 59t-5 65t7 57t28 34t58 -2q6 -2 19 -14t13 -18q50 94 112 119q31 13 62 13l62 -13q62 -25 116 -91t91 -154t50 -188q5 -37 5 -73q0 -61 -14 -121q-22 -94 -85 -172t-179 -122q-63 -24 -113 -24q-25 0 -48 6 q-67 18 -137 80q-30 -166 -39 -337t-25 -341q-10 -28 -22 -39q-4 -4 -11 -4q-12 0 -31 13q-34 24 -30 62zM158 144q43 49 62.5 49t25.5 -25q6 -24 4 -58t2 -46q2 -2 7 -8t7 -6q34 -4 64 -4q85 0 144 29q80 39 119 108t44 157q1 18 1 35q0 70 -16 137q-20 84 -58 154t-86 104 q-34 24 -70 24q-15 0 -30 -4q-52 -14 -96 -96q-72 -134 -103 -265q-23 -99 -23 -211q0 -36 2 -74z" />
<glyph unicode="q" horiz-adv-x="746" d="M48 252q-2 23 -2 51q0 35 3 77q5 76 21 162t41 174t61 166t81 137t101 85q27 12 51 12q23 0 45 -11q44 -23 79 -75t61 -123t43 -142t23 -133q4 -37 4 -64q0 -18 -2 -30q0 -2 -7 -28t-16 -63t-19 -80t-19 -80t-14 -62t-3 -27q100 -42 177 -107t135 -143t98 -163t65 -168 t36 -159t11 -136q-10 -56 -42 -128t-80 -129t-111 -83q-26 -11 -53 -11q-40 0 -82 23q-84 42 -135 119t-80 173t-40 205t-13 215q-1 53 -1 104t1 100t1 92t-1 80q-34 -80 -100 -113q-41 -21 -83 -21q-25 0 -51 8q-68 20 -121 93t-63 203zM127 472q-4 -43 -4 -88 q0 -55 6 -112q11 -104 63 -190q58 -26 106 -26q25 0 47 7q65 21 108 81t66 149t30 188q3 41 3 82q0 58 -6 116q-10 99 -33 176t-57 124q-32 44 -72 44h-5q-43 -3 -93 -68t-104 -209q-10 -30 -28 -104t-27 -170zM466 108h14v12zM532 -419q2 -97 19 -187t55 -167t102 -129 q72 -51 126 -51h9q57 5 93 55t51 134q10 57 10 122q0 30 -2 62q-7 100 -36 207t-80 202t-126 168t-173 107q-10 -66 -22 -152t-20 -180q-6 -75 -6 -152v-39z" />
<glyph unicode="r" horiz-adv-x="910" d="M50 108q46 108 63 218q16 104 16 213v13q-1 116 -13 240t-20 260q10 16 27 26t37 2q26 30 68 67t91 68t102 51q46 17 87 17h12q46 -3 81 -35t51 -104q7 -44 7 -85q0 -57 -13 -109q-22 -90 -71 -171t-123 -152t-164 -137q-6 -12 5 -23t28 -20t35 -15t26 -8q40 -28 88 -75 t101 -96t108 -89t109 -51q16 -3 32 -3q37 0 73 18q51 26 97 110h32q2 -14 2 -27q0 -45 -21 -84q-27 -51 -76 -79t-113 -30h-6l-122 36q-80 46 -125 93t-85 92t-92 86t-144 73q-14 -40 -22 -94t-13 -109t-8 -104t-7 -75q-23 -28 -45 -28h-5q-24 4 -43 25t-32 50t-15 45z M212 843q6 -59 12 -131q2 -8 4 -29t5 -44t5 -43t2 -28q86 34 150 106t104 155t53 166q6 40 6 73q0 36 -7 64q-14 54 -59 67q-9 3 -19 3q-41 0 -102 -44q-72 -52 -105 -101t-44 -102q-7 -34 -7 -71q0 -20 2 -41z" />
<glyph unicode="s" horiz-adv-x="742" d="M100 205q0 28 22 57q4 4 27 -21t59 -60t82 -72t94 -56q35 -14 70 -14l26 2q48 7 88 59q16 22 23 51t5 59t-9 59t-19 53q-26 56 -81 114t-118 118t-123 122t-94 126q-33 62 -33 125v4q1 65 59 133q46 52 115 52t136 -30t118 -77t63 -91q6 -18 4 -39t-12 -35t-29 -19t-49 7 q-34 12 -53 52t-40 79t-54 62q-18 12 -44 12q-23 0 -53 -9q-72 -24 -78 -73q-1 -7 -1 -15q0 -44 30 -97q35 -63 96 -132t124 -131t113 -111t62 -71q24 -46 43 -115q14 -52 14 -103q0 -16 -1 -32q-6 -66 -44 -115t-128 -55q-12 -2 -33 -3t-43 -1t-45 4t-37 12q-18 10 -49 25 t-65 35t-65 43t-51 50q-22 30 -22 62z" />
<glyph unicode="t" horiz-adv-x="946" d="M23 791q0 20 67 42q68 23 210 33q0 24 1 85t1 129t-1 128t-1 84q-2 14 -6 38t-8 51t-6 54t2 45q4 24 21 33q15 8 31 8h4q18 -1 33 -12t15 -29v-598q0 -20 50 -19t122 9t151 17q55 6 99 6q20 0 37 -1q57 -4 77 -27q6 -7 6 -18q0 -23 -30 -61q-4 -4 -16 -10t-16 -6 q-72 3 -149 3q-39 0 -79 -1q-120 -2 -228 -18q-36 -6 -39 -67q-1 -11 -1 -24q0 -54 11 -125q13 -88 30 -187t21 -181q1 -13 1 -25q0 -65 -18 -108q-17 -41 -62 -41q-11 0 -23 2q-4 0 -10 6t-6 10q0 38 3 102t5 140t2 156t-4 150t-13 122t-25 70q-57 -5 -102 -5q-54 0 -90 7 q-67 13 -67 33z" />
<glyph unicode="u" horiz-adv-x="1326" d="M64 724q-2 94 -2 188.5t2 189.5q6 8 21 20t31 16q5 1 10 1q10 0 19 -6q13 -9 13 -45v-662q0 -18 5 -42t16 -47t25 -42t32 -27q35 -15 67 -15q33 0 63 16q58 31 105 99t86 161t71 183t59 167t53 115q4 -2 9 -9t7 -9q6 -8 24 -31t22 -31q0 -36 1 -99t7 -138t18 -156 t33 -155t54 -133t80 -90q43 -28 99 -28h11q63 3 147 55q42 26 50 48t6 45q-3 35 -3 49q0 24 27 56q18 6 33 6q26 0 43 -18q26 -28 29 -78v-12q0 -45 -20 -97q-23 -59 -74 -103t-130 -63q-29 -7 -63 -7q-57 0 -126 20q-48 14 -88 51t-72 88t-56 110t-43 118t-33 111t-24 90 h-16q-24 -52 -73 -125t-109 -141t-127 -118t-127 -59q-10 -1 -20 -1q-48 0 -88 37q-48 45 -70 169q-10 190 -14 378z" />
<glyph unicode="v" horiz-adv-x="1088" d="M31 917q13 3 28 3q18 0 40 -4q41 -8 75 -34q60 -72 128 -165t133 -188t124 -185t103 -156q4 -8 13 -13t19 -1q16 28 34 103t37 171t40 198t46 184t52 129q22 37 46 37q6 0 13 -2q8 -4 32 -17t30 -17q15 -9 15 -21q0 -4 -1 -8q-6 -17 -22 -36t-34 -39t-20 -36 q-2 -10 -8 -42t-14 -74t-17 -90t-17 -90t-15 -73t-9 -41q0 -6 -8 -35t-18 -67l-20 -76q-10 -38 -16 -58q-10 -34 -25 -74t-37 -66t-49 -28h-2q-26 0 -59 42q-76 98 -141 205t-133 212t-146 201t-180 170q-45 31 -45 52q0 22 28 29z" />
<glyph unicode="w" horiz-adv-x="1574" d="M52 1027q2 45 42 75q3 2 6 2q15 0 38 -48q28 -58 62 -152t68 -209t64 -217t51 -174t27 -82q42 28 76 92t63 145t54 168t49 160t48 122t51 53h4q25 0 55 -46q32 -50 72 -174q56 -178 145 -337t233 -279q20 -12 37 -12q23 0 39 22q28 38 40 115q10 62 10 140q0 20 -1 40 q-3 103 -14 202t-28 180t-37 117q-20 30 -36 41t-22 22t3 30t41 65q14 10 27 10q22 0 42 -26q33 -42 60 -126t46 -198t25 -232q3 -51 3 -99q0 -65 -5 -128q-8 -109 -35 -184t-75 -104q-19 -12 -42 -12q-35 0 -78 27q-108 64 -174 152t-114 186t-92 202t-108 200q-6 10 -16 0 q-40 -72 -67 -151t-53 -159t-57 -158t-75 -146q-20 -28 -59 -50t-74 -23t-55 26q-10 14 -10 37t10 56q-54 150 -92 287t-82 281q-12 36 -36 83t-40 95q-14 43 -14 83v10z" />
<glyph unicode="x" horiz-adv-x="898" d="M45 959q-1 5 -1 10q0 20 10 31q12 14 54 -6q30 -16 55 -49t46 -74t39 -81t34 -66q8 -12 26 -43t38 -67t38 -67t26 -43q14 -8 38 24t54 87t63 124t67 137t67 126t62 88q25 26 45 26q3 0 7 -1q23 -5 37 -61q2 -4 2 -15t-2 -15q-22 -52 -44 -85t-47 -66t-53 -77t-60 -118 q-30 -58 -65 -115t-55 -114q-17 -50 -17 -98v-15q3 -56 49 -112q6 -10 19 -24t25 -26l21 -21q9 -9 11 -9h18q10 0 19 23t16 56t15 71t18 67t22 44t30 5q0 -12 -2 -53t-9 -93t-19 -107t-30 -95t-45 -56q-10 -6 -21 -6q-19 0 -42 18q-28 20 -48 50t-39 60t-39 59t-48 51 q-12 -10 -29 -42t-35 -72t-40 -81t-45 -65t-49 -26h-3q-25 0 -51 34q-10 12 -5 31t15 37t21 34t17 24q14 26 37 73t45 93t38 81l16 35v16l-25 42q-25 42 -61 100t-73 119t-61 101q-4 8 -14 22t-20 29t-19 27t-11 16q-6 8 -18 37t-15 56z" />
<glyph unicode="y" horiz-adv-x="1166" d="M25 423q1 77 12 162t25 162t27 138t19 91q10 24 31 31t41 2t33 -22t7 -41q-22 -84 -39 -162t-28 -156t-14 -158q-1 -27 -1 -54q0 -55 4 -114q35 -48 85 -48q6 0 13 1q58 7 124 50t134 113t126 142t101 135t61 93t29 68t24 75t30 71t45 54l62 -62v-820q10 -2 47 2t65 4 q33 0 33 -13q0 -12 -49 -41q-28 -16 -55 -33t-57 -29q-18 -170 -34 -299t-36 -247t-48 -242t-70 -284q-16 -36 -35 -85t-46 -88t-65 -56q-15 -7 -33 -7q-27 0 -59 16q-68 34 -93 140q-19 80 -19 181q0 32 2 67q8 142 45 300t96 296t136 235t165 119q2 12 4 39t4 57t4 57 t2 39q2 44 2 113v134v112q0 47 -2 49l-14 14q-16 -28 -64 -96t-114 -148t-146 -159t-162 -130t-160 -58q-8 -1 -15 -1q-69 0 -127 58q-32 30 -43 93q-10 58 -10 127v13zM518 -898q2 -18 7 -47t10 -57t9 -48t6 -22l48 -30q4 -2 7 -2q18 0 41 54q28 66 57 177t56 247t48 262 t33 222q10 82 10 118v10q-90 -78 -158 -181t-111 -220t-59 -240q-9 -70 -9 -140q0 -52 5 -103z" />
<glyph unicode="z" horiz-adv-x="1370" d="M97 1148q-6 7 -5.5 15.5t5.5 17.5q11 19 35 37t52 22q90 12 179 15q44 1 89 1l89 -1q89 -3 178 -9t179 -10q96 -2 117 -29q10 -13 10 -29q0 -18 -13 -41q-24 -43 -80 -97t-114 -110t-104 -111t-50 -97q38 -24 124 -27q26 -1 52 -1q62 0 130 5q96 7 182 19t126 18 q18 0 30 -13t16 -30q2 -8 2 -16.5t-2 -17.5q-4 -17 -22 -27q-40 -22 -96 -31t-120 -11q-21 -1 -43 -1q-44 0 -92 3q-71 4 -139 9t-131 8q-27 1 -52 1q-33 0 -61 -2q-124 -146 -164 -241q-26 -62 -26 -107q0 -23 7 -41q21 -53 89 -70q43 -11 95 -11q31 0 65 4q92 10 194 41 t189 74t148 92t71 95q38 16 45 -7t0 -58t-21 -70t-20 -43q-40 -46 -110 -85t-156 -69t-182 -48t-185 -21q-17 -1 -33 -1q-70 0 -131 11q-75 13 -123 45q-52 36 -64 79q-6 21 -6 42q0 23 7 47q13 46 43 95t63 97t60 91t33 81q-12 6 -26 6h-29q-15 0 -29 2t-24 14 q-24 26 -23 56t31 54q20 14 42 10t45 -15t46 -20t45 -5q10 2 39 29t66 68t78 89t76 91t61 76t34 43q-70 38 -165 47q-57 5 -116 5q-39 0 -80 -2q-101 -6 -200 -20t-177 -20q-42 -4 -53 10z" />
<glyph unicode="{" d="M48 898q8 30 29 55t33 55q30 -20 59 -14t54 28t46 57t36 71t21 70t4 56q-14 110 -44 180t-50 110t-18 56t52 22t161 7t311 11q20 0 36 5l32 10q16 5 34 6t40 -7q18 -6 25 -20t9 -30t0 -33t-4 -27q-2 -14 -33 -19t-79 -6t-107 0t-116 -2t-107 -10t-78 -25q14 -84 29 -142 t24 -101t7 -78t-21 -73t-58 -84t-107 -112q76 -28 146 -50t154 -14q12 -20 11 -83t-9 -149t-21 -184t-24 -188t-19 -161t-6 -101q10 -34 39 -66t68 -57t85 -41t89 -17t81 16t62 57q60 18 96 7t46 -38t-5 -62t-57 -65q-50 2 -92 0t-82 -4t-82 1t-90 17q-96 28 -163 75 t-89 147q0 14 1 62t3 114t5 140t5 140t4 114t2 60q2 64 -1 99t-23 53t-62 27t-118 25q-26 -20 -60 -18t-62 20t-45 47t-7 61z" />
<glyph unicode="|" horiz-adv-x="362" d="M16 1340q-8 24 9 44t43 29t53 4t37 -31q-2 -162 12 -332t38 -342t56 -340t68 -324q-6 -18 -21 -34t-34 -23t-38 -2t-35 27q-14 20 -15 41t3 42t9 43t3 46q-10 290 -54 585t-134 567z" />
<glyph unicode="}" horiz-adv-x="1182" d="M37 1599q-23 21 11 71q14 22 46 32q66 -4 143 -1t155 14t151 31t133 50q22 10 42 -6t34 -42t20 -54t0 -40q-2 -4 -14 -18t-26 -30t-26 -30t-14 -16q-10 -14 -20 -60t-20 -110t-18 -135t-13 -135t-7 -113t2 -65q6 -46 37 -50t75 8t93 31t91 20t69 -28t27 -109 q0 -4 -11 -27t-19 -35q-2 -2 -8 -9t-8 -7q-14 -22 -36 -56t-42 -67t-34 -57l-14 -24v-16q116 -102 175 -200t74 -188t-5 -169t-61 -144t-94 -113t-103 -77t-90 -36t-54 13q-4 4 -4 18t3 30t7 29t8 17q32 26 60 41t54 29t52 33t56 55q88 108 105 186t-11 134t-84 95t-116 69 t-107 56t-55 58q-8 36 5 64t38 52t55 46t54 46t36 50t2 58q-116 -8 -186 20t-106 80t-44 123t1 148t28 155t37 146t29 121t3 77q-16 2 -73 -9t-129 -24t-148 -23t-132 -7t-79 24z" />
<glyph unicode="~" horiz-adv-x="1498" d="M53 1210q17 44 63 104t99 115t99 97t66 52q42 20 71 -5t53 -74t48 -111t56 -115t77 -85t111 -21t158 76t218 207q16 18 30 48t27 59t25 50t28 22t35 -24t43 -91q12 -34 -13 -47t-49 -17q-40 -42 -80 -91t-82 -96t-88 -87t-98 -65t-111 -31t-127 18q-78 18 -122 56t-70 88 t-45 108t-49 116q-6 6 -16 0q-60 -48 -95 -77t-59 -59t-43 -70t-45 -108q-86 -24 -109 -5t-6 63z" />
<glyph unicode="&#xa1;" horiz-adv-x="342" d="M83.7344 760.018q8.8252 -19.5088 30.3965 -45.0723q62.7539 -16.1455 95.1113 -9.41797q32.3574 6.72656 40.2021 24.2178q7.84375 17.4912 -3.92285 39.6914q-11.7656 22.2002 -35.2988 37q-23.5322 14.7998 -52.9482 16.1455t-56.8711 -22.873 q-25.4932 -20.1816 -16.6689 -39.6914zM140.605 -220.148q-0.980469 -17.4912 7.84375 -31.6191q8.8252 -14.127 38.2412 -19.5088q41.1816 -8.07324 62.7539 21.5273q1.96094 32.291 1.96094 93.5098v128.491v129.164q0 61.8906 1.96094 94.1816 q0 6.72754 -10.7861 34.3096q-10.7852 27.582 -27.4551 53.1455q-16.6689 25.5635 -35.2988 39.0186q-18.6299 13.4541 -34.3184 -9.41895q-3.92188 -78.0361 8.8252 -160.109q12.7461 -82.0723 4.90234 -158.764q-3.92188 -51.1279 -1.96094 -93.5098t0 -54.4912 q-1.96094 -13.4541 -8.8252 -30.9453q-6.86328 -17.4912 -7.84375 -34.9814z" />
<glyph unicode="&#xa2;" horiz-adv-x="820" d="M147 471q7 95 30 185t61 166t92 124q-10 46 -23 90t-29 94q-8 24 11 32t48 3t58 -23t39 -44v-96q48 6 84 -31t57 -88t27 -100t-4 -69t-39 3t-75 119q-22 38 -48 34q4 -176 22 -346t46 -344q26 22 65 62t80 81t78 74t60 39t26 -23t-25 -113q-14 -40 -39 -82t-58 -80 t-74 -70t-85 -52q10 -46 21 -93t21 -95q-6 -18 -21 -34t-34 -22t-38 -1t-35 27t-24 75t-12 111q-76 0 -142 46q-48 36 -77 105t-40 155t-4 181zM238 392q-4 -74 10 -132t51 -90t103 -24q-4 96 -6 181t-6 164t-11 156t-21 155q-30 -48 -56 -117t-43 -144t-21 -149z" />
<glyph unicode="&#xa3;" horiz-adv-x="966" d="M-114 656q-8 28 9 45t50 26t78 10t95 -1q12 76 24 167t30 211q24 82 69 122t101 48t117 -9t118 -44t104 -60t75 -57q72 -66 107 -109t42 -69t-8 -34t-43 0t-61 29t-63 53q-36 38 -96 73t-126 55t-130 19t-110 -33q-10 -102 -16 -193t-14 -183q48 -6 92 -13t78 -14t54 -11 t22 -4q50 -10 62 -33t1 -44t-36 -32t-45 1q-58 4 -118 7t-120 7q-10 -94 -22 -187t-34 -195q-12 -34 13 -41t72 0t107 22t121 28t113 17t82 -12q20 2 57 -8t78 -21t78 -20t57 -5q-34 -62 -39 -93t-4 -42t-5 -4t-43 23t-117 35t-226 35q-2 0 -35 -7t-81 -19l-104 -26 q-56 -14 -104 -25t-80 -19t-34 -6q-38 14 -48 32t0 62q14 76 24 138t18 118t15 110t13 112h-76q-38 0 -78 -2q-22 10 -38 27t-22 43z" />
<glyph unicode="&#xa4;" horiz-adv-x="992" d="M58 984q-2 28 11 43t55 -5q46 -24 81 -67t63 -103q34 66 59 106t55 59t73 23t113 2q14 0 34 -15t40 -33t38 -35t28 -23q26 48 51 83t47 49t39 2t29 -56q2 -4 2 -15t-2 -15q-20 -50 -40 -81t-44 -61q0 -106 -13 -188t-37 -147t-58 -117t-76 -96q28 -24 62 -53t56 -51 q62 -68 65 -93t-25 -23t-72 20t-76 36q-28 16 -50 42t-38 56q-38 -24 -79 -31t-83 9q-18 -36 -38 -71t-42 -54t-46 -19t-50 34q-10 14 -5 32t15 36t22 34t16 26t12 25t18 31q-38 42 -61 79t-32 76t-6 83t19 100q2 6 5 25t6 41t7 42t6 28q-26 36 -38 58t-21 36t-21 24t-38 22 q-10 6 -22 34t-14 56zM273 608q-7 -80 11 -151t64 -107q50 -42 106 -25t105 68t86 127t52 153t1 145t-68 104q-74 50 -137 37t-110 -65t-75 -129t-35 -157zM664 254l88 -86q-4 2 -8 6t-9 7t-11 9q-12 14 -27 30t-33 34z" />
<glyph unicode="&#xa5;" horiz-adv-x="1292" d="M20 1659q0 25 11 41t31 18t48 -16q26 -16 52 -86t58 -166t72 -205t93 -204t122 -164t157 -83q62 -10 109 32t84 116t66 173t53 201t46 199t45 170t50 112t61 25q-2 -106 -24 -239t-59 -269t-86 -263t-105 -220t-118 -141t-122 -26q-12 -12 -22 -70q80 -10 136 -22t58 -12 q46 -34 55 -67t-2 -54t-32 -22t-37 33q-50 4 -98 6t-98 6q-2 -16 -3 -33t-1 -33q86 -12 162 -29t124 -35t58 -33t-38 -21q-52 2 -136 -6t-176 -18q-2 -94 3 -166t21 -88l-146 24l16 220q-52 -4 -99 -5t-86 2t-66 12t-39 25q-34 48 -21 76t59 43t116 16t148 -5l4 58 q-58 2 -114 1t-110 -3q-22 10 -39 25t-23 39q-8 32 15 50t65 26t99 8t117 -6l6 90q-78 96 -121 153t-71 101t-48 87t-51 112t-81 177t-136 282q-12 26 -12 51z" />
<glyph unicode="&#xa6;" horiz-adv-x="268" d="M62 199q0 73 2 140t5 140t7 169l106 16q-2 -74 -4 -128t-3 -104t-2 -103t1 -125q6 4 20 13t28 5q2 -28 -4 -74t-23 -85t-45 -57t-70 10q-4 0 -9 6t-7 8q-2 96 -2 169zM76 798q4 108 5 215t-1 215q2 34 18 55t36 25t39 -11t31 -51v-18q-16 -108 -23 -219t-11 -225z" />
<glyph unicode="&#xa7;" horiz-adv-x="750" d="M51 269q-21 43 15 91q2 4 20 -14t48 -46t70 -58t88 -49t103 -21t115 26q18 8 25 42t1 72t-23 71t-47 41l-122 124q-64 60 -123 122t-94 126t-34 130t59 134q28 34 68 44t84 6q-46 48 -83 98t-52 101t-5 102t56 105q44 50 113 50t136 -30t119 -77t64 -91q6 -18 4 -38 t-12 -35t-29 -20t-49 7q-34 12 -53 52t-40 79t-54 62t-97 3q-74 -24 -80 -74t30 -114t100 -135t128 -133q30 -24 50 -50q44 -42 76 -75t42 -49q24 -44 42 -111t14 -131t-38 -114t-114 -62q10 -10 17 -19t11 -17q24 -46 38 -100t2 -100t-55 -79t-133 -39q-12 -2 -33 -3 t-43 -1t-45 4t-37 12q-26 14 -79 41t-98 62t-66 78zM176 918q14 -46 53 -103t88 -115t101 -113t94 -97q24 4 49 18t47 42q18 22 24 51t4 59t-9 59t-19 53q-8 18 -39 54t-79 76t-108 74t-128 48q-60 -2 -76 -31t-2 -75z" />
<glyph unicode="&#xa8;" horiz-adv-x="906" d="M159 1242q5 28 17 63t30 68t38 55q78 -8 109 -41t30 -74t-28 -82t-62 -63t-72 -18t-61 52q-6 12 -1 40zM620 1355q0 35 18 57q78 -10 118 -44t52 -76t0 -83t-35 -64t-51 -20t-52 51q-6 10 -18 41t-22 67t-10 71z" />
<glyph unicode="&#xa9;" horiz-adv-x="1630" d="M160 933q-6 139 1 259t26 212t49 140q12 20 29 24t32 -3t24 -23t7 -34q-70 -436 -54 -737t90 -489t192 -273t249 -85t261 74t229 203t152 303t32 374t-132 415t-341 425q-58 52 -115 54t-111 -26t-106 -77t-100 -99q-36 -14 -41 12t13 71t57 97t95 90t126 50t148 -22 q172 -76 292 -211t190 -303t92 -355t-2 -367t-93 -338t-180 -268t-263 -158t-344 -8q-102 24 -180 98t-136 182t-97 241t-62 273t-29 279zM521 1055q13 109 57 191t126 114q50 18 90 2t70 -51t49 -82t26 -89t3 -72t-21 -33t-48 30t-75 117q-28 52 -57 34t-53 -80t-40 -157 t-17 -198t17 -200t61 -165t116 -94t181 14q16 6 47 35t70 69t82 85t83 82t72 62t50 23t17 -35t-27 -111q-28 -76 -95 -155t-154 -132t-185 -63t-186 52q-64 44 -117 135t-89 204t-51 236t-2 232z" />
<glyph unicode="&#xaa;" horiz-adv-x="680" d="M19.1025 672.898q3.70117 58.7715 16.6543 114.529q12.9531 55.7568 34.542 103.979t53.0469 79.8691q31.458 31.6455 71.5508 41.1904q12.3369 3.01367 25.9072 3.01367q29.6074 0 63.5322 -14.5674q17.2715 -8.03711 36.3926 -27.125 q19.1211 -19.0889 36.3926 -42.6973q17.2705 -23.6094 30.2236 -47.2178q12.9541 -23.6094 19.1221 -39.6836q1.2334 -5.02344 0.616211 -30.6416q-0.616211 -25.6182 -1.85059 -61.7852q-0.616211 -14.5674 -0.616211 -30.1396q0 -23.6084 1.2334 -49.7295 q1.85059 -43.7012 8.63574 -85.3936q6.78516 -41.6934 21.5889 -77.3574q14.8037 -35.665 39.4766 -56.2598q24.6729 -20.5957 62.2988 -22.1025h4.31738q36.3926 0 87.5889 24.6143q19.7383 14.0645 23.4395 27.627t3.70117 23.1074q0 9.54395 2.4668 12.5576 t22.2051 -5.02344q18.5049 -19.5898 18.5049 -41.1904q0 -7.03223 -1.85059 -14.5664q-8.01855 -29.6367 -35.7754 -52.2412t-69.7012 -32.1484q-16.6533 -4.01855 -33.9248 -4.01855q-25.29 0 -51.8125 8.53906q-43.7949 14.0645 -83.2715 57.2646 q-39.4766 43.1992 -62.915 125.579q-7.40234 -17.0781 -22.8232 -42.1943q-15.4199 -25.1162 -36.3916 -50.2314q-20.9727 -25.1162 -47.4961 -47.2188q-26.5234 -22.1016 -54.8965 -33.1523q-22.8223 -9.04199 -47.4951 -9.04199q-5.55176 0 -11.1035 0.501953 q-30.2236 2.51172 -59.8311 27.6279q-24.6729 20.0928 -39.4766 61.2832q-14.8037 41.1895 -20.3555 93.4307q-3.08398 31.1436 -3.08398 64.7998q0 22.6035 1.2334 46.2129zM61.0469 643.262v-14.5674q0 -43.1992 6.16797 -82.3799q7.40234 -45.7109 24.6729 -75.8506 q20.9717 -36.167 49.3457 -39.1807q3.70117 -0.50293 7.40137 -0.50293q24.6738 0 50.5801 18.5859q29.6074 21.0977 58.5977 61.2832t49.3457 90.9199t30.8408 106.491q6.16895 33.6562 6.16895 65.8047q0 20.5947 -2.46777 41.1895q-6.78516 51.2363 -32.6914 93.4316 t-78.9531 66.3066q-1.2334 1.00391 -4.31738 1.00391h-5.55176q-38.2432 -14.0645 -66.6162 -48.2227q-28.374 -34.1572 -48.7295 -80.3711q-20.3545 -46.2129 -31.458 -99.459q-11.1025 -53.2461 -12.3359 -104.482z" />
<glyph unicode="&#xab;" horiz-adv-x="1884" d="M14 212q2 32 21 55t59 15q16 10 55 37t82 57t80 58t51 40q6 4 34 31t63 62l70 70l55 55q26 28 45 59t36 63t35 62t42 54q6 6 32 -3t44 -32t17 -58t-47 -81l-378 -378q-46 -28 -89 -59t-83 -67q2 -10 14 -15t25 -9t24 -5t15 -1q110 -16 224 -35t229 -32t230 -18t229 5 q24 -36 -5 -65t-79 -47t-104 -22t-78 8q-24 4 -75 11t-115 16t-134 20t-134 20t-114 16t-74 11q-4 0 -15 3t-24 6t-25 5t-14 2h-174q-26 0 -39 27t-11 59zM546 361q2 31 21 55t59 16q16 10 55 36t82 56t80 58t51 40q6 4 35 32t64 63t69 70t54 55q26 28 45 59t36 63t35 62 t42 54q6 6 32 -3t44 -32t17 -58t-47 -81l-378 -378q-46 -28 -89 -60t-83 -66q2 -10 14 -16t25 -10t24 -5t15 -1q110 -16 224 -34t230 -32t231 -19t229 5q16 -24 7 -45t-33 -37t-59 -28t-70 -18t-65 -5t-46 9q-26 4 -77 11t-115 16t-134 20t-134 20t-114 16t-74 11 q-4 0 -15 3t-24 6t-25 5t-14 2h-174q-26 0 -39 27t-11 58z" />
<glyph unicode="&#xac;" horiz-adv-x="866" d="M24 874q2 24 29 32t58 9t57 -1t28 2q116 4 188 7t135 1t134 -7t185 -17q6 -52 9 -115t2 -125t-6 -116t-18 -87t-33 -41t-50 24q0 2 -4 29t-8 66t-9 84t-10 83t-9 63t-6 25h-426q-18 2 -60 -2t-84 -1t-74 22t-28 65z" />
<glyph unicode="&#xad;" d="M41 554q-1 20 4 38t17 33t32 21q26 6 105 10t183 6t219 2t213 -2t165 -6t75 -10q32 -22 23 -47t-35 -45t-60 -28t-54 8q-100 2 -207 -5t-216 -16t-217 -14t-210 5q-4 0 -16 6t-14 10q-6 14 -7 34z" />
<glyph unicode="&#xae;" horiz-adv-x="1850" d="M124 878q-2 140 11 261t37 213t58 138q14 18 32 22t35 -2t26 -20t5 -32q-12 -44 -35 -123t-45 -182t-39 -222t-17 -242t24 -244t81 -226t154 -187t245 -130q136 -44 262 -26t235 84t199 170t155 231t103 269t44 284t-23 275t-99 242t-183 185t-275 104q-86 16 -154 4 t-126 -42t-111 -74t-107 -92q-40 -14 -49 3t9 52t61 78t107 80t146 59t180 16q174 -12 304 -82t216 -180t131 -251t51 -296t-24 -314t-94 -304t-161 -267t-224 -203t-281 -113t-334 4q-116 22 -203 97t-148 183t-100 243t-58 276t-21 281zM508 358q46 108 63 218t17 226 t-12 240t-20 260q10 14 26 25t36 3q26 30 68 67t91 68t102 51t99 17t81 -35t51 -104q16 -104 -5 -194t-70 -171t-123 -152t-164 -137q-6 -12 5 -23t28 -20t35 -15t26 -8q40 -28 88 -75t101 -96t108 -89t108 -51t104 15t97 110h32q8 -60 -19 -111t-76 -79t-113 -30t-128 36 q-80 46 -125 93t-85 92t-92 86t-144 73q-12 -40 -20 -94t-13 -109t-8 -104t-7 -75q-26 -32 -50 -28t-44 25t-33 50t-15 45zM508 358q46 108 63 218t17 226t-12 240t-20 260q10 14 26 25t36 3q26 30 68 67t91 68t102 51t99 17t81 -35t51 -104q16 -104 -5 -194t-70 -171 t-123 -152t-164 -137q-6 -12 5 -23t28 -20t35 -15t26 -8q40 -28 88 -75t101 -96t108 -89t108 -51t104 15t97 110h32q8 -60 -19 -111t-76 -79t-113 -30t-128 36q-80 46 -125 93t-85 92t-92 86t-144 73q-12 -40 -20 -94t-13 -109t-8 -104t-7 -75q-26 -32 -50 -28t-44 25 t-33 50t-15 45zM671 1093q-5 59 5 112t44 101t106 100q76 54 120 42t58 -67t1 -137t-53 -165t-104 -155t-150 -106q0 8 -2 28t-5 43t-5 44t-4 29q-6 72 -11 131zM671 1093q-5 59 5 112t44 101t106 100q76 54 120 42t58 -67t1 -137t-53 -165t-104 -155t-150 -106q0 8 -2 28 t-5 43t-5 44t-4 29q-6 72 -11 131z" />
<glyph unicode="&#xaf;" horiz-adv-x="958" d="M30 1078q6 26 46 36q26 6 91 8t148 1t173 -4t167 -8t130 -11t61 -12q32 -22 24 -42t-33 -33t-59 -15t-54 14q-100 2 -177 -2t-150 -8t-151 -4t-180 10q-4 0 -17 6t-15 10q-10 28 -4 54z" />
<glyph unicode="&#xb0;" horiz-adv-x="476" d="M5.2373 445.77q-2.88379 16.2363 -3.24512 32.7432q-0.360352 16.5059 3.24512 33.2832q6.48926 34.0957 19.4688 68.7324q8.65332 21.6475 16.585 51.9551q7.93164 30.3066 19.4688 61.1553t27.4004 57.3672t38.9375 41.6719q14.4219 9.74219 37.4961 14.6123 q23.0742 4.87109 47.5908 5.41211h15.8633q15.8633 0 31.7275 -0.541016q23.0742 -1.08203 37.4951 -2.16504q63.4541 -3.24707 98.0654 -31.9307t46.1484 -70.8965q6.48926 -24.8955 6.48926 -53.5791q0 -19.4834 -2.88379 -40.5898q-7.93164 -51.9551 -31.7275 -102.286 q-23.7949 -50.332 -59.8486 -94.71q-36.0527 -44.3789 -78.5967 -71.9795q-42.543 -27.6016 -89.4121 -33.0127q-7.93164 -1.08301 -15.8633 -1.08301q-38.9385 0 -75.7129 22.7305q-41.8213 23.8125 -62.0117 52.4961t-26.6797 60.6143zM67.9707 541.562 q-2.88477 -18.9414 -2.88477 -36.8008q0 -27.0605 6.49023 -51.9551q10.8154 -41.1318 43.9844 -60.6143q23.0742 -14.0713 49.0332 -14.0713q14.4219 0 28.8428 4.3291q41.8223 11.9062 80.0391 44.3789q38.2158 32.4717 68.501 78.4736t43.2646 92.0039 q7.93164 27.6006 7.93164 53.0371q0 16.7773 -3.60547 32.4717q-8.65332 39.5078 -46.1484 58.9912q-38.9375 19.4834 -74.2705 19.4834q-13.7002 0 -26.6797 -2.70605q-47.5898 -10.2832 -83.6436 -42.2139t-59.8486 -79.5566q-23.7949 -47.625 -31.0059 -95.251z" />
<glyph unicode="&#xb1;" horiz-adv-x="1212" d="M17 722q-5 26 16 50t54 42t55 22q10 2 37 8t57 14t57 14t37 10q2 42 -4 82t-14 79t-13 77t1 78q4 30 21 41t36 7t35 -21t18 -43q2 -16 4 -54t4 -80t4 -81t2 -53l16 -16l48 7q48 7 113 17t134 21t115 17q6 2 42 11t82 19t94 15t80 -2t41 -31t-23 -74q-2 -4 -8 -9t-10 -7 q-176 20 -358 -9t-350 -85q-2 -30 2 -100t9 -157t11 -181t8 -172t-1 -128t-13 -50h-80l-4 11q-4 11 -9 26t-10 31t-7 26q-6 24 4 44t26 36q-6 146 -10 292t-20 290q-30 4 -68 -10t-75 -31t-71 -30t-54 -7q-56 18 -61 44z" />
<glyph unicode="&#xb2;" horiz-adv-x="844" d="M33.4316 809.117q-4.67969 25.0361 2.67383 53.3369t17.3818 58.2344q10.0273 29.9346 7.35352 59.3232q2.67383 9.79688 12.0332 14.1504q9.35938 4.35449 20.7236 5.44336q11.3652 1.08789 22.7305 -0.544922q11.3643 -1.63281 18.0498 -2.7207 q2.67383 -15.2393 18.7178 -19.5938q16.0449 -4.35352 40.1113 -4.35352t53.4814 1.63281t59.498 -1.08887q30.084 -2.7207 59.498 -12.5176q29.415 -9.7959 52.1445 -32.6553q6.68555 -66.3984 -14.0391 -132.797q-20.7236 -66.3984 -54.8184 -130.62 q-34.0938 -64.2217 -75.542 -125.178t-74.874 -116.47v-17.416q92.2549 -4.35352 174.483 3.81055q82.2275 8.16309 160.444 25.5791q78.2158 17.416 155.765 40.8193q77.5479 23.4023 161.781 49.5264q2.67383 1.08887 10.0273 1.08887t10.0283 -1.08887 q16.0439 -21.7695 -8.69141 -43.54q-24.7354 -21.7695 -75.542 -41.9072q-50.8076 -20.1377 -121.002 -37.5537t-146.405 -31.5664t-151.085 -23.4023t-135.041 -13.6064q-60.167 -4.35352 -98.9404 -1.63281q-38.7744 2.72168 -41.4482 12.5176 q-2.67383 8.70801 -2.67383 27.7568t2.67383 24.4912t24.7354 35.9209q22.0605 30.4785 53.4814 75.6504q31.4199 45.1729 66.1826 99.5986q34.7637 54.4248 63.5098 107.761q28.7461 53.3369 44.79 100.143q16.0449 46.8057 10.0283 76.7393t-40.7793 37.0088 q-34.7637 7.0752 -106.963 -17.96q-32.0889 -11.9736 -48.1338 -29.9336q-16.0439 -17.96 -27.4092 -38.6416q-11.3643 -20.6816 -24.0664 -41.3633t-38.1055 -37.0088q-32.0889 19.5928 -36.7686 44.6279z" />
<glyph unicode="&#xb3;" horiz-adv-x="566" d="M35.6426 811.243q0 16.6152 3.65137 41.2686t10.3447 53.0586q6.69434 28.4062 13.3877 53.0596q6.69434 24.6533 11.5615 42.3398q4.86914 17.6865 4.86914 20.9023q18.2549 17.1504 31.0342 18.7578q12.7783 1.6084 20.0811 -6.43164 q7.30273 -8.03906 9.12793 -23.0459q1.8252 -15.0059 -0.608398 -31.085q13.3867 9.64746 33.4688 19.8301q20.0811 10.1836 42.5957 17.1504q22.5156 6.96777 45.0312 9.11133q22.5146 2.14355 40.7705 -4.28711q27.9922 -9.64746 38.9453 -30.5498 q10.9531 -20.9014 10.3447 -47.1631t-9.12793 -55.2031q-8.51855 -28.9414 -20.0811 -55.7383q-11.5615 -26.7979 -23.124 -48.7715q-11.5615 -21.9736 -16.4297 -32.6934v-16.0781q86.4102 -3.21582 139.96 -23.582t80.3242 -51.4512q26.7754 -31.085 27.9922 -69.6729 q1.2168 -38.5889 -16.4297 -77.1777q-17.6475 -38.5879 -51.1162 -73.4248t-78.499 -59.4902t-98.5801 -34.8369q-53.5498 -10.1826 -109.534 0.536133q-27.9912 5.35938 -41.3789 21.9736q-13.3877 16.6152 -15.2129 36.9805q-1.82617 20.3662 4.86816 41.8047 q6.69336 21.4375 19.4727 37.5166q12.7783 16.0781 29.209 23.0459q16.4297 6.9668 32.251 -0.536133q6.08496 -12.8633 0 -24.1182t-13.3877 -22.5098q-7.30176 -11.2549 -11.5615 -22.5098t6.69434 -24.1182q18.2549 -24.6533 48.0723 -27.333 q29.8184 -2.67969 62.6777 10.1826q32.8604 12.8633 66.3291 36.9805q33.4688 24.1182 59.0264 53.0596t40.1621 58.9541q14.6045 30.0137 10.9531 53.5947q-4.86719 32.1572 -30.4258 49.3076q-25.5576 17.1504 -59.6348 23.0459t-69.3711 1.6084 q-35.2949 -4.28809 -60.8525 -15.0068q-14.6045 -6.43164 -24.9492 -17.1504t-18.8643 -23.582q-8.51953 -12.8623 -18.2559 -24.6533t-24.3398 -19.2939q-18.2559 -8.57617 -28.6006 -1.6084t-15.2139 19.8301q-4.86719 12.8633 -3.04199 27.334 q1.8252 14.4697 7.91113 23.0459q12.1699 15.0059 34.0762 39.6602q21.9072 24.6533 45.0312 54.1309q23.123 29.4766 44.4219 61.6338q21.2979 32.1572 34.0771 62.7061q12.7783 30.5488 13.3877 57.3467q0.608398 26.7979 -17.6475 45.0195 q-38.9453 7.50391 -67.5459 -3.75098t-50.5068 -32.1572q-21.9072 -20.9023 -37.1201 -48.2354q-15.2129 -27.334 -26.166 -50.915q-4.86816 -9.64746 -7.91113 -17.6865q-3.04199 -8.03906 -7.91113 -12.3271q-4.86719 -4.28711 -14.6035 -5.89551 q-9.73633 -1.60742 -26.7754 1.6084q-7.30273 1.07129 -7.30273 17.6855z" />
<glyph unicode="&#xb4;" horiz-adv-x="610" d="M68 1278q-12 28 29 52t110 45t153 41t160 42q64 18 67 1t-33 -50t-99 -73t-133 -69t-135 -39t-103 20q-4 2 -9 14t-7 16z" />
<glyph unicode="&#xb5;" horiz-adv-x="1074" d="M38 -148l68 1122q6 8 21 19t32 13t30 -9t13 -47v-662q0 -18 6 -41t16 -46t24 -42t32 -27q72 -32 131 0t106 100t85 160t70 182t59 167t53 115q4 -2 9 -8t7 -8q6 -8 25 -32t23 -32q0 -38 1 -105t7 -147t20 -165t39 -160t62 -131t93 -78l-102 -48q-46 48 -81 116t-61 139 t-43 138t-29 111h-16q-10 -44 -45 -112t-87 -135t-115 -120t-125 -68t-121 21t-101 148q0 6 -1 -16t-3 -60t-4 -84t-4 -84t-4 -61t-2 -15z" />
<glyph unicode="&#xb6;" horiz-adv-x="974" d="M70 736q10 90 43 183t89 168t133 121t177 42q60 8 131 11t131 -4t99 -28t37 -57q2 -62 -2 -153t-13 -197t-20 -219t-18 -218t-11 -196t2 -153q4 -20 -12 -50t-36 -46t-33 -5t-3 77q8 118 12 213t7 179t4 163t3 165t4 185t8 223q-42 -18 -81 -40t-33 -40q38 -108 37 -224 t-18 -224t-35 -201t-12 -157q-6 -34 -16 -80t-24 -89t-29 -77t-29 -45t-26 7t-18 80q-6 8 0 48t17 97t24 126t25 136t19 124t3 93q-38 -28 -64 -46t-49 -34t-49 -36t-64 -50q-90 -76 -153 -84t-101 32t-52 115t-4 165z" />
<glyph unicode="&#xb7;" horiz-adv-x="458" d="M130 474q-8 44 10 82t59 60t95 14q42 -52 45 -102t-18 -86t-59 -52t-78 4q-46 36 -54 80z" />
<glyph unicode="&#xb8;" horiz-adv-x="1706" d="M428 -636q24 -16 62 -4t74 43t62 77t24 98t-40 107t-128 103q8 18 4 52t-12 70t-11 67t9 43q36 38 46 18t16 -65t19 -96t53 -75q114 -66 150 -141t15 -144t-89 -125t-160 -82q-12 -18 -21 -17t-19 13t-23 29t-31 29z" />
<glyph unicode="&#xb9;" horiz-adv-x="282" d="M42.1006 937.475q-1.33789 13.4521 4.68164 25.0693q6.01855 11.6182 14.7129 17.1211q8.69336 5.50293 20.7314 3.05664q12.0371 -2.44531 22.7373 -17.1201q-1.33691 -57.4766 8.69434 -137.576q10.0312 -80.1006 22.7383 -164.48q12.7061 -84.3799 22.7373 -162.646 t9.36328 -132.073q-0.668945 -53.8076 -17.3887 -72.7627q-16.7188 -18.9551 -58.1816 15.2861q-14.7129 160.2 -26.751 313.674q-12.0371 153.475 -24.0752 312.451z" />
<glyph unicode="&#xba;" horiz-adv-x="476" d="M5.2373 445.77q-2.88379 16.2363 -3.24512 32.7432q-0.360352 16.5059 3.24512 33.2832q6.48926 34.0957 19.4688 68.7324q8.65332 21.6475 16.585 51.9551q7.93164 30.3066 19.4688 61.1553t27.4004 57.3672t38.9375 41.6719q14.4219 9.74219 37.4961 14.6123 q23.0742 4.87109 47.5908 5.41211h15.8633q15.8633 0 31.7275 -0.541016q23.0742 -1.08203 37.4951 -2.16504q63.4541 -3.24707 98.0654 -31.9307t46.1484 -70.8965q6.48926 -24.8955 6.48926 -53.5791q0 -19.4834 -2.88379 -40.5898q-7.93164 -51.9551 -31.7275 -102.286 q-23.7949 -50.332 -59.8486 -94.71q-36.0527 -44.3789 -78.5967 -71.9795q-42.543 -27.6016 -89.4121 -33.0127q-7.93164 -1.08301 -15.8633 -1.08301q-38.9385 0 -75.7129 22.7305q-41.8213 23.8125 -62.0117 52.4961t-26.6797 60.6143zM67.9707 541.562 q-2.88477 -18.9414 -2.88477 -36.8008q0 -27.0605 6.49023 -51.9551q10.8154 -41.1318 43.9844 -60.6143q23.0742 -14.0713 49.0332 -14.0713q14.4219 0 28.8428 4.3291q41.8223 11.9062 80.0391 44.3789q38.2158 32.4717 68.501 78.4736t43.2646 92.0039 q7.93164 27.6006 7.93164 53.0371q0 16.7773 -3.60547 32.4717q-8.65332 39.5078 -46.1484 58.9912q-38.9375 19.4834 -74.2705 19.4834q-13.7002 0 -26.6797 -2.70605q-47.5898 -10.2832 -83.6436 -42.2139t-59.8486 -79.5566q-23.7949 -47.625 -31.0059 -95.251z" />
<glyph unicode="&#xbb;" horiz-adv-x="1384" d="M30 836q-8 32 12 46t50 17t59 1t37 -2q116 4 189 9t136 7t135 -1t186 -15q16 -36 18 -78t-2 -78q-8 -24 -30 -82t-48 -123t-49 -123t-31 -82q-10 -28 -28 -89t-45 -121t-63 -99t-84 -23q-6 4 -17 15l-15 15q-8 28 16 87t63 133t86 155t84 154t54 130t-3 83q-4 6 -22 12 t-26 4h-426q-6 0 -31 -7t-56 -14t-60 -11t-41 0q-22 10 -33 34t-15 46zM386 1102q-10 32 11 46t50 17t58 1t37 -2q116 4 189 9t136 7t135 -1t186 -15q16 -36 18 -78t-2 -78q-8 -24 -30 -82t-47 -123t-48 -123t-33 -82q-10 -28 -28 -89t-45 -120t-63 -99t-84 -24q-4 4 -16 15 t-16 15q-10 28 15 87t64 133t86 155t84 154t54 130t-3 83q-4 6 -22 12t-26 4h-426q-6 0 -31 -7t-56 -14t-60 -11t-41 0q-22 10 -32 35t-14 45z" />
<glyph unicode="&#xbc;" horiz-adv-x="1310" d="M41.2988 848.161q-1.3877 11.332 4.85645 21.1182q6.24316 9.78613 15.2617 14.4219t21.5049 2.5752q12.4873 -2.05957 23.5869 -14.4219q-1.3877 -48.417 9.01855 -115.892q10.4062 -67.4756 23.5869 -138.556t23.5869 -137.01q10.4053 -65.9297 9.71191 -111.257 q-0.694336 -45.3262 -18.0371 -61.2939t-60.3545 12.877q-15.2617 134.95 -27.748 264.233q-12.4873 129.284 -24.9746 263.204zM28 -18q0 22 10 44t25 43t21 33q62 122 115 231t107 211t114 202t136 206q102 128 174 206q30 32 57 57t44 31t21 -9t-12 -63q-16 -44 -47 -85 t-69 -80t-75 -77t-61 -74q-64 -94 -114 -177t-95 -168t-89 -177t-96 -204q-6 -14 -14 -55t-24 -79t-41 -59t-65 5q-22 16 -22 38zM308.922 623.444q0.525391 45.2539 2.09961 79.5371q1.57422 34.2842 4.72363 46.626q2.09961 6.85645 9.97168 14.3984 q7.87305 7.54297 16.7949 10.2852q8.92285 2.74316 16.2705 0.685547q7.34766 -2.05664 7.34766 -14.3984v-301.694q0 -32.9121 27.8164 -56.2256q27.8174 -23.3125 71.3789 -35.6543t96.0459 -15.085q52.4844 -2.74219 101.294 6.1709q48.8105 8.91406 87.124 28.1133 q38.3135 19.1982 54.0586 50.7393q7.34766 12.3418 11.0215 50.0537t6.29785 84.3369q2.625 46.626 6.29883 94.6221q3.67383 47.9971 10.4961 82.2812q6.82324 34.2832 18.3701 46.625q11.5459 12.3418 30.4404 -12.3418q2.09961 -2.74316 5.24902 -10.9707 q3.14844 -8.22852 3.14844 -10.9707q2.09961 -78.166 1.57422 -154.275q-0.524414 -76.1094 -0.524414 -152.219t3.14941 -152.904q3.14844 -76.7949 12.5957 -154.961q15.7451 -13.7139 17.8447 -42.5117t-6.29785 -56.2246t-24.668 -44.5684 q-16.2695 -17.1426 -36.2139 -8.91406q-1.0498 5.48535 -4.72363 21.9414t-4.72363 21.9414q-1.0498 10.9707 -2.62402 38.3975t-2.62402 63.0811q-1.0498 35.6553 -1.5752 76.1094q-0.524414 40.4551 -1.04883 78.167q-0.525391 37.7119 -0.525391 67.1953t1.0498 43.1973 q-1.0498 1.37109 -9.44727 -11.6562q-8.39746 -13.0283 -18.8945 -30.1699q-10.4961 -17.1416 -20.9932 -33.5977t-16.7949 -21.9414q-12.5967 -9.59961 -23.6182 -13.7139q-11.0215 -4.11328 -25.7168 -6.85645q-43.0371 -1.37109 -94.4717 -3.42773 q-51.4346 -2.05762 -103.919 0.685547q-52.4834 2.74219 -103.918 12.3418t-94.4717 32.9121q-7.34766 4.11426 -12.0713 33.5977t-7.87305 71.9951q-3.14844 42.5117 -4.19824 93.251t-0.525391 95.9941z" />
<glyph unicode="&#xbd;" horiz-adv-x="1458" d="M46.8994 893.785q-1.78711 12.3906 6.25586 23.0928q8.04395 10.7012 19.6621 15.7705q11.6191 5.06836 27.7061 2.81641q16.0879 -2.25391 30.3877 -15.7715q-1.78809 -52.9434 11.6182 -126.727t30.3867 -151.51q16.9814 -77.7266 30.3877 -149.82t12.5117 -121.658 q-0.893555 -49.5645 -23.2363 -67.0244q-22.3438 -17.46 -77.7559 14.0811q-19.6621 147.566 -35.749 288.938q-16.0879 141.371 -32.1748 287.812zM36 16q0 22 10 44t25 43t21 33q62 122 115 231t107 211t114 202t136 206q102 128 174 206q30 32 57 57t44 31t21 -9t-12 -63 q-16 -44 -47 -85t-69 -80t-75 -77t-61 -74q-64 -94 -114 -177t-95 -168t-89 -177t-96 -204q-6 -14 -14 -55t-24 -79t-41 -59t-65 5q-22 16 -22 38zM366.87 480.352q-5.13379 25.3076 2.93359 53.916q8.06738 28.6094 19.0684 58.8682q11.001 30.2598 8.06738 59.9688 q2.93359 9.90332 13.2012 14.3047t22.7354 5.50195t24.9355 -0.550781q12.4678 -1.65039 19.8018 -2.75098q2.93359 -15.4043 20.5352 -19.8057t44.0039 -4.40137t58.6719 1.65039t65.2725 -1.10059t65.2725 -12.6533q32.2695 -9.90332 57.2051 -33.0107 q7.33398 -67.1201 -15.4014 -134.241t-60.1387 -132.041t-82.874 -126.539t-82.1406 -117.737v-17.6055q101.209 -4.40137 191.417 3.85156t176.016 25.8584t170.882 41.2627t177.482 50.0654q2.93359 1.09961 11.001 1.09961t11.001 -1.09961 q17.6016 -22.0068 -9.53418 -44.0137t-82.874 -42.3633t-132.745 -37.9619t-160.614 -31.9102q-83.6074 -14.3037 -165.748 -23.6572q-82.1406 -9.35254 -148.146 -13.7539t-108.543 -1.65039q-42.5371 2.75 -45.4707 12.6533q-2.93359 8.80273 -2.93359 28.0586 q0 19.2568 2.93359 24.7578q2.93359 5.50195 27.1357 36.3115t58.6719 76.4736t72.6064 100.682q38.1367 55.0166 69.6729 108.934t49.1377 101.231t11.001 77.5742t-44.7373 37.4111q-38.1367 7.15234 -117.344 -18.1553q-35.2031 -12.1035 -52.8047 -30.2598 q-17.6016 -18.1553 -30.0693 -39.0615q-12.4678 -20.9072 -26.4023 -41.8135t-41.8037 -37.4111q-35.2031 19.8057 -40.3369 45.1143z" />
<glyph unicode="&#xbe;" horiz-adv-x="1482" d="M34.9316 870.953q0 19.4121 3.56934 48.2188t10.1123 61.9961q6.54395 33.1895 13.0869 61.9961q6.54395 28.8057 11.3018 49.4707q4.75977 20.666 4.75977 24.4229q17.8447 20.0391 30.3369 21.918q12.4912 1.87793 19.6299 -7.51465q7.13867 -9.39355 8.92285 -26.9277 t-0.594727 -36.3203q13.0859 11.2715 32.7168 23.1699q19.6299 11.8984 41.6387 20.0391q22.0098 8.14062 44.0195 10.6455q22.0088 2.50488 39.8545 -5.00977q27.3633 -11.2725 38.0703 -35.6943q10.707 -24.4229 10.1123 -55.1074q-0.594727 -30.6855 -8.92285 -64.501 q-8.32715 -33.8154 -19.6299 -65.127q-11.3018 -31.3115 -22.6045 -56.9863q-11.3018 -25.6748 -16.0605 -38.1992v-18.7861q84.4688 -3.75781 136.815 -27.5547q52.3467 -23.7959 78.5195 -60.1172q26.1738 -36.3203 27.3633 -81.4082t-16.0605 -90.1758 q-17.251 -45.0879 -49.9678 -85.792t-76.7354 -69.5107t-96.3652 -40.7041q-52.3467 -11.8984 -107.073 0.625977q-27.3623 6.26172 -40.4492 25.6748t-14.8711 43.21q-1.78516 23.7959 4.75879 48.8447q6.54297 25.0488 19.0352 43.835q12.4912 18.7871 28.5527 26.9277 q16.0605 8.14062 31.5264 -0.625977q5.94824 -15.0293 0 -28.1797q-5.94824 -13.1514 -13.0869 -26.3018q-7.1377 -13.1504 -11.3018 -26.3008t6.54395 -28.1797q17.8447 -28.8066 46.9922 -31.9375q29.1484 -3.13086 61.2695 11.8984q32.1221 15.0293 64.8389 43.209 t57.7002 61.9961q24.9834 33.8154 39.2598 68.8838t10.707 62.6221q-4.75781 37.5732 -29.7422 57.6123q-24.9834 20.0391 -58.2949 26.9277q-33.3115 6.8877 -67.8125 1.87793q-34.502 -5.00977 -59.4854 -17.5332q-14.2764 -7.51562 -24.3887 -20.0391 q-10.1123 -12.5254 -18.4404 -27.5547t-17.8457 -28.8057t-23.793 -22.5439q-17.8457 -10.0195 -27.958 -1.87891t-14.8721 23.1699q-4.75781 15.0293 -2.97363 31.9375t7.7334 26.9277q11.8965 17.5342 33.3105 46.3398q21.415 28.8066 44.0195 63.249 q22.6035 34.4424 43.4238 72.0146q20.8193 37.5742 33.3115 73.2686q12.4912 35.6943 13.0869 67.0049q0.594727 31.3115 -17.251 52.6035q-38.0703 8.7666 -66.0283 -4.38379q-27.958 -13.1514 -49.3721 -37.5732q-21.415 -24.4229 -36.2861 -56.3604 q-14.8711 -31.9365 -25.5781 -59.4912q-4.75879 -11.2715 -7.7334 -20.665q-2.97363 -9.39355 -7.7334 -14.4033q-4.75781 -5.00977 -14.2754 -6.8877q-9.51758 -1.87891 -26.1738 1.87793q-7.13867 1.25293 -7.13867 20.666zM258 32q0 22 10 44t25 43t21 33q62 122 115 231 t107 211t114 202t136 206q102 128 174 206q30 32 57 57t44 31t21 -9t-12 -63q-16 -44 -47 -85t-69 -80t-75 -77t-61 -74q-64 -94 -114 -177t-95 -168t-89 -177t-96 -204q-6 -14 -14 -55t-24 -79t-41 -59t-65 5q-22 16 -22 38zM422.81 627.058 q0.517578 48.1025 2.07227 84.543q1.55469 36.4414 4.66406 49.5596q2.07227 7.28906 9.8457 15.3057q7.77246 8.0166 16.582 10.9326q8.80859 2.91504 16.0635 0.728516t7.25488 -15.3057v-320.681q0 -34.9834 27.4639 -59.7637q27.4639 -24.7793 70.4736 -37.8984 t94.8281 -16.0342q51.8193 -2.91504 100.011 6.55957t86.0195 29.8818q37.8271 20.4072 53.373 53.9326q7.25488 13.1191 10.8818 53.2041q3.62793 40.085 6.21875 89.6445t6.21777 100.577t10.3643 87.459q6.73633 36.4404 18.1357 49.5596 q11.4004 13.1191 30.0557 -13.1191q2.07227 -2.91504 5.18164 -11.6611q3.10938 -8.74512 3.10938 -11.6611q2.07227 -83.085 1.55469 -163.984q-0.518555 -80.8994 -0.518555 -161.798q0 -80.8994 3.10938 -162.527t12.4365 -164.714q15.5459 -14.5762 17.6182 -45.1865 t-6.21875 -59.7637q-8.29102 -29.1523 -24.3545 -47.373t-35.7549 -9.47461q-1.03613 5.83008 -4.66406 23.3223q-3.62695 17.4922 -4.66309 23.3223q-1.03613 11.6611 -2.59082 40.8145q-1.55469 29.1523 -2.5918 67.0508q-1.03613 37.8984 -1.55371 80.8994 q-0.518555 43 -1.03711 83.0859q-0.517578 40.085 -0.517578 71.4238q0 31.3398 1.03613 45.916q-1.03613 1.45801 -9.32715 -12.3896t-18.6553 -32.0684q-10.3633 -18.2207 -20.7275 -35.7129q-10.3633 -17.4912 -16.582 -23.3223q-12.4365 -10.2031 -23.3184 -14.5762 t-25.3916 -7.28809q-42.4912 -1.45801 -93.2734 -3.64355q-50.7822 -2.18652 -102.602 0.728516q-51.8184 2.91504 -102.602 13.1191q-50.7822 10.2031 -93.2734 34.9824q-7.25488 4.37305 -11.918 35.7129q-4.66406 31.3389 -7.77344 76.5264 q-3.10938 45.1865 -4.14551 99.1191t-0.517578 102.035z" />
<glyph unicode="&#xbf;" horiz-adv-x="934" d="M571.605 289.173q-2.81152 -20.6367 -27.4141 -51.5928q-24.6035 -30.9551 -60.4531 -66.6016q-35.8506 -35.6455 -78.7295 -72.2295q-42.8799 -36.584 -80.8389 -67.54q-37.959 -30.9551 -67.4824 -53.4688l-39.3643 -30.0176q-56.2354 -39.3975 -118.095 -53.4688 q-61.8584 -14.0703 -125.123 -4.68945q-84.3535 11.2559 -109.659 74.1055t-13.3555 153.84q11.9492 90.9912 51.3145 197.929q39.3643 106.938 84.3525 207.309t85.7598 180.105q40.7705 79.7344 56.2344 117.257q9.8418 22.5127 16.8711 50.6543t16.168 53.4688 q9.1377 25.3271 21.791 45.9648q12.6523 20.6367 33.7412 26.2646q11.2471 3.75293 14.0586 -4.69043q2.81152 -8.44238 7.0293 -23.4512q11.2471 -43.1504 -10.5439 -106.938t-59.75 -141.646q-37.959 -77.8574 -85.0557 -166.973q-47.0977 -89.1143 -86.4619 -181.043 q-39.3652 -91.9287 -62.5625 -184.796q-23.1963 -92.8672 -16.167 -179.168q5.62305 -15.0088 21.0879 -21.5752q15.4648 -6.56543 23.9004 -8.44238q81.541 -7.50391 154.647 15.9473q73.1055 23.4512 139.182 72.2295q66.0771 48.7783 125.124 117.257 q59.0469 68.4775 112.471 149.149q2.81152 0 16.8701 0.938477q14.0596 0.9375 28.1182 -1.87695q14.0586 -2.81348 24.6025 -12.1943q10.5449 -9.37988 7.73242 -30.0176zM251.064 1415.77q5.62305 -30.9561 -3.51465 -56.2832q-9.13867 -25.3271 -31.6328 -40.3359 t-52.0176 -7.50488q-12.6533 1.87598 -20.3848 22.5137q-7.73242 20.6367 -9.8418 46.9023q-2.1084 26.2656 1.40625 53.4688t14.0586 44.0879t28.1182 18.7617q17.5732 1.87598 41.4727 -24.3896q26.7119 -26.2656 32.3359 -57.2207z" />
<glyph unicode="&#xc0;" horiz-adv-x="1508" d="M29 477q-2 40 -1.5 78.5t1.5 75.5q3 73 5 127q8 178 68 323t178 291q76 90 143 119q44 19 84 19q20 0 39 -5q56 -15 102 -64t78 -114t51 -135t23 -128q1 -14 1 -28q0 -40 -9 -67q-12 -37 -42 -33q-12 54 -17 78t-13 48t-25 63t-53 123q-56 112 -114 142q-28 15 -55 15 q-29 0 -57 -17q-54 -32 -103 -114t-89 -191t-68 -233t-40 -241q-8 -78 -8 -148q0 -35 2 -67q6 -98 34 -156q14 -36 35 -76t51 -71t67 -49q26 -12 56 -12q13 0 27 2q96 20 166 82t120 150t84 196t57 218t39 215t29 188t28 136t37 61q20 6 34 -2t22 -24t10 -35t-2 -33 q-66 -114 -91 -231q-20 -91 -20 -179q0 -25 2 -49q7 -111 40 -212t82 -186t108 -150t118 -102t112 -43q8 -1 16 -1q43 0 75 29q80 84 124 103t58 0q7 -10 7 -26t-7 -39q-14 -46 -50 -91t-92 -78q-49 -29 -106 -29q-9 0 -18 1q-68 5 -148 63t-164 192q-34 44 -64 98t-57 110 t-50 112t-43 108q-12 -58 -35 -137t-58 -160t-82 -156t-106 -125t-131 -68q-25 -6 -51 -6q-49 0 -103 22q-70 28 -115 83t-72 126t-39 152t-15 162zM580 1785q4 23 19 36t43 5q10 -4 46 -34t81 -67t94 -76t87 -61q22 -12 16 -42t-27 -56t-49 -38t-50 10q-40 40 -71 64 t-58 47t-55 51t-60 74q-10 14 -15 39t-1 48z" />
<glyph unicode="&#xc1;" horiz-adv-x="1508" d="M59 539q-2 40 -1.5 78.5t1.5 75.5q3 73 5 127q8 178 68 323t178 291q76 90 143 119q44 19 84 19q20 0 39 -5q56 -15 102 -64t78 -114t51 -135t23 -128q1 -14 1 -28q0 -40 -9 -67q-12 -37 -42 -33q-12 54 -17 78t-13 48t-25 63t-53 123q-56 112 -114 142q-28 15 -55 15 q-29 0 -57 -17q-54 -32 -103 -114t-89 -191t-68 -233t-40 -241q-8 -78 -8 -148q0 -35 2 -67q6 -98 34 -156q14 -36 35 -76t51 -71t67 -49q26 -12 56 -12q13 0 27 2q96 20 166 82t120 150t84 196t57 218t39 215t29 188t28 136t37 61q20 6 34 -2t22 -24t10 -35t-2 -33 q-66 -114 -91 -231q-20 -91 -20 -179q0 -25 2 -49q7 -111 40 -212t82 -186t108 -150t118 -102t112 -43q8 -1 16 -1q43 0 75 29q80 84 124 103t58 0q7 -10 7 -26t-7 -39q-14 -46 -50 -91t-92 -78q-49 -29 -106 -29q-9 0 -18 1q-68 5 -148 63t-164 192q-34 44 -64 98t-57 110 t-50 112t-43 108q-12 -58 -35 -137t-58 -160t-82 -156t-106 -125t-131 -68q-25 -6 -51 -6q-49 0 -103 22q-70 28 -115 83t-72 126t-39 152t-15 162zM276 1682q-12 28 29 52t110 45t153 41t160 42q64 18 67 1t-33 -50t-99 -73t-133 -69t-135 -39t-103 20q-4 2 -9 14t-7 16z " />
<glyph unicode="&#xc2;" horiz-adv-x="1508" d="M59 539q-2 40 -1.5 78.5t1.5 75.5q3 73 5 127q8 178 68 323t178 291q76 90 143 119q44 19 84 19q20 0 39 -5q56 -15 102 -64t78 -114t51 -135t23 -128q1 -14 1 -28q0 -40 -9 -67q-12 -37 -42 -33q-12 54 -17 78t-13 48t-25 63t-53 123q-56 112 -114 142q-28 15 -55 15 q-29 0 -57 -17q-54 -32 -103 -114t-89 -191t-68 -233t-40 -241q-8 -78 -8 -148q0 -35 2 -67q6 -98 34 -156q14 -36 35 -76t51 -71t67 -49q26 -12 56 -12q13 0 27 2q96 20 166 82t120 150t84 196t57 218t39 215t29 188t28 136t37 61q20 6 34 -2t22 -24t10 -35t-2 -33 q-66 -114 -91 -231q-20 -91 -20 -179q0 -25 2 -49q7 -111 40 -212t82 -186t108 -150t118 -102t112 -43q8 -1 16 -1q43 0 75 29q80 84 124 103t58 0q7 -10 7 -26t-7 -39q-14 -46 -50 -91t-92 -78q-49 -29 -106 -29q-9 0 -18 1q-68 5 -148 63t-164 192q-34 44 -64 98t-57 110 t-50 112t-43 108q-12 -58 -35 -137t-58 -160t-82 -156t-106 -125t-131 -68q-25 -6 -51 -6q-49 0 -103 22q-70 28 -115 83t-72 126t-39 152t-15 162zM182 1620q-2 2 31 40t75 87t82 95t52 64q16 26 33 58t45 54h16q58 -110 110 -190t85 -133t39 -81t-28 -32q-28 -14 -60 13 t-62 70t-53 89t-31 72q-24 12 -44 -9t-40 -57t-41 -79t-45 -75t-53 -45t-63 11q-4 4 -23 22t-25 26z" />
<glyph unicode="&#xc3;" horiz-adv-x="1508" d="M59 539q-3 81 0 154t5 127q8 178 68 323t178 291q76 90 143 119t123 14t102 -64t78 -114t51 -135t23 -128t-8 -95t-42 -33q-12 54 -17 78t-13 48t-25 63t-53 123q-56 112 -114 142t-112 -2t-103 -114t-89 -191t-68 -233t-40 -241t-6 -215t34 -156q14 -36 35 -76t51 -71 t67 -49t83 -10q96 20 166 82t120 150t84 196t57 218t39 215t29 188t28 136t37 61q20 6 34 -2t22 -24t10 -35t-2 -33q-66 -114 -91 -231t-18 -228t40 -212t82 -186t108 -150t118 -102t112 -43t91 28q80 84 124 103t58 0t0 -65t-50 -91t-92 -78t-124 -28t-148 63t-164 192 q-34 44 -64 98t-57 110t-50 112t-43 108q-12 -58 -35 -137t-58 -160t-82 -156t-106 -125t-131 -68t-154 16q-70 28 -115 83t-72 126t-39 152t-15 162zM66 1707q0 13 10 23q2 2 7 4t7 0q36 -62 75 -83t82 -17t92 27t106 50t120 49t137 26q84 4 137 -14t78 -46t26 -63t-17 -65 q-8 -14 -13 -3t-26 29t-69 36t-142 18q-44 0 -99 -15t-113 -34t-116 -37t-108 -23t-90 9t-60 58l-10 20q-6 12 -10 25t-4 26z" />
<glyph unicode="&#xc4;" horiz-adv-x="1494" d="M45 539q-3 81 0 154t5 127q8 178 68 323t178 291q76 90 143 119t123 14t102 -64t78 -114t51 -135t23 -128t-8 -95t-42 -33q-12 54 -17 78t-13 48t-25 63t-53 123q-56 112 -114 142t-112 -2t-103 -114t-89 -191t-68 -233t-40 -241t-6 -215t34 -156q14 -36 35 -76t51 -71 t67 -49t83 -10q96 20 166 82t120 150t84 196t57 218t39 215t29 188t28 136t37 61q20 6 34 -2t22 -24t10 -35t-2 -33q-66 -114 -91 -231t-18 -228t40 -212t82 -186t108 -150t118 -102t112 -43t91 28q80 84 124 103t58 0t0 -65t-50 -91t-92 -78t-124 -28t-148 63t-164 192 q-34 44 -64 98t-57 110t-50 112t-43 108q-12 -58 -35 -137t-58 -160t-82 -156t-106 -125t-131 -68t-154 16q-70 28 -115 83t-72 126t-39 152t-15 162zM168 1634q-6 10 0 39t18 63t29 68t37 56q80 -10 111 -43t29 -74t-28 -81t-62 -62t-73 -18t-61 52zM735 1843q-1 35 19 57 q78 -8 118 -42t51 -76t0 -84t-34 -65t-52 -20t-53 51q-6 12 -18 42t-21 66t-10 71z" />
<glyph unicode="&#xc5;" horiz-adv-x="1508" d="M59 539q-3 81 0 154t5 127q8 178 68 323t178 291q76 90 143 119t123 14t102 -64t78 -114t51 -135t23 -128t-8 -95t-42 -33q-12 54 -17 78t-13 48t-25 63t-53 123q-56 112 -114 142t-112 -2t-103 -114t-89 -191t-68 -233t-40 -241t-6 -215t34 -156q14 -36 35 -76t51 -71 t67 -49t83 -10q96 20 166 82t120 150t84 196t57 218t39 215t29 188t28 136t37 61q20 6 34 -2t22 -24t10 -35t-2 -33q-66 -114 -91 -231t-18 -228t40 -212t82 -186t108 -150t118 -102t112 -43t91 28q80 84 124 103t58 0t0 -65t-50 -91t-92 -78t-124 -28t-148 63t-164 192 q-34 44 -64 98t-57 110t-50 112t-43 108q-12 -58 -35 -137t-58 -160t-82 -156t-106 -125t-131 -68t-154 16q-70 28 -115 83t-72 126t-39 152t-15 162zM336 1761q8 45 24 61q6 6 26 4t22 -8q6 -16 1 -39t-12 -48t-12 -50t1 -48t26 -42t64 -29q46 -12 86 3t68 44t42 68t9 74 t-33 63t-82 36q-40 6 -65 -1t-51 -23q-14 -4 -12 4t17 18t42 19t61 7q70 -4 109 -33t52 -71t1 -89t-46 -84t-89 -58t-125 -11q-56 8 -85 48t-38 90t-1 95z" />
<glyph unicode="&#xc6;" horiz-adv-x="2404" d="M93 301q-11 91 2 187t29 176q30 152 72 291t91 255t102 204t105 140q68 80 128 107t109 14t88 -59t67 -112q96 38 204 51t206 37l960 94q30 16 63 12t55 -20t28 -43t-20 -59q-32 2 -103 0t-167 -7t-209 -12t-227 -18t-222 -25t-195 -31t-144 -37t-71 -42 q-34 -58 -43 -147t-6 -186t14 -189t19 -156q36 4 117 18t173 32t178 34t132 26q72 14 98 27t35 24t15 22t40 23q38 12 48 -11t-5 -59t-54 -72t-99 -48q-36 -8 -98 -13t-133 -12t-146 -16t-138 -24t-108 -37t-55 -54q-14 -42 -10 -109t15 -130t20 -109t5 -46q36 0 104 1 t148 6t161 16t145 29q40 12 99 30t118 43t110 57t77 70q8 12 4 20t-10 18t-7 23t13 33q76 -6 95 -35t-7 -70t-91 -91t-156 -97t-202 -87t-228 -63t-234 -23t-221 32l-52 398q-16 38 -30 74t-28 70q-12 -58 -35 -137t-58 -160t-82 -156t-106 -125t-131 -68t-154 16 q-104 42 -150 118t-57 167zM174 300q14 -36 35 -76t51 -71t67 -49t83 -10q82 16 145 71t111 136t81 182t57 210t41 219t29 210q-2 62 -9 133t-29 161q-32 130 -81 168t-105 6t-117 -120t-118 -208t-106 -258t-83 -271t-49 -247t-3 -186z" />
<glyph unicode="&#xc7;" horiz-adv-x="1212" d="M40 673q6 109 30 220t61 210t84 180t101 135q52 52 98 62q17 4 33 4q27 0 51 -11q38 -17 68 -57t48 -87t23 -96q2 -15 2 -29q0 -31 -8 -56q-11 -36 -38 -55q-16 -11 -37 -11q-16 0 -36 6q-16 18 -16 44q0 10 3 22q9 40 18 81q6 26 6 51q0 14 -2 27q-5 37 -55 57 q-20 8 -39 8q-29 0 -55 -18q-44 -30 -81 -95t-66 -156t-49 -192t-29 -205q-8 -94 -8 -177v-18q1 -91 15 -161t42 -104q42 -50 91 -78t103 -40t113 -12t119 4q70 4 128 33t112 65t106 71t112 51q35 10 55 10q23 0 28 -13q2 -4 2 -10q0 -24 -34 -61q-41 -46 -122 -103 t-187 -99t-227 -58q-39 -5 -77 -5q-82 0 -164 23q-96 28 -160 91t-102 149t-52 190q-10 73 -10 148q0 32 2 65zM390 -626q24 -16 62 -4t74 43t62 77t24 98t-40 107t-128 103q8 18 4 52t-12 70t-11 67t9 43q36 38 46 18t16 -65t19 -96t53 -75q114 -66 150 -141t15 -144 t-89 -125t-160 -82q-12 -18 -21 -17t-19 13t-23 29t-31 29z" />
<glyph unicode="&#xc8;" horiz-adv-x="1454" d="M27 1348q0 23 35 38q48 20 101 33t109 23t110 18t106 20l946 34q24 13 50 13q6 0 13 -1q33 -4 55 -20t28 -43q1 -5 1 -10q0 -23 -21 -49q-32 2 -103 3q-36 0 -77 0.5t-88 -0.5q-94 -1 -206 -3t-225 -7t-220 -14t-192 -21t-142 -30t-71 -40q-34 -58 -43 -147 q-7 -67 -7 -138q0 -24 1 -48q3 -97 14 -189t19 -156q30 -4 42 -4t19 3t16 7t33 10q12 2 49 9t88 17t107 21t107 20t89 17t50 10q72 14 98 27t35 24t15 22t40 23q38 12 48 -11t-5 -59t-54 -72t-99 -48q-32 -6 -115 -22t-176 -34t-176 -33t-117 -21q-4 -2 -18 -8t-29 -14 t-28 -15t-19 -9q-2 -2 -9 -8t-7 -10q8 -180 50 -264t118 -103q30 -8 66 -8q55 0 125 18q115 29 271 75q40 12 95 23t109 29t101 43t73 63q8 12 4 20t-10 18t-7 23t13 33q92 -24 110 -61q6 -13 6 -26q0 -25 -22 -53q-34 -42 -112 -87t-179 -84t-215 -69t-221 -45 q-76 -11 -145 -11q-27 0 -53 2q-91 6 -145 38q-38 24 -63 86t-40 148t-21 190t-7 210v53q0 79 2 156q3 103 7 186t7 141t3 76q-6 -18 -31 -9t-44 30q-22 25 -22 51zM526 1867q4 23 19 36t43 5q10 -4 46 -34t81 -67t94 -76t87 -61q22 -12 16 -42t-27 -56t-49 -38t-50 10 q-40 40 -71 64t-58 47t-55 51t-60 74q-10 14 -15 39t-1 48z" />
<glyph unicode="&#xc9;" horiz-adv-x="1454" d="M27 1348q0 23 35 38q48 20 101 33t109 23t110 18t106 20l946 34q24 13 50 13q6 0 13 -1q33 -4 55 -20t28 -43q1 -5 1 -10q0 -23 -21 -49q-32 2 -103 3q-36 0 -77 0.5t-88 -0.5q-94 -1 -206 -3t-225 -7t-220 -14t-192 -21t-142 -30t-71 -40q-34 -58 -43 -147 q-7 -67 -7 -138q0 -24 1 -48q3 -97 14 -189t19 -156q30 -4 42 -4t19 3t16 7t33 10q12 2 49 9t88 17t107 21t107 20t89 17t50 10q72 14 98 27t35 24t15 22t40 23q38 12 48 -11t-5 -59t-54 -72t-99 -48q-32 -6 -115 -22t-176 -34t-176 -33t-117 -21q-4 -2 -18 -8t-29 -14 t-28 -15t-19 -9q-2 -2 -9 -8t-7 -10q8 -180 50 -264t118 -103q30 -8 66 -8q55 0 125 18q115 29 271 75q40 12 95 23t109 29t101 43t73 63q8 12 4 20t-10 18t-7 23t13 33q92 -24 110 -61q6 -13 6 -26q0 -25 -22 -53q-34 -42 -112 -87t-179 -84t-215 -69t-221 -45 q-76 -11 -145 -11q-27 0 -53 2q-91 6 -145 38q-38 24 -63 86t-40 148t-21 190t-7 210v53q0 79 2 156q3 103 7 186t7 141t3 76q-6 -18 -31 -9t-44 30q-22 25 -22 51zM178 1648q-12 28 29 52t110 45t153 41t160 42q64 18 67 1t-33 -50t-99 -73t-133 -69t-135 -39t-103 20 q-4 2 -9 14t-7 16z" />
<glyph unicode="&#xca;" horiz-adv-x="1454" d="M27 1348q0 23 35 38q48 20 101 33t109 23t110 18t106 20l946 34q24 13 50 13q6 0 13 -1q33 -4 55 -20t28 -43q1 -5 1 -10q0 -23 -21 -49q-32 2 -103 3q-36 0 -77 0.5t-88 -0.5q-94 -1 -206 -3t-225 -7t-220 -14t-192 -21t-142 -30t-71 -40q-34 -58 -43 -147 q-7 -67 -7 -138q0 -24 1 -48q3 -97 14 -189t19 -156q30 -4 42 -4t19 3t16 7t33 10q12 2 49 9t88 17t107 21t107 20t89 17t50 10q72 14 98 27t35 24t15 22t40 23q38 12 48 -11t-5 -59t-54 -72t-99 -48q-32 -6 -115 -22t-176 -34t-176 -33t-117 -21q-4 -2 -18 -8t-29 -14 t-28 -15t-19 -9q-2 -2 -9 -8t-7 -10q8 -180 50 -264t118 -103q30 -8 66 -8q55 0 125 18q115 29 271 75q40 12 95 23t109 29t101 43t73 63q8 12 4 20t-10 18t-7 23t13 33q92 -24 110 -61q6 -13 6 -26q0 -25 -22 -53q-34 -42 -112 -87t-179 -84t-215 -69t-221 -45 q-76 -11 -145 -11q-27 0 -53 2q-91 6 -145 38q-38 24 -63 86t-40 148t-21 190t-7 210v53q0 79 2 156q3 103 7 186t7 141t3 76q-6 -18 -31 -9t-44 30q-22 25 -22 51zM304 1584q-2 2 31 40t75 87t82 95t52 64q16 26 33 58t45 54h16q58 -110 110 -190t85 -133t39 -81t-28 -32 q-28 -14 -60 13t-62 70t-53 89t-31 72q-24 12 -44 -9t-40 -57t-41 -79t-45 -75t-53 -45t-63 11q-4 4 -23 22t-25 26z" />
<glyph unicode="&#xcb;" horiz-adv-x="1454" d="M27 1348q0 23 35 38q48 20 101 33t109 23t110 18t106 20l946 34q24 13 50 13q6 0 13 -1q33 -4 55 -20t28 -43q1 -5 1 -10q0 -23 -21 -49q-32 2 -103 3q-36 0 -77 0.5t-88 -0.5q-94 -1 -206 -3t-225 -7t-220 -14t-192 -21t-142 -30t-71 -40q-34 -58 -43 -147 q-7 -67 -7 -138q0 -24 1 -48q3 -97 14 -189t19 -156q30 -4 42 -4t19 3t16 7t33 10q12 2 49 9t88 17t107 21t107 20t89 17t50 10q72 14 98 27t35 24t15 22t40 23q38 12 48 -11t-5 -59t-54 -72t-99 -48q-32 -6 -115 -22t-176 -34t-176 -33t-117 -21q-4 -2 -18 -8t-29 -14 t-28 -15t-19 -9q-2 -2 -9 -8t-7 -10q8 -180 50 -264t118 -103q30 -8 66 -8q55 0 125 18q115 29 271 75q40 12 95 23t109 29t101 43t73 63q8 12 4 20t-10 18t-7 23t13 33q92 -24 110 -61q6 -13 6 -26q0 -25 -22 -53q-34 -42 -112 -87t-179 -84t-215 -69t-221 -45 q-76 -11 -145 -11q-27 0 -53 2q-91 6 -145 38q-38 24 -63 86t-40 148t-21 190t-7 210v53q0 79 2 156q3 103 7 186t7 141t3 76q-6 -18 -31 -9t-44 30q-22 25 -22 51zM189 1726q5 28 17 63t30 68t38 55q78 -8 109 -41t30 -74t-28 -82t-62 -63t-72 -18t-61 52q-6 12 -1 40z M650 1839q0 35 18 57q78 -10 118 -44t52 -76t0 -83t-35 -64t-51 -20t-52 51q-6 10 -18 41t-22 67t-10 71z" />
<glyph unicode="&#xcc;" horiz-adv-x="268" d="M63 330q3 150 7 300t8 299q3 99 3 199q0 50 -1 100q2 34 18 55t36 25q4 1 8 1q16 0 31 -12q19 -15 31 -51v-18q-34 -250 -34 -510t4 -514q6 4 20 13t28 5v-15q0 -24 -4 -59q-6 -46 -23 -85t-45 -57q-11 -7 -24 -7q-20 0 -46 17q-4 0 -9 6t-7 8q-2 86 -2 171q0 65 1 129z M-38 1793q4 23 19 36t43 5q10 -4 46 -34t81 -67t94 -76t87 -61q22 -12 16 -42t-27 -56t-49 -38t-50 10q-40 40 -71 64t-58 47t-55 51t-60 74q-10 14 -15 39t-1 48z" />
<glyph unicode="&#xcd;" horiz-adv-x="268" d="M63 330q3 150 7 300t8 299q3 99 3 199q0 50 -1 100q2 34 18 55t36 25q4 1 8 1q16 0 31 -12q19 -15 31 -51v-18q-34 -250 -34 -510t4 -514q6 4 20 13t28 5v-15q0 -24 -4 -59q-6 -46 -23 -85t-45 -57q-11 -7 -24 -7q-20 0 -46 17q-4 0 -9 6t-7 8q-2 86 -2 171q0 65 1 129z M-74 1634q-12 28 29 52t110 45t153 41t160 42q64 18 67 1t-33 -50t-99 -73t-133 -69t-135 -39t-103 20q-4 2 -9 14t-7 16z" />
<glyph unicode="&#xce;" horiz-adv-x="268" d="M63 330q3 150 7 300t8 299q3 99 3 199q0 50 -1 100q2 34 18 55t36 25q4 1 8 1q16 0 31 -12q19 -15 31 -51v-18q-34 -250 -34 -510t4 -514q6 4 20 13t28 5v-15q0 -24 -4 -59q-6 -46 -23 -85t-45 -57q-11 -7 -24 -7q-20 0 -46 17q-4 0 -9 6t-7 8q-2 86 -2 171q0 65 1 129z M-174 1380q-2 2 31 40t75 87t82 95t52 64q16 26 33 58t45 54h16q58 -110 110 -190t85 -133t39 -81t-28 -32q-28 -14 -60 13t-62 70t-53 89t-31 72q-24 12 -44 -9t-40 -57t-41 -79t-45 -75t-53 -45t-63 11q-4 4 -23 22t-25 26z" />
<glyph unicode="&#xcf;" horiz-adv-x="268" d="M63 330q3 150 7 300t8 299q3 99 3 199q0 50 -1 100q2 34 18 55t36 25q4 1 8 1q16 0 31 -12q19 -15 31 -51v-18q-34 -250 -34 -510t4 -514q6 4 20 13t28 5v-15q0 -24 -4 -59q-6 -46 -23 -85t-45 -57q-11 -7 -24 -7q-20 0 -46 17q-4 0 -9 6t-7 8q-2 86 -2 171q0 65 1 129z M8.81934 1332.69q3.2959 19.7646 11.207 44.4697q7.91113 24.7061 19.7773 48q11.8662 23.293 25.0508 38.8223q51.4209 -5.64648 71.8574 -28.9404t19.7773 -52.2344t-18.459 -57.8818q-17.7998 -28.9404 -40.873 -44.4697t-47.4648 -12.7061 q-24.3916 2.82422 -40.2139 36.7061q-3.95508 8.46973 -0.65918 28.2344zM312.729 1412.46q0 24.7051 11.8662 40.2344q51.4209 -7.05859 77.79 -31.0576q26.3701 -24 34.2803 -53.6465q7.91113 -29.6465 0 -58.5879q-7.91016 -28.9404 -23.0732 -45.1758 q-15.1621 -16.2344 -33.6211 -14.1172t-34.2803 36q-3.95508 7.05859 -11.8662 28.9404t-14.5039 47.293q-6.5918 25.4111 -6.5918 50.1172z" />
<glyph unicode="&#xd0;" horiz-adv-x="1252" d="M-106 553q8 19 48 29q28 6 89 9t137 7q-12 176 -36 372t-46 370q-20 102 -22 166q0 26 3 47t12 27t26 -5t45 -47q4 -32 13 -99t20 -151t23 -176t22 -176t18 -150t12 -98q0 -2 1 -14t1 -27t1 -29t1 -18q70 0 139 9t125 18t93 14t45 -1q32 -20 23 -45t-36 -45t-61 -28 t-54 8q-86 2 -148 -3t-118 -13q2 -28 3 -48t1 -30q12 -12 16 -34t4 -44t-2 -41t-2 -25q12 -24 41 -41t63 -28t70 -17t62 -8q156 -10 280 56t202 180t103 259t-17 293q-26 92 -88 177t-148 158t-189 133t-210 101t-211 61t-194 16q-16 6 -18 17t3 24t14 24t17 15q84 12 163 1 t153 -38t144 -67t138 -86q70 -48 148 -107t150 -126t130 -143t92 -160q56 -138 48 -266t-63 -234t-149 -185t-211 -122t-248 -45t-259 50q0 -8 5 -41t2 -68t-17 -57t-52 -8q-4 4 -17 15t-17 15q0 10 -2 35t-4 53t-4 52t-4 34l-16 32q2 64 2 127t-4 127q-52 -6 -112 -7 t-140 7q-4 0 -16 6t-14 10q-10 28 -2 47z" />
<glyph unicode="&#xd1;" horiz-adv-x="1702" d="M34 102q0 54 8 125t22 148t27 142t23 110t12 51q28 186 53 354t25 354q46 27 90 27q18 0 35 -4q61 -15 116 -55t102 -94t83 -94q20 -22 60 -68t90 -104t105 -121t105 -120t88 -103t56 -66q12 -14 39 -50l57 -76l57 -76q27 -36 37 -50q44 144 58 301t20 316t16 317t48 308 q10 44 33 55q12 6 24 5.5t25 -5.5q26 -11 52 -37t41 -55q16 -31 16 -56q0 -23 -19 -31q-8 -4 -32 -4t-30 18l-16 -14q-2 -2 -8 -30t-13 -65t-14 -77t-11 -66q-22 -130 -30 -262t-13 -264t-12 -264t-25 -264q-18 -45 -42 -45q-26 1 -53 27t-55 70t-50 87t-36 76t-16 37 q-176 222 -356 422t-384 396q-22 16 -52 36t-58 12q-2 -6 -7 -24t-10 -38t-9 -38t-6 -26q-36 -282 -69 -559t-73 -561q-32 -30 -58 -32h-3l-49 32q-14 18 -14 72zM404 1692q0 12 10 22q2 2 7 4t7 0q36 -62 75 -83t82 -16t92 28t106 49t120 48t137 26q84 4 137 -13t78 -46 t26 -63t-17 -64q-8 -14 -13 -3t-26 29t-69 36t-142 18q-44 0 -99 -15t-113 -35t-116 -38t-108 -22t-90 9t-60 57q-4 8 -10 21t-10 26t-4 25z" />
<glyph unicode="&#xd2;" horiz-adv-x="1324" d="M48 316q-2 43 -2 84q0 83 8 163q12 119 39 234t68 229t91 234q0 4 6 10t10 6q10 2 40 2t38 -2q2 -19 2 -39q0 -61 -22 -132q-30 -95 -73 -197t-85 -209t-54 -205q-3 -27 -3 -53q0 -69 23 -132q32 -87 134 -151q60 -38 134 -50q40 -7 81 -7q34 0 68 5q75 10 145 40t124 76 q148 126 225 259t98 263q10 59 10 116q0 68 -14 132q-25 118 -83 213t-138 160t-169 86q-38 9 -76 9l-102 -16q-89 -28 -161 -120q-30 -16 -35 -7t8 31t40 52t60 60t67 53t64 31q21 5 45 5q15 0 31 -2q42 -5 83 -19t79 -34t62 -44q38 -36 80 -75t83 -82t76 -91t59 -100 q60 -132 60 -273t-49 -273t-138 -244t-206 -189t-254 -108q-67 -15 -136 -15q-71 0 -143 16q-54 12 -103 40t-88 68t-67 89t-40 103zM610 1889q4 23 19 36t43 5q10 -4 46 -34t81 -67t94 -76t87 -61q22 -12 16 -42t-27 -56t-49 -38t-50 10q-40 40 -71 64t-58 47t-55 51 t-60 74q-10 14 -15 39t-1 48z" />
<glyph unicode="&#xd3;" horiz-adv-x="1324" d="M48 316q-2 43 -2 84q0 83 8 163q12 119 39 234t68 229t91 234q0 4 6 10t10 6q10 2 40 2t38 -2q2 -19 2 -39q0 -61 -22 -132q-30 -95 -73 -197t-85 -209t-54 -205q-3 -27 -3 -53q0 -69 23 -132q32 -87 134 -151q60 -38 134 -50q40 -7 81 -7q34 0 68 5q75 10 145 40t124 76 q148 126 225 259t98 263q10 59 10 116q0 68 -14 132q-25 118 -83 213t-138 160t-169 86q-38 9 -76 9l-102 -16q-89 -28 -161 -120q-30 -16 -35 -7t8 31t40 52t60 60t67 53t64 31q21 5 45 5q15 0 31 -2q42 -5 83 -19t79 -34t62 -44q38 -36 80 -75t83 -82t76 -91t59 -100 q60 -132 60 -273t-49 -273t-138 -244t-206 -189t-254 -108q-67 -15 -136 -15q-71 0 -143 16q-54 12 -103 40t-88 68t-67 89t-40 103zM316 1640q-12 28 29 52t110 45t153 41t160 42q64 18 67 1t-33 -50t-99 -73t-133 -69t-135 -39t-103 20q-4 2 -9 14t-7 16z" />
<glyph unicode="&#xd4;" horiz-adv-x="1324" d="M48 316q-2 43 -2 84q0 83 8 163q12 119 39 234t68 229t91 234q0 4 6 10t10 6q10 2 40 2t38 -2q2 -19 2 -39q0 -61 -22 -132q-30 -95 -73 -197t-85 -209t-54 -205q-3 -27 -3 -53q0 -69 23 -132q32 -87 134 -151q60 -38 134 -50q40 -7 81 -7q34 0 68 5q75 10 145 40t124 76 q148 126 225 259t98 263q10 59 10 116q0 68 -14 132q-25 118 -83 213t-138 160t-169 86q-38 9 -76 9l-102 -16q-89 -28 -161 -120q-30 -16 -35 -7t8 31t40 52t60 60t67 53t64 31q21 5 45 5q15 0 31 -2q42 -5 83 -19t79 -34t62 -44q38 -36 80 -75t83 -82t76 -91t59 -100 q60 -132 60 -273t-49 -273t-138 -244t-206 -189t-254 -108q-67 -15 -136 -15q-71 0 -143 16q-54 12 -103 40t-88 68t-67 89t-40 103zM338 1642q-2 2 31 40t75 87t82 95t52 64q16 26 33 58t45 54h16q58 -110 110 -190t85 -133t39 -81t-28 -32q-28 -14 -60 13t-62 70t-53 89 t-31 72q-24 12 -44 -9t-40 -57t-41 -79t-45 -75t-53 -45t-63 11q-4 4 -23 22t-25 26z" />
<glyph unicode="&#xd5;" horiz-adv-x="1324" d="M48 316q-2 43 -2 84q0 83 8 163q12 119 39 234t68 229t91 234q0 4 6 10t10 6q10 2 40 2t38 -2q2 -19 2 -39q0 -61 -22 -132q-30 -95 -73 -197t-85 -209t-54 -205q-3 -27 -3 -53q0 -69 23 -132q32 -87 134 -151q60 -38 134 -50q40 -7 81 -7q34 0 68 5q75 10 145 40t124 76 q148 126 225 259t98 263q10 59 10 116q0 68 -14 132q-25 118 -83 213t-138 160t-169 86q-38 9 -76 9l-102 -16q-89 -28 -161 -120q-30 -16 -35 -7t8 31t40 52t60 60t67 53t64 31q21 5 45 5q15 0 31 -2q42 -5 83 -19t79 -34t62 -44q38 -36 80 -75t83 -82t76 -91t59 -100 q60 -132 60 -273t-49 -273t-138 -244t-206 -189t-254 -108q-67 -15 -136 -15q-71 0 -143 16q-54 12 -103 40t-88 68t-67 89t-40 103zM238 1754q0 12 10 22q2 2 7 4t7 0q36 -62 75 -83t82 -16t92 28t106 49t120 48t137 26q84 4 137 -13t78 -46t26 -63t-17 -64q-8 -14 -13 -3 t-26 29t-69 36t-142 18q-44 0 -99 -15t-113 -35t-116 -38t-108 -22t-90 9t-60 57q-4 8 -10 21t-10 26t-4 25z" />
<glyph unicode="&#xd6;" horiz-adv-x="1324" d="M48 316q-2 43 -2 84q0 83 8 163q12 119 39 234t68 229t91 234q0 4 6 10t10 6q10 2 40 2t38 -2q2 -19 2 -39q0 -61 -22 -132q-30 -95 -73 -197t-85 -209t-54 -205q-3 -27 -3 -53q0 -69 23 -132q32 -87 134 -151q60 -38 134 -50q40 -7 81 -7q34 0 68 5q75 10 145 40t124 76 q148 126 225 259t98 263q10 59 10 116q0 68 -14 132q-25 118 -83 213t-138 160t-169 86q-38 9 -76 9l-102 -16q-89 -28 -161 -120q-30 -16 -35 -7t8 31t40 52t60 60t67 53t64 31q21 5 45 5q15 0 31 -2q42 -5 83 -19t79 -34t62 -44q38 -36 80 -75t83 -82t76 -91t59 -100 q60 -132 60 -273t-49 -273t-138 -244t-206 -189t-254 -108q-67 -15 -136 -15q-71 0 -143 16q-54 12 -103 40t-88 68t-67 89t-40 103zM357 1670q5 28 17 63t30 68t38 55q78 -8 109 -41t30 -74t-28 -82t-62 -63t-72 -18t-61 52q-6 12 -1 40zM818 1783q0 35 18 57 q78 -10 118 -44t52 -76t0 -83t-35 -64t-51 -20t-52 51q-6 10 -18 41t-22 67t-10 71z" />
<glyph unicode="&#xd7;" horiz-adv-x="902" d="M105 1017q1 31 32 25t79 -47t88 -119q6 -12 25 -30t40 -38t39 -38t26 -30q20 -10 46 25t55 87t60 107t60 86t54 22t45 -83q2 -4 2 -16t-2 -16q-16 -24 -46 -58t-63 -75t-62 -87t-43 -93t-6 -93t48 -88q6 -10 19 -23t25 -26t22 -22t12 -9q14 -4 31 -28t32 -52t22 -54 t-1 -38t-35 -4t-81 52q-28 20 -48 50t-39 60t-39 59t-48 51q-12 -10 -28 -42t-35 -72t-40 -81t-45 -65t-50 -26t-54 34q-10 12 -5 31t15 37t22 34t16 24q14 26 37 72t45 92t39 81l17 35v18l-27 28q-27 28 -64 70t-76 89t-63 87q-54 66 -53 97z" />
<glyph unicode="&#xd8;" horiz-adv-x="1324" d="M48 316q-2 43 -2 84q0 83 8 163q12 119 39 234t68 229t91 234q0 4 6 10t10 6q10 2 40 2t38 -2q2 -19 2 -39q0 -61 -22 -132q-30 -95 -73 -197t-85 -209t-54 -205q-3 -27 -3 -53q0 -69 23 -132q32 -87 134 -151q60 -38 134 -50q40 -7 81 -7q34 0 68 5q75 10 145 40t124 76 q148 126 225 259t98 263q10 59 10 116q0 68 -14 132q-25 118 -83 213t-138 160t-169 86q-38 9 -76 9l-102 -16q-89 -28 -161 -120q-30 -16 -35 -7t8 31t40 52t60 60t67 53t64 31q21 5 45 5q15 0 31 -2q42 -5 83 -19t79 -34t62 -44q38 -36 80 -75t83 -82t76 -91t59 -100 q60 -132 60 -273t-49 -273t-138 -244t-206 -189t-254 -108q-67 -15 -136 -15q-71 0 -143 16q-54 12 -103 40t-88 68t-67 89t-40 103zM232 54q0 22 10 44t25 43t21 33q62 122 115 231t107 211t114 202t136 206q102 128 174 206q30 32 57 57t44 31t21 -9t-12 -63 q-16 -44 -47 -85t-69 -80t-75 -77t-61 -74q-64 -94 -114 -177t-95 -168t-89 -177t-96 -204q-6 -14 -14 -55t-24 -79t-41 -59t-65 5q-22 16 -22 38z" />
<glyph unicode="&#xd9;" horiz-adv-x="1670" d="M46 1205q0 13 1 24t1 17q14 20 29 20l11 -3q20 -11 35 -36t25 -55t10 -38l46 -834q6 -98 29 -135q20 -32 48 -32q5 0 9 1q34 6 76 46t85 99t84 127t75 128t56 104t26 54q10 22 33 76t48 114t47 114t30 76q2 8 9 35t17 57t23 57t28 34t32 -11t35 -78q-3 -43 -3 -115v-38 q1 -99 13 -216t38 -236t73 -213t117 -149q56 -44 131 -44q19 0 39 3q26 4 49 27l46 46q23 23 49 37q13 7 28.5 7t33.5 -7q1 -15 1 -29q0 -72 -34 -120q-41 -57 -108 -77q-36 -11 -76 -11q-34 0 -69 8q-78 17 -140 71q-78 66 -124 163t-74 206t-43 219t-27 200l-16 32 q-4 -8 -24 -59t-54 -127t-78 -169t-96 -185t-109 -175t-114 -138t-113 -75q-21 -7 -41 -7q-34 0 -65 21q-32 20 -47 69t-21 104t-8 107t-4 82q-6 120 -13 219t-17 191t-22 183t-24 195q0 4 -1 15t-1 24zM296 1753q4 23 19 36t43 5q10 -4 46 -34t81 -67t94 -76t87 -61 q22 -12 16 -42t-27 -56t-49 -38t-50 10q-40 40 -71 64t-58 47t-55 51t-60 74q-10 14 -15 39t-1 48z" />
<glyph unicode="&#xda;" horiz-adv-x="1670" d="M46 1205q0 13 1 24t1 17q14 20 29 20l11 -3q20 -11 35 -36t25 -55t10 -38l46 -834q6 -98 29 -135q20 -32 48 -32q5 0 9 1q34 6 76 46t85 99t84 127t75 128t56 104t26 54q10 22 33 76t48 114t47 114t30 76q2 8 9 35t17 57t23 57t28 34t32 -11t35 -78q-3 -43 -3 -115v-38 q1 -99 13 -216t38 -236t73 -213t117 -149q56 -44 131 -44q19 0 39 3q26 4 49 27l46 46q23 23 49 37q13 7 28.5 7t33.5 -7q1 -15 1 -29q0 -72 -34 -120q-41 -57 -108 -77q-36 -11 -76 -11q-34 0 -69 8q-78 17 -140 71q-78 66 -124 163t-74 206t-43 219t-27 200l-16 32 q-4 -8 -24 -59t-54 -127t-78 -169t-96 -185t-109 -175t-114 -138t-113 -75q-21 -7 -41 -7q-34 0 -65 21q-32 20 -47 69t-21 104t-8 107t-4 82q-6 120 -13 219t-17 191t-22 183t-24 195q0 4 -1 15t-1 24zM288 1598q-12 28 29 52t110 45t153 41t160 42q64 18 67 1t-33 -50 t-99 -73t-133 -69t-135 -39t-103 20q-4 2 -9 14t-7 16z" />
<glyph unicode="&#xdb;" horiz-adv-x="1670" d="M46 1205q0 13 1 24t1 17q14 20 29 20l11 -3q20 -11 35 -36t25 -55t10 -38l46 -834q6 -98 29 -135q20 -32 48 -32q5 0 9 1q34 6 76 46t85 99t84 127t75 128t56 104t26 54q10 22 33 76t48 114t47 114t30 76q2 8 9 35t17 57t23 57t28 34t32 -11t35 -78q-3 -43 -3 -115v-38 q1 -99 13 -216t38 -236t73 -213t117 -149q56 -44 131 -44q19 0 39 3q26 4 49 27l46 46q23 23 49 37q13 7 28.5 7t33.5 -7q1 -15 1 -29q0 -72 -34 -120q-41 -57 -108 -77q-36 -11 -76 -11q-34 0 -69 8q-78 17 -140 71q-78 66 -124 163t-74 206t-43 219t-27 200l-16 32 q-4 -8 -24 -59t-54 -127t-78 -169t-96 -185t-109 -175t-114 -138t-113 -75q-21 -7 -41 -7q-34 0 -65 21q-32 20 -47 69t-21 104t-8 107t-4 82q-6 120 -13 219t-17 191t-22 183t-24 195q0 4 -1 15t-1 24zM274 1328q-2 2 31 40t75 87t82 95t52 64q16 26 33 58t45 54h16 q58 -110 110 -190t85 -133t39 -81t-28 -32q-28 -14 -60 13t-62 70t-53 89t-31 72q-24 12 -44 -9t-40 -57t-41 -79t-45 -75t-53 -45t-63 11q-4 4 -23 22t-25 26z" />
<glyph unicode="&#xdc;" horiz-adv-x="1670" d="M46 1205q0 13 1 24t1 17q14 20 29 20l11 -3q20 -11 35 -36t25 -55t10 -38l46 -834q6 -98 29 -135q20 -32 48 -32q5 0 9 1q34 6 76 46t85 99t84 127t75 128t56 104t26 54q10 22 33 76t48 114t47 114t30 76q2 8 9 35t17 57t23 57t28 34t32 -11t35 -78q-3 -43 -3 -115v-38 q1 -99 13 -216t38 -236t73 -213t117 -149q56 -44 131 -44q19 0 39 3q26 4 49 27l46 46q23 23 49 37q13 7 28.5 7t33.5 -7q1 -15 1 -29q0 -72 -34 -120q-41 -57 -108 -77q-36 -11 -76 -11q-34 0 -69 8q-78 17 -140 71q-78 66 -124 163t-74 206t-43 219t-27 200l-16 32 q-4 -8 -24 -59t-54 -127t-78 -169t-96 -185t-109 -175t-114 -138t-113 -75q-21 -7 -41 -7q-34 0 -65 21q-32 20 -47 69t-21 104t-8 107t-4 82q-6 120 -13 219t-17 191t-22 183t-24 195q0 4 -1 15t-1 24zM163 1562q5 28 17 63t30 68t38 55q78 -8 109 -41t30 -74t-28 -82 t-62 -63t-72 -18t-61 52q-6 12 -1 40zM624 1675q0 35 18 57q78 -10 118 -44t52 -76t0 -83t-35 -64t-51 -20t-52 51q-6 10 -18 41t-22 67t-10 71z" />
<glyph unicode="&#xdd;" horiz-adv-x="1292" d="M22 1417q0 25 11 41t31 18t48 -16q26 -18 51 -65t55 -110t67 -133t88 -132t118 -109t157 -61q16 -3 31 -3q43 0 78 22q47 29 86 82t69 125t56 146t50 145t48 123t52 78q18 17 39 17q11 0 23 -5q-10 -100 -29 -227t-39 -264t-38 -279t-30 -276t-15 -251q-1 -21 -1 -40 q0 -92 12 -165q6 -28 -4 -45t-28 -23q-11 -4 -23 -4q-8 0 -16 2q-21 4 -39 22q-32 32 -44 98q-11 61 -11 136v13q1 83 10 176t20 181t19 161q6 58 6 100v19h-16q-76 -124 -147 -177t-136 -55h-6q-61 0 -117 36q-58 38 -107 94t-88 121t-67 115l-212 318q-12 26 -12 51z M464 1660q-12 28 29 52t110 45t153 41t160 42q64 18 67 1t-33 -50t-99 -73t-133 -69t-135 -39t-103 20q-4 2 -9 14t-7 16z" />
<glyph unicode="&#xde;" horiz-adv-x="910" d="M64 1689q4 35 25 36t75 -65q18 -56 18 -150t-6 -195t-14 -191t-8 -138q10 44 30 98t51 102t73 84t98 44q132 20 227 -29t152 -139t79 -208t8 -236t-62 -220t-128 -162t-193 -62t-257 80q0 -16 -2 -52t-4 -79t-6 -88t-11 -79t-18 -52t-27 -6q-18 10 -31 38t-17 40 q2 166 -6 345t-17 365t-14 375t5 375q-6 32 -15 83t-5 86zM216 480l156 -94q96 -38 185 -13t147 107q78 108 97 219t-4 209t-77 173t-121 110t-139 22t-129 -93t-91 -236t-24 -404z" />
<glyph unicode="&#xdf;" horiz-adv-x="1338" d="M46 460q-8 168 1 323t19 291t13 251t-17 203q-16 66 26 121t109 99t144 76t131 50q182 26 291 12t164 -54t63 -101t-12 -129t-59 -138t-80 -128t-75 -100t-42 -54q200 -22 325 -90t188 -163t70 -208t-31 -223t-116 -208t-183 -163t-233 -87t-266 18l114 106 q160 -34 281 8t199 140t111 238t15 300q-20 66 -74 109t-114 65q-128 46 -221 56t-158 -3t-105 -44t-64 -65t-36 -67t-20 -51l-60 158q76 68 168 144t171 163t132 190t49 227q-34 30 -94 45t-132 15t-149 -13t-143 -39t-115 -64t-67 -86q22 -118 22 -273t-8 -325t-15 -344 t4 -332t47 -290t114 -214l-132 -58q-76 182 -109 360t-41 346z" />
<glyph unicode="&#xe0;" horiz-adv-x="1048" d="M18 603q6 117 27 228t56 207t86 159t116 82q20 6 42 6q48 0 103 -29q28 -16 59 -54t59 -85t49 -94t31 -79q2 -10 1 -61t-3 -123q-1 -29 -1 -60q0 -47 2 -99q3 -87 14 -170t35 -154t64 -112t101 -44h7q59 0 142 49q32 28 38 55t6 46t4 25t36 -10q30 -39 30 -82 q0 -14 -3 -29q-13 -59 -58 -104t-113 -64q-27 -8 -55 -8q-41 0 -84 17q-71 28 -135 114t-102 250q-12 -34 -37 -84t-59 -100t-77 -94t-89 -66q-37 -18 -77 -18q-9 0 -18 1q-49 5 -97 55q-40 40 -64 122t-33 186q-5 62 -5 129q0 45 2 92zM86 544v-29q0 -86 10 -164 q12 -91 40 -151q34 -72 80 -78q6 -1 12 -1q40 0 82 37q48 42 95 122t80 181t50 212q10 67 10 131q0 41 -4 82q-11 102 -53 186t-128 132q-2 2 -7 2h-9q-62 -28 -108 -96t-79 -160t-51 -198t-20 -208zM296 1641q4 23 19 36t43 5q10 -4 46 -34t81 -67t94 -76t87 -61 q22 -12 16 -42t-27 -56t-49 -38t-50 10q-40 40 -71 64t-58 47t-55 51t-60 74q-10 14 -15 39t-1 48z" />
<glyph unicode="&#xe1;" horiz-adv-x="1048" d="M18 603q6 117 27 228t56 207t86 159t116 82q20 6 42 6q48 0 103 -29q28 -16 59 -54t59 -85t49 -94t31 -79q2 -10 1 -61t-3 -123q-1 -29 -1 -60q0 -47 2 -99q3 -87 14 -170t35 -154t64 -112t101 -44h7q59 0 142 49q32 28 38 55t6 46t4 25t36 -10q30 -39 30 -82 q0 -14 -3 -29q-13 -59 -58 -104t-113 -64q-27 -8 -55 -8q-41 0 -84 17q-71 28 -135 114t-102 250q-12 -34 -37 -84t-59 -100t-77 -94t-89 -66q-37 -18 -77 -18q-9 0 -18 1q-49 5 -97 55q-40 40 -64 122t-33 186q-5 62 -5 129q0 45 2 92zM86 544v-29q0 -86 10 -164 q12 -91 40 -151q34 -72 80 -78q6 -1 12 -1q40 0 82 37q48 42 95 122t80 181t50 212q10 67 10 131q0 41 -4 82q-11 102 -53 186t-128 132q-2 2 -7 2h-9q-62 -28 -108 -96t-79 -160t-51 -198t-20 -208zM92 1414q-12 28 29 52t110 45t153 41t160 42q64 18 67 1t-33 -50t-99 -73 t-133 -69t-135 -39t-103 20q-4 2 -9 14t-7 16z" />
<glyph unicode="&#xe2;" horiz-adv-x="1048" d="M18 603q6 117 27 228t56 207t86 159t116 82q20 6 42 6q48 0 103 -29q28 -16 59 -54t59 -85t49 -94t31 -79q2 -10 1 -61t-3 -123q-1 -29 -1 -60q0 -47 2 -99q3 -87 14 -170t35 -154t64 -112t101 -44h7q59 0 142 49q32 28 38 55t6 46t4 25t36 -10q30 -39 30 -82 q0 -14 -3 -29q-13 -59 -58 -104t-113 -64q-27 -8 -55 -8q-41 0 -84 17q-71 28 -135 114t-102 250q-12 -34 -37 -84t-59 -100t-77 -94t-89 -66q-37 -18 -77 -18q-9 0 -18 1q-49 5 -97 55q-40 40 -64 122t-33 186q-5 62 -5 129q0 45 2 92zM86 544v-29q0 -86 10 -164 q12 -91 40 -151q34 -72 80 -78q6 -1 12 -1q40 0 82 37q48 42 95 122t80 181t50 212q10 67 10 131q0 41 -4 82q-11 102 -53 186t-128 132q-2 2 -7 2h-9q-62 -28 -108 -96t-79 -160t-51 -198t-20 -208zM0 1390q-2 2 31 40t75 87t82 95t52 64q16 26 33 58t45 54h16 q58 -110 110 -190t85 -133t39 -81t-28 -32q-28 -14 -60 13t-62 70t-53 89t-31 72q-24 12 -44 -9t-40 -57t-41 -79t-45 -75t-53 -45t-63 11q-4 4 -23 22t-25 26z" />
<glyph unicode="&#xe3;" horiz-adv-x="1048" d="M18 603q6 117 27 228t56 207t86 159t116 82q20 6 42 6q48 0 103 -29q28 -16 59 -54t59 -85t49 -94t31 -79q2 -10 1 -61t-3 -123q-1 -29 -1 -60q0 -47 2 -99q3 -87 14 -170t35 -154t64 -112t101 -44h7q59 0 142 49q32 28 38 55t6 46t4 25t36 -10q30 -39 30 -82 q0 -14 -3 -29q-13 -59 -58 -104t-113 -64q-27 -8 -55 -8q-41 0 -84 17q-71 28 -135 114t-102 250q-12 -34 -37 -84t-59 -100t-77 -94t-89 -66q-37 -18 -77 -18q-9 0 -18 1q-49 5 -97 55q-40 40 -64 122t-33 186q-5 62 -5 129q0 45 2 92zM86 544v-29q0 -86 10 -164 q12 -91 40 -151q34 -72 80 -78q6 -1 12 -1q40 0 82 37q48 42 95 122t80 181t50 212q10 67 10 131q0 41 -4 82q-11 102 -53 186t-128 132q-2 2 -7 2h-9q-62 -28 -108 -96t-79 -160t-51 -198t-20 -208zM-92 1544q0 12 10 22q2 2 7 4t7 0q36 -62 75 -83t82 -16t92 28t106 49 t120 48t137 26q84 4 137 -13t78 -46t26 -63t-17 -64q-8 -14 -13 -3t-26 29t-69 36t-142 18q-44 0 -99 -15t-113 -35t-116 -38t-108 -22t-90 9t-60 57q-4 8 -10 21t-10 26t-4 25z" />
<glyph unicode="&#xe4;" horiz-adv-x="1048" d="M18 603q6 117 27 228t56 207t86 159t116 82q20 6 42 6q48 0 103 -29q28 -16 59 -54t59 -85t49 -94t31 -79q2 -10 1 -61t-3 -123q-1 -29 -1 -60q0 -47 2 -99q3 -87 14 -170t35 -154t64 -112t101 -44h7q59 0 142 49q32 28 38 55t6 46t4 25t36 -10q30 -39 30 -82 q0 -14 -3 -29q-13 -59 -58 -104t-113 -64q-27 -8 -55 -8q-41 0 -84 17q-71 28 -135 114t-102 250q-12 -34 -37 -84t-59 -100t-77 -94t-89 -66q-37 -18 -77 -18q-9 0 -18 1q-49 5 -97 55q-40 40 -64 122t-33 186q-5 62 -5 129q0 45 2 92zM86 544v-29q0 -86 10 -164 q12 -91 40 -151q34 -72 80 -78q6 -1 12 -1q40 0 82 37q48 42 95 122t80 181t50 212q10 67 10 131q0 41 -4 82q-11 102 -53 186t-128 132q-2 2 -7 2h-9q-62 -28 -108 -96t-79 -160t-51 -198t-20 -208zM45 1486q5 28 17 63t30 68t38 55q78 -8 109 -41t30 -74t-28 -82t-62 -63 t-72 -18t-61 52q-6 12 -1 40zM506 1599q0 35 18 57q78 -10 118 -44t52 -76t0 -83t-35 -64t-51 -20t-52 51q-6 10 -18 41t-22 67t-10 71z" />
<glyph unicode="&#xe5;" horiz-adv-x="1048" d="M18 603q6 117 27 228t56 207t86 159t116 82t145 -23q28 -16 59 -54t59 -85t49 -94t31 -79q2 -10 1 -61t-3 -123t1 -159t14 -170t35 -154t64 -112t101 -44t149 49q32 28 38 55t6 46t4 25t36 -10q40 -52 27 -111t-58 -104t-113 -64t-139 9t-135 114t-102 250 q-12 -34 -37 -84t-59 -100t-77 -94t-89 -66t-95 -17t-97 55q-40 40 -64 122t-33 186t-3 221zM86 544q-2 -102 10 -193t40 -151q34 -72 80 -78t94 36t95 122t80 181t50 212t6 213t-53 186t-128 132q-2 2 -7 2h-9q-62 -28 -108 -96t-79 -160t-51 -198t-20 -208zM155 1569 q1 43 8 76t19 49q8 10 31 6t25 -12q8 -34 -6 -85t-21 -103t10 -97t91 -67q50 -16 94 4t75 61t47 94t10 102t-36 87t-90 50q-46 8 -73 -2t-55 -32q-16 -6 -13 5t19 26t46 27t68 10q76 -6 119 -47t57 -99t0 -122t-51 -116t-98 -80t-139 -14q-40 6 -66 35t-43 69t-23 86t-5 89z " />
<glyph unicode="&#xe6;" horiz-adv-x="1240" d="M18 603q6 117 27 228t56 207t86 159t116 82t145 -23q28 -16 59 -54t59 -85t49 -94t31 -79q4 -30 5 -58t5 -56q14 62 32 135t47 130t74 84t113 -3q6 -4 17 -15l23 -23l23 -23q11 -11 15 -17q8 -98 -12 -166t-54 -115t-76 -79t-80 -61t-65 -59t-29 -74q-2 -22 -3 -42 t-1 -38v-26q0 -12 2 -24q4 -54 29 -99t83 -85q34 -24 84 -12t102 42t102 68t86 65t52 35t0 -24q-28 -66 -66 -132t-90 -112t-119 -61t-151 21q-70 30 -110 78q-22 -96 -45 -129t-41 -7t-26 107t0 211q-12 -34 -37 -84t-59 -100t-77 -94t-89 -66t-95 -17t-97 55 q-40 40 -64 122t-33 186t-3 221zM86 544q-2 -102 10 -193t40 -151q34 -72 80 -78t94 36t95 122t80 181t50 212t6 213t-53 186t-128 132q-2 2 -7 2h-9q-62 -28 -108 -96t-79 -160t-51 -198t-20 -208zM716 766q2 -2 7 -2t7 2q6 4 18 13l24 18q12 9 23 18t15 13q60 60 85 111 t25 83t-21 43t-50 -7t-61 -69t-58 -143l-8 -40q-6 -30 -6 -40z" />
<glyph unicode="&#xe7;" horiz-adv-x="820" d="M52 753q10 97 47 170t105 101q23 9 44 9q29 0 53 -18q41 -31 67 -82t35 -105q4 -26 4 -45q0 -21 -5 -34q-10 -25 -39 -4t-79 121q-17 35 -35 35q-6 0 -12 -4q-25 -15 -46 -71t-34 -141t-14 -177v-11q0 -86 14 -168q15 -87 51 -148t97 -84q24 -9 52 -9q44 0 99 22 q18 8 58 50t87 94t93 100t77 66t39 -5q2 -5 2 -13q0 -30 -24 -102q-22 -70 -79 -141t-130 -118t-155 -56q-12 -1 -23 -1q-69 0 -133 46q-52 40 -97 122t-75 183t-42 211q-7 60 -7 116q0 47 5 91zM308 -626q24 -16 62 -4t74 43t62 77t24 98t-40 107t-128 103q8 18 4 52 t-12 70t-11 67t9 43q36 38 46 18t16 -65t19 -96t53 -75q114 -66 150 -141t15 -144t-89 -125t-160 -82q-12 -18 -21 -17t-19 13t-23 29t-31 29z" />
<glyph unicode="&#xe8;" horiz-adv-x="898" d="M19 523q11 15 55 31t130 30q12 0 35 12t27 18q14 20 26 69t25 109t32 121t48 105t70 62q17 7 37 7q29 0 64 -15q6 -4 17 -15l23 -23l23 -23q11 -11 15 -17q2 -28 2 -54q0 -64 -14 -112q-20 -68 -54 -115t-76 -79t-80 -61t-65 -59t-29 -74q-4 -52 -4 -95t10 -81t34 -72 t70 -66q23 -16 52 -16q15 0 32 4q50 12 102 42t102 68t86 65t52 35q8 4 8 -2t-8 -22q-28 -66 -66 -132t-90 -112t-119 -61q-20 -4 -41 -4q-51 0 -110 25q-76 32 -115 82t-57 110t-22 128t-10 138q-41 -7 -80 -7h-10q-44 1 -77 8t-47 20q-8 7 -8 15q0 6 5 13zM362 662 q2 -2 7 -2t7 2q6 4 18 13l24 18q12 9 23 18t15 13q60 60 85 111t25 83t-21 43q-8 4 -17 4q-15 0 -33 -11q-29 -18 -61 -69t-58 -143l-8 -40q-6 -30 -6 -40zM274 1473q4 23 19 36t43 5q10 -4 46 -34t81 -67t94 -76t87 -61q22 -12 16 -42t-27 -56t-49 -38t-50 10 q-40 40 -71 64t-58 47t-55 51t-60 74q-10 14 -15 39t-1 48z" />
<glyph unicode="&#xe9;" horiz-adv-x="898" d="M19 523q11 15 55 31t130 30q12 0 35 12t27 18q14 20 26 69t25 109t32 121t48 105t70 62q17 7 37 7q29 0 64 -15q6 -4 17 -15l23 -23l23 -23q11 -11 15 -17q2 -28 2 -54q0 -64 -14 -112q-20 -68 -54 -115t-76 -79t-80 -61t-65 -59t-29 -74q-4 -52 -4 -95t10 -81t34 -72 t70 -66q23 -16 52 -16q15 0 32 4q50 12 102 42t102 68t86 65t52 35q8 4 8 -2t-8 -22q-28 -66 -66 -132t-90 -112t-119 -61q-20 -4 -41 -4q-51 0 -110 25q-76 32 -115 82t-57 110t-22 128t-10 138q-41 -7 -80 -7h-10q-44 1 -77 8t-47 20q-8 7 -8 15q0 6 5 13zM362 662 q2 -2 7 -2t7 2q6 4 18 13l24 18q12 9 23 18t15 13q60 60 85 111t25 83t-21 43q-8 4 -17 4q-15 0 -33 -11q-29 -18 -61 -69t-58 -143l-8 -40q-6 -30 -6 -40zM278 1412q-12 28 29 52t110 45t153 41t160 42q64 18 67 1t-33 -50t-99 -73t-133 -69t-135 -39t-103 20q-4 2 -9 14 t-7 16z" />
<glyph unicode="&#xea;" horiz-adv-x="898" d="M19 523q11 15 55 31t130 30q12 0 35 12t27 18q14 20 26 69t25 109t32 121t48 105t70 62q17 7 37 7q29 0 64 -15q6 -4 17 -15l23 -23l23 -23q11 -11 15 -17q2 -28 2 -54q0 -64 -14 -112q-20 -68 -54 -115t-76 -79t-80 -61t-65 -59t-29 -74q-4 -52 -4 -95t10 -81t34 -72 t70 -66q23 -16 52 -16q15 0 32 4q50 12 102 42t102 68t86 65t52 35q8 4 8 -2t-8 -22q-28 -66 -66 -132t-90 -112t-119 -61q-20 -4 -41 -4q-51 0 -110 25q-76 32 -115 82t-57 110t-22 128t-10 138q-41 -7 -80 -7h-10q-44 1 -77 8t-47 20q-8 7 -8 15q0 6 5 13zM362 662 q2 -2 7 -2t7 2q6 4 18 13l24 18q12 9 23 18t15 13q60 60 85 111t25 83t-21 43q-8 4 -17 4q-15 0 -33 -11q-29 -18 -61 -69t-58 -143l-8 -40q-6 -30 -6 -40zM138 1228q-2 2 31 40t75 87t82 95t52 64q16 26 33 58t45 54h16q58 -110 110 -190t85 -133t39 -81t-28 -32 q-28 -14 -60 13t-62 70t-53 89t-31 72q-24 12 -44 -9t-40 -57t-41 -79t-45 -75t-53 -45t-63 11q-4 4 -23 22t-25 26z" />
<glyph unicode="&#xeb;" horiz-adv-x="898" d="M19 523q11 15 55 31t130 30q12 0 35 12t27 18q14 20 26 69t25 109t32 121t48 105t70 62q17 7 37 7q29 0 64 -15q6 -4 17 -15l23 -23l23 -23q11 -11 15 -17q2 -28 2 -54q0 -64 -14 -112q-20 -68 -54 -115t-76 -79t-80 -61t-65 -59t-29 -74q-4 -52 -4 -95t10 -81t34 -72 t70 -66q23 -16 52 -16q15 0 32 4q50 12 102 42t102 68t86 65t52 35q8 4 8 -2t-8 -22q-28 -66 -66 -132t-90 -112t-119 -61q-20 -4 -41 -4q-51 0 -110 25q-76 32 -115 82t-57 110t-22 128t-10 138q-41 -7 -80 -7h-10q-44 1 -77 8t-47 20q-8 7 -8 15q0 6 5 13zM362 662 q2 -2 7 -2t7 2q6 4 18 13l24 18q12 9 23 18t15 13q60 60 85 111t25 83t-21 43q-8 4 -17 4q-15 0 -33 -11q-29 -18 -61 -69t-58 -143l-8 -40q-6 -30 -6 -40zM91 1230q5 28 17 63t30 68t38 55q78 -8 109 -41t30 -74t-28 -82t-62 -63t-72 -18t-61 52q-6 12 -1 40zM552 1343 q0 35 18 57q78 -10 118 -44t52 -76t0 -83t-35 -64t-51 -20t-52 51q-6 10 -18 41t-22 67t-10 71z" />
<glyph unicode="&#xec;" horiz-adv-x="222" d="M39 296v67q0 69 1 146q2 115 5 216t8 175t11 94q12 6 26 0t25 -16t19 -24t8 -24v-882q0 -22 -12 -33t-29 -11t-32 11t-21 33q-4 12 -6 81t-3 167zM60 1347q0 13 1 24t3 15q16 8 36 14q12 4 25 4q8 0 17 -2q34 -44 43 -71q5 -14 5 -25q0 -10 -4 -17q-8 -15 -27 -18 q-8 -1 -16 -1q-11 0 -23 2q-20 4 -37 13t-19 21q-2 6 -3 17t-1 24zM-60 1473q4 23 19 36t43 5q10 -4 46 -34t81 -67t94 -76t87 -61q22 -12 16 -42t-27 -56t-49 -38t-50 10q-40 40 -71 64t-58 47t-55 51t-60 74q-10 14 -15 39t-1 48z" />
<glyph unicode="&#xed;" horiz-adv-x="254" d="M-68 1294q-12 28 29 52t110 45t153 41t160 42q64 18 67 1t-33 -50t-99 -73t-133 -69t-135 -39t-103 20q-4 2 -9 14t-7 16zM72 296q0 98 2 213t5 216t7 175t10 94q12 6 26 0t26 -16t19 -24t7 -24v-882q0 -22 -12 -33t-29 -11t-32 11t-21 33q-4 12 -6 81t-2 167z" />
<glyph unicode="&#xee;" horiz-adv-x="222" d="M-216 1154q-2 2 31 40t75 87t82 95t52 64q16 26 33 58t45 54h16q58 -110 110 -190t85 -133t39 -81t-28 -32q-28 -14 -60 13t-62 70t-53 89t-31 72q-24 12 -44 -9t-40 -57t-41 -79t-45 -75t-53 -45t-63 11q-4 4 -23 22t-25 26zM39 296q-1 98 1 213t5 216t8 175t11 94 q12 6 26 0t25 -16t19 -24t8 -24v-882q0 -22 -12 -33t-29 -11t-32 11t-21 33q-4 12 -6 81t-3 167z" />
<glyph unicode="&#xef;" horiz-adv-x="222" d="M-51 1188q3 20 10 44t17 47t20 39q44 -6 61 -29t16 -52t-15 -57t-34 -43t-41 -13t-33 36q-4 8 -1 28zM39 296q-1 98 1 213t5 216t8 175t11 94q12 6 26 0t25 -16t19 -24t8 -24v-882q0 -22 -12 -33t-29 -11t-32 11t-21 33q-4 12 -6 81t-3 167zM205 1266q-1 24 9 40 q44 -6 66 -30t28 -53t0 -58t-19 -45t-29 -14t-28 36q-4 6 -10 27t-11 47t-6 50z" />
<glyph unicode="&#xf0;" horiz-adv-x="724" d="M50 664q54 76 113 80t117 -36t110 -111t93 -143t66 -133t27 -81q34 -18 46 -1t7 56t-23 97t-45 124t-60 135t-67 131l-84 -6q-26 -6 -49 7t-31 32t6 35t64 16l40 10q-12 20 -29 47t-34 52t-32 44t-23 25q14 44 39 46t54 -23t60 -72t59 -97q42 6 87 10t80 -1t55 -20 t14 -47q-4 -20 -21 -20t-29 -8q-34 2 -58 1t-58 -1q54 -98 95 -220t57 -239t2 -211t-72 -134q-72 -38 -144 -29t-138 53t-122 115t-96 157t-61 179t-15 181zM132 648q-12 -92 8 -172t58 -144t87 -110t97 -70t87 -22t57 32q8 36 -14 93t-61 118t-89 120t-96 100t-83 59 t-51 -4z" />
<glyph unicode="&#xf1;" d="M30 48q6 26 13 117t16 211t22 250t29 232t38 157q15 36 32 36q9 0 18 -9q60 -44 112 -111t100 -145t93 -161t94 -158t104 -136t119 -95h14q4 48 9 119t11 155t12 173t15 174t19 157t22 122q2 4 9 17t16 26t19 21q5 4 10 4l10 -4l94 -96q2 -2 2 -5q0 -7 -9 -20 q-13 -19 -31 -42t-36 -44t-20 -31q-14 -52 -24 -125t-16 -156t-10 -171t-7 -171t-4 -157t-3 -128q-72 2 -138 44t-127 111t-118 156t-110 176t-103 175t-96 152h-18q-8 0 -13 -43t-9 -111t-8 -155t-11 -174t-17 -166t-24 -133t-34 -76q-9 -10 -19 -10q-13 0 -29 16 q-4 4 -10 16zM124 1372q0 12 10 22q2 2 7 4t7 0q36 -62 75 -83t82 -16t92 28t106 49t120 48t137 26q84 4 137 -13t78 -46t26 -63t-17 -64q-8 -14 -13 -3t-26 29t-69 36t-142 18q-44 0 -99 -15t-113 -35t-116 -38t-108 -22t-90 9t-60 57q-4 8 -10 21t-10 26t-4 25z" />
<glyph unicode="&#xf2;" horiz-adv-x="692" d="M35 225q-4 30 -4.5 60.5t4.5 61.5q9 63 27 127q12 40 23 96t27 113t38 106t54 77q20 18 52 27t66 10h22q22 0 44 -1q32 -2 52 -4q88 -6 136 -59t64 -131q9 -46 9 -99q0 -36 -4 -75q-11 -96 -44 -189t-83 -175t-109 -133t-124 -61q-11 -2 -22 -2q-54 0 -105 42 q-58 44 -86 97t-37 112zM122 402q-4 -35 -4 -68q0 -50 9 -96q15 -76 61 -112q32 -26 68 -26q20 0 40 8q58 22 111 82t95 145t60 170q11 51 11 98q0 31 -5 60q-12 73 -64 109q-54 36 -103 36q-19 0 -37 -5q-66 -19 -116 -78t-83 -147t-43 -176zM172 1473q4 23 19 36t43 5 q10 -4 46 -34t81 -67t94 -76t87 -61q22 -12 16 -42t-27 -56t-49 -38t-50 10q-40 40 -71 64t-58 47t-55 51t-60 74q-10 14 -15 39t-1 48z" />
<glyph unicode="&#xf3;" horiz-adv-x="692" d="M35 225q-4 30 -4.5 60.5t4.5 61.5q9 63 27 127q12 40 23 96t27 113t38 106t54 77q20 18 52 27t66 10h22q22 0 44 -1q32 -2 52 -4q88 -6 136 -59t64 -131q9 -46 9 -99q0 -36 -4 -75q-11 -96 -44 -189t-83 -175t-109 -133t-124 -61q-11 -2 -22 -2q-54 0 -105 42 q-58 44 -86 97t-37 112zM122 402q-4 -35 -4 -68q0 -50 9 -96q15 -76 61 -112q32 -26 68 -26q20 0 40 8q58 22 111 82t95 145t60 170q11 51 11 98q0 31 -5 60q-12 73 -64 109q-54 36 -103 36q-19 0 -37 -5q-66 -19 -116 -78t-83 -147t-43 -176zM244 1184q-12 28 29 52t110 45 t153 41t160 42q64 18 67 1t-33 -50t-99 -73t-133 -69t-135 -39t-103 20q-4 2 -9 14t-7 16z" />
<glyph unicode="&#xf4;" horiz-adv-x="692" d="M35 225q-4 30 -4.5 60.5t4.5 61.5q9 63 27 127q12 40 23 96t27 113t38 106t54 77q20 18 52 27t66 10h22q22 0 44 -1q32 -2 52 -4q88 -6 136 -59t64 -131q9 -46 9 -99q0 -36 -4 -75q-11 -96 -44 -189t-83 -175t-109 -133t-124 -61q-11 -2 -22 -2q-54 0 -105 42 q-58 44 -86 97t-37 112zM122 402q-4 -35 -4 -68q0 -50 9 -96q15 -76 61 -112q32 -26 68 -26q20 0 40 8q58 22 111 82t95 145t60 170q11 51 11 98q0 31 -5 60q-12 73 -64 109q-54 36 -103 36q-19 0 -37 -5q-66 -19 -116 -78t-83 -147t-43 -176zM146 1016q-2 2 31 40t75 87 t82 95t52 64q16 26 33 58t45 54h16q58 -110 110 -190t85 -133t39 -81t-28 -32q-28 -14 -60 13t-62 70t-53 89t-31 72q-24 12 -44 -9t-40 -57t-41 -79t-45 -75t-53 -45t-63 11q-4 4 -23 22t-25 26z" />
<glyph unicode="&#xf5;" horiz-adv-x="692" d="M35 225q-4 30 -4.5 60.5t4.5 61.5q9 63 27 127q12 40 23 96t27 113t38 106t54 77q20 18 52 27t66 10h22q22 0 44 -1q32 -2 52 -4q88 -6 136 -59t64 -131q9 -46 9 -99q0 -36 -4 -75q-11 -96 -44 -189t-83 -175t-109 -133t-124 -61q-11 -2 -22 -2q-54 0 -105 42 q-58 44 -86 97t-37 112zM122 402q-4 -35 -4 -68q0 -50 9 -96q15 -76 61 -112q32 -26 68 -26q20 0 40 8q58 22 111 82t95 145t60 170q11 51 11 98q0 31 -5 60q-12 73 -64 109q-54 36 -103 36q-19 0 -37 -5q-66 -19 -116 -78t-83 -147t-43 -176zM-98 1372q0 12 10 22q2 2 7 4 t7 0q36 -62 75 -83t82 -16t92 28t106 49t120 48t137 26q84 4 137 -13t78 -46t26 -63t-17 -64q-8 -14 -13 -3t-26 29t-69 36t-142 18q-44 0 -99 -15t-113 -35t-116 -38t-108 -22t-90 9t-60 57q-4 8 -10 21t-10 26t-4 25z" />
<glyph unicode="&#xf6;" horiz-adv-x="692" d="M35 225q-4 30 -4.5 60.5t4.5 61.5q9 63 27 127q12 40 23 96t27 113t38 106t54 77q20 18 52 27t66 10h22q22 0 44 -1q32 -2 52 -4q88 -6 136 -59t64 -131q9 -46 9 -99q0 -36 -4 -75q-11 -96 -44 -189t-83 -175t-109 -133t-124 -61q-11 -2 -22 -2q-54 0 -105 42 q-58 44 -86 97t-37 112zM122 402q-4 -35 -4 -68q0 -50 9 -96q15 -76 61 -112q32 -26 68 -26q20 0 40 8q58 22 111 82t95 145t60 170q11 51 11 98q0 31 -5 60q-12 73 -64 109q-54 36 -103 36q-19 0 -37 -5q-66 -19 -116 -78t-83 -147t-43 -176zM65 1198q5 28 17 63t30 68 t38 55q78 -8 109 -41t30 -74t-28 -82t-62 -63t-72 -18t-61 52q-6 12 -1 40zM526 1311q0 35 18 57q78 -10 118 -44t52 -76t0 -83t-35 -64t-51 -20t-52 51q-6 10 -18 41t-22 67t-10 71z" />
<glyph unicode="&#xf7;" horiz-adv-x="868" d="M226 1040q6 6 16 17t22 20t23 13t17 -2l80 -78q14 -14 9 -33t-18 -37t-30 -34t-25 -24l-8 8q-6 6 -8 10q-14 22 -26 33t-22 22t-17 30t-13 55zM330 488q0 28 14 48t37 31t44 13t37 -5t16 -23v-126q0 -8 -12 -15t-28 -13t-32 -11t-22 -9h16l-24 24q-18 18 -22 24 q-24 34 -24 62zM-3 730q-1 20 4 38t17 33t32 21q26 6 91 8t148 1t173 -4t167 -8t130 -12t61 -13q32 -20 23 -46t-35 -45t-60 -27t-54 8q-100 2 -178 -1t-151 -7t-151 -5t-180 9q-4 0 -16 6t-14 10q-6 14 -7 34z" />
<glyph unicode="&#xf8;" horiz-adv-x="692" d="M35 225q-4 30 -4.5 60.5t4.5 61.5q9 63 27 127q12 40 23 96t27 113t38 106t54 77q20 18 52 27t66 10h22q22 0 44 -1q32 -2 52 -4q88 -6 136 -59t64 -131q9 -46 9 -99q0 -36 -4 -75q-11 -96 -44 -189t-83 -175t-109 -133t-124 -61q-11 -2 -22 -2q-54 0 -105 42 q-58 44 -86 97t-37 112zM122 402q-4 -35 -4 -68q0 -50 9 -96q15 -76 61 -112q32 -26 68 -26q20 0 40 8q58 22 111 82t95 145t60 170q11 51 11 98q0 31 -5 60q-12 73 -64 109q-54 36 -103 36q-19 0 -37 -5q-66 -19 -116 -78t-83 -147t-43 -176zM43.8594 -20.2168 q0 17.8369 7.32324 35.6738q7.32324 17.8379 18.3086 34.8643t15.3799 26.7568q45.4062 98.916 84.2217 187.292t78.3623 171.077q39.5479 82.7012 83.4893 163.779q43.9414 81.0801 99.6006 167.023q74.7012 103.781 127.432 167.023q21.9707 25.9453 41.7441 46.2148 t32.2236 25.1348q12.4502 4.86426 15.3799 -7.29785q2.92969 -12.1611 -8.78809 -51.0791q-11.7178 -35.6758 -34.4209 -68.918t-50.5332 -64.8633t-54.9268 -62.4307q-27.0977 -30.8096 -44.6748 -59.999q-46.8711 -76.2139 -83.4883 -143.51 q-36.6182 -67.2949 -69.5742 -136.213q-32.957 -68.917 -65.1807 -143.51t-70.3066 -165.401q-4.39355 -11.3506 -10.2529 -44.5938q-5.85938 -33.2422 -17.5762 -64.0518q-11.7188 -30.8105 -30.0273 -47.8369t-47.6035 4.05371q-16.1113 12.9727 -16.1113 30.8105z" />
<glyph unicode="&#xf9;" horiz-adv-x="1326" d="M64 724q-2 94 -2 188.5t2 189.5q6 8 21 20t31 16q5 1 10 1q10 0 19 -6q13 -9 13 -45v-662q0 -18 5 -42t16 -47t25 -42t32 -27q35 -15 67 -15q33 0 63 16q58 31 105 99t86 161t71 183t59 167t53 115q4 -2 9 -9t7 -9q6 -8 24 -31t22 -31q0 -36 1 -99t7 -138t18 -156 t33 -155t54 -133t80 -90q43 -28 99 -28h11q63 3 147 55q42 26 50 48t6 45q-3 35 -3 49q0 24 27 56q18 6 33 6q26 0 43 -18q26 -28 29 -78v-12q0 -45 -20 -97q-23 -59 -74 -103t-130 -63q-29 -7 -63 -7q-57 0 -126 20q-48 14 -88 51t-72 88t-56 110t-43 118t-33 111t-24 90 h-16q-24 -52 -73 -125t-109 -141t-127 -118t-127 -59q-10 -1 -20 -1q-48 0 -88 37q-48 45 -70 169q-10 190 -14 378zM152 1609q4 23 19 36t43 5q10 -4 46 -34t81 -67t94 -76t87 -61q22 -12 16 -42t-27 -56t-49 -38t-50 10q-40 40 -71 64t-58 47t-55 51t-60 74q-10 14 -15 39 t-1 48z" />
<glyph unicode="&#xfa;" horiz-adv-x="1326" d="M64 724q-2 94 -2 188.5t2 189.5q6 8 21 20t31 16q5 1 10 1q10 0 19 -6q13 -9 13 -45v-662q0 -18 5 -42t16 -47t25 -42t32 -27q35 -15 67 -15q33 0 63 16q58 31 105 99t86 161t71 183t59 167t53 115q4 -2 9 -9t7 -9q6 -8 24 -31t22 -31q0 -36 1 -99t7 -138t18 -156 t33 -155t54 -133t80 -90q43 -28 99 -28h11q63 3 147 55q42 26 50 48t6 45q-3 35 -3 49q0 24 27 56q18 6 33 6q26 0 43 -18q26 -28 29 -78v-12q0 -45 -20 -97q-23 -59 -74 -103t-130 -63q-29 -7 -63 -7q-57 0 -126 20q-48 14 -88 51t-72 88t-56 110t-43 118t-33 111t-24 90 h-16q-24 -52 -73 -125t-109 -141t-127 -118t-127 -59q-10 -1 -20 -1q-48 0 -88 37q-48 45 -70 169q-10 190 -14 378zM320 1360q-12 28 29 52t110 45t153 41t160 42q64 18 67 1t-33 -50t-99 -73t-133 -69t-135 -39t-103 20q-4 2 -9 14t-7 16z" />
<glyph unicode="&#xfb;" horiz-adv-x="1326" d="M64 724q-2 94 -2 188.5t2 189.5q6 8 21 20t31 16q5 1 10 1q10 0 19 -6q13 -9 13 -45v-662q0 -18 5 -42t16 -47t25 -42t32 -27q35 -15 67 -15q33 0 63 16q58 31 105 99t86 161t71 183t59 167t53 115q4 -2 9 -9t7 -9q6 -8 24 -31t22 -31q0 -36 1 -99t7 -138t18 -156 t33 -155t54 -133t80 -90q43 -28 99 -28h11q63 3 147 55q42 26 50 48t6 45q-3 35 -3 49q0 24 27 56q18 6 33 6q26 0 43 -18q26 -28 29 -78v-12q0 -45 -20 -97q-23 -59 -74 -103t-130 -63q-29 -7 -63 -7q-57 0 -126 20q-48 14 -88 51t-72 88t-56 110t-43 118t-33 111t-24 90 h-16q-24 -52 -73 -125t-109 -141t-127 -118t-127 -59q-10 -1 -20 -1q-48 0 -88 37q-48 45 -70 169q-10 190 -14 378zM148 1254q-2 2 31 40t75 87t82 95t52 64q16 26 33 58t45 54h16q58 -110 110 -190t85 -133t39 -81t-28 -32q-28 -14 -60 13t-62 70t-53 89t-31 72 q-24 12 -44 -9t-40 -57t-41 -79t-45 -75t-53 -45t-63 11q-4 4 -23 22t-25 26z" />
<glyph unicode="&#xfc;" horiz-adv-x="1326" d="M64 724q-2 94 -2 188.5t2 189.5q6 8 21 20t31 16q5 1 10 1q10 0 19 -6q13 -9 13 -45v-662q0 -18 5 -42t16 -47t25 -42t32 -27q35 -15 67 -15q33 0 63 16q58 31 105 99t86 161t71 183t59 167t53 115q4 -2 9 -9t7 -9q6 -8 24 -31t22 -31q0 -36 1 -99t7 -138t18 -156 t33 -155t54 -133t80 -90q43 -28 99 -28h11q63 3 147 55q42 26 50 48t6 45q-3 35 -3 49q0 24 27 56q18 6 33 6q26 0 43 -18q26 -28 29 -78v-12q0 -45 -20 -97q-23 -59 -74 -103t-130 -63q-29 -7 -63 -7q-57 0 -126 20q-48 14 -88 51t-72 88t-56 110t-43 118t-33 111t-24 90 h-16q-24 -52 -73 -125t-109 -141t-127 -118t-127 -59q-10 -1 -20 -1q-48 0 -88 37q-48 45 -70 169q-10 190 -14 378zM181 1310q5 28 17 63t30 68t38 55q78 -8 109 -41t30 -74t-28 -82t-62 -63t-72 -18t-61 52q-6 12 -1 40zM642 1423q0 35 18 57q78 -10 118 -44t52 -76t0 -83 t-35 -64t-51 -20t-52 51q-6 10 -18 41t-22 67t-10 71z" />
<glyph unicode="&#xfd;" horiz-adv-x="1166" d="M25 423q1 77 12 162t25 162t27 138t19 91q10 24 31 31t41 2t33 -22t7 -41q-22 -84 -39 -162t-28 -156t-14 -158q-1 -27 -1 -54q0 -55 4 -114q35 -48 85 -48q6 0 13 1q58 7 124 50t134 113t126 142t101 135t61 93t29 68t24 75t30 71t45 54l62 -62v-820q10 -2 47 2t65 4 q33 0 33 -13q0 -12 -49 -41q-28 -16 -55 -33t-57 -29q-18 -170 -34 -299t-36 -247t-48 -242t-70 -284q-16 -36 -35 -85t-46 -88t-65 -56q-15 -7 -33 -7q-27 0 -59 16q-68 34 -93 140q-19 80 -19 181q0 32 2 67q8 142 45 300t96 296t136 235t165 119q2 12 4 39t4 57t4 57 t2 39q2 44 2 113v134v112q0 47 -2 49l-14 14q-16 -28 -64 -96t-114 -148t-146 -159t-162 -130t-160 -58q-8 -1 -15 -1q-69 0 -127 58q-32 30 -43 93q-10 58 -10 127v13zM518 -898q2 -18 7 -47t10 -57t9 -48t6 -22l48 -30q4 -2 7 -2q18 0 41 54q28 66 57 177t56 247t48 262 t33 222q10 82 10 118v10q-90 -78 -158 -181t-111 -220t-59 -240q-9 -70 -9 -140q0 -52 5 -103zM388 1306q-12 28 29 52t110 45t153 41t160 42q64 18 67 1t-33 -50t-99 -73t-133 -69t-135 -39t-103 20q-4 2 -9 14t-7 16z" />
<glyph unicode="&#xfe;" horiz-adv-x="772" d="M4 -264q4 100 10 172t14 129t18 108t20 109t21 129t23 169q4 36 5 110t3 160t8 172t21 146t40 82t65 -20q2 0 0 -32t-5 -79t-8 -102t-9 -103t-7 -80t-3 -34q50 94 112 119t124 0t116 -91t91 -154t50 -188t-9 -194t-85 -172t-179 -122q-94 -36 -161 -18t-137 80 q-10 -54 -16 -85t-9 -48t-5 -29t-3 -30t-4 -48t-7 -86q-10 -30 -22 -41t-42 9q-34 24 -30 62zM158 144l108 -94q128 -14 208 25t119 108t44 157t-15 172t-58 154t-86 104t-100 20t-96 -96q-72 -134 -103 -265t-21 -285z" />
<glyph unicode="&#xff;" horiz-adv-x="1166" d="M25 423q1 77 12 162t25 162t27 138t19 91q10 24 31 31t41 2t33 -22t7 -41q-22 -84 -39 -162t-28 -156t-14 -158q-1 -27 -1 -54q0 -55 4 -114q35 -48 85 -48q6 0 13 1q58 7 124 50t134 113t126 142t101 135t61 93t29 68t24 75t30 71t45 54l62 -62v-820q10 -2 47 2t65 4 q33 0 33 -13q0 -12 -49 -41q-28 -16 -55 -33t-57 -29q-18 -170 -34 -299t-36 -247t-48 -242t-70 -284q-16 -36 -35 -85t-46 -88t-65 -56q-15 -7 -33 -7q-27 0 -59 16q-68 34 -93 140q-19 80 -19 181q0 32 2 67q8 142 45 300t96 296t136 235t165 119q2 12 4 39t4 57t4 57 t2 39q2 44 2 113v134v112q0 47 -2 49l-14 14q-16 -28 -64 -96t-114 -148t-146 -159t-162 -130t-160 -58q-8 -1 -15 -1q-69 0 -127 58q-32 30 -43 93q-10 58 -10 127v13zM518 -898q2 -18 7 -47t10 -57t9 -48t6 -22l48 -30q4 -2 7 -2q18 0 41 54q28 66 57 177t56 247t48 262 t33 222q10 82 10 118v10q-90 -78 -158 -181t-111 -220t-59 -240q-9 -70 -9 -140q0 -52 5 -103zM183 1268q5 28 17 63t30 68t38 55q78 -8 109 -41t30 -74t-28 -82t-62 -63t-72 -18t-61 52q-6 12 -1 40zM644 1381q0 35 18 57q78 -10 118 -44t52 -76t0 -83t-35 -64t-51 -20 t-52 51q-6 10 -18 41t-22 67t-10 71z" />
<glyph unicode="&#x152;" horiz-adv-x="2528" d="M70 246q-2 43 -2 84q0 83 8 163q12 119 39 234t68 229t91 234q0 4 6 10t10 6q10 2 40 2t38 -2q2 -19 2 -39q0 -61 -22 -132q-30 -95 -73 -197t-85 -209t-54 -205q-3 -27 -3 -53q0 -69 23 -132q32 -87 134 -151q60 -38 134 -50q40 -7 81 -7q34 0 68 5q75 10 145 40t124 76 q148 126 225 259t98 263q10 59 10 116q0 68 -14 132q-25 118 -83 213t-138 160t-169 86q-38 9 -76 9l-102 -16q-89 -28 -161 -120q-30 -16 -35 -7t8 31t40 52t60 60t67 53t64 31q21 5 45 5q15 0 31 -2q42 -5 83 -19t79 -34t62 -44q38 -36 80 -75t83 -82t76 -91t59 -100 q60 -132 60 -273t-49 -273t-138 -244t-206 -189t-254 -108q-67 -15 -136 -15q-71 0 -143 16q-54 12 -103 40t-88 68t-67 89t-40 103zM1101 1348q0 23 35 38q48 20 101 33t109 23t110 18t106 20l946 34q24 13 50 13q6 0 13 -1q33 -4 55 -20t28 -43q1 -5 1 -10q0 -23 -21 -49 q-32 2 -103 3q-36 0 -77 0.5t-88 -0.5q-94 -1 -206 -3t-225 -7t-220 -14t-192 -21t-142 -30t-71 -40q-34 -58 -43 -147q-7 -67 -7 -138q0 -24 1 -48q3 -97 14 -189t19 -156q30 -4 42 -4t19 3t16 7t33 10q12 2 49 9t88 17t107 21t107 20t89 17t50 10q72 14 98 27t35 24t15 22 t40 23q38 12 48 -11t-5 -59t-54 -72t-99 -48q-32 -6 -115 -22t-176 -34t-176 -33t-117 -21q-4 -2 -18 -8t-29 -14t-28 -15t-19 -9q-2 -2 -9 -8t-7 -10q8 -180 50 -264t118 -103q30 -8 66 -8q55 0 125 18q115 29 271 75q40 12 95 23t109 29t101 43t73 63q8 12 4 20t-10 18 t-7 23t13 33q92 -24 110 -61q6 -13 6 -26q0 -25 -22 -53q-34 -42 -112 -87t-179 -84t-215 -69t-221 -45q-76 -11 -145 -11q-27 0 -53 2q-91 6 -145 38q-38 24 -63 86t-40 148t-21 190t-7 210v53q0 79 2 156q3 103 7 186t7 141t3 76q-6 -18 -31 -9t-44 30q-22 25 -22 51z" />
<glyph unicode="&#x153;" horiz-adv-x="1472" d="M35 225q-4 30 -4.5 60.5t4.5 61.5q9 63 27 127q12 40 23 96t27 113t38 106t54 77q20 18 52 27t66 10h22q22 0 44 -1q32 -2 52 -4q88 -6 136 -59t64 -131q9 -46 9 -99q0 -36 -4 -75q-11 -96 -44 -189t-83 -175t-109 -133t-124 -61q-11 -2 -22 -2q-54 0 -105 42 q-58 44 -86 97t-37 112zM122 402q-4 -35 -4 -68q0 -50 9 -96q15 -76 61 -112q32 -26 68 -26q20 0 40 8q58 22 111 82t95 145t60 170q11 51 11 98q0 31 -5 60q-12 73 -64 109q-54 36 -103 36q-19 0 -37 -5q-66 -19 -116 -78t-83 -147t-43 -176zM535 471q11 15 55 31t130 30 q12 0 35 12t27 18q14 20 26 69t25 109t32 121t48 105t70 62q17 7 37 7q29 0 64 -15q6 -4 17 -15l23 -23l23 -23q11 -11 15 -17q2 -28 2 -54q0 -64 -14 -112q-20 -68 -54 -115t-76 -79t-80 -61t-65 -59t-29 -74q-4 -52 -4 -95t10 -81t34 -72t70 -66q23 -16 52 -16q15 0 32 4 q50 12 102 42t102 68t86 65t52 35q8 4 8 -2t-8 -22q-28 -66 -66 -132t-90 -112t-119 -61q-20 -4 -41 -4q-51 0 -110 25q-76 32 -115 82t-57 110t-22 128t-10 138q-41 -7 -80 -7h-10q-44 1 -77 8t-47 20q-8 7 -8 15q0 6 5 13zM878 610q2 -2 7 -2t7 2q6 4 18 13l24 18 q12 9 23 18t15 13q60 60 85 111t25 83t-21 43q-8 4 -17 4q-15 0 -33 -11q-29 -18 -61 -69t-58 -143l-8 -40q-6 -30 -6 -40z" />
<glyph unicode="&#x178;" horiz-adv-x="1292" d="M22 1417q0 25 11 41t31 18t48 -16q26 -18 51 -65t55 -110t67 -133t88 -132t118 -109t157 -61q16 -3 31 -3q43 0 78 22q47 29 86 82t69 125t56 146t50 145t48 123t52 78q18 17 39 17q11 0 23 -5q-10 -100 -29 -227t-39 -264t-38 -279t-30 -276t-15 -251q-1 -21 -1 -40 q0 -92 12 -165q6 -28 -4 -45t-28 -23q-11 -4 -23 -4q-8 0 -16 2q-21 4 -39 22q-32 32 -44 98q-11 61 -11 136v13q1 83 10 176t20 181t19 161q6 58 6 100v19h-16q-76 -124 -147 -177t-136 -55h-6q-61 0 -117 36q-58 38 -107 94t-88 121t-67 115l-212 318q-12 26 -12 51z M-17 1404q5 28 17 63t30 68t38 55q78 -8 109 -41t30 -74t-28 -82t-62 -63t-72 -18t-61 52q-6 12 -1 40zM444 1517q0 35 18 57q78 -10 118 -44t52 -76t0 -83t-35 -64t-51 -20t-52 51q-6 10 -18 41t-22 67t-10 71z" />
<glyph unicode="&#x2c6;" horiz-adv-x="850" d="M124 1228q-2 2 31 40t75 87t82 95t52 64q16 26 33 58t45 54h16q58 -110 110 -190t85 -133t39 -81t-28 -32q-28 -14 -60 13t-62 70t-53 89t-31 72q-24 12 -44 -9t-40 -57t-41 -79t-45 -75t-53 -45t-63 11q-4 4 -23 22t-25 26z" />
<glyph unicode="&#x2dc;" horiz-adv-x="1706" d="M320 1372q0 12 10 22q2 2 7 4t7 0q36 -62 75 -83t82 -16t92 28t106 49t120 48t137 26q84 4 137 -13t78 -46t26 -63t-17 -64q-8 -14 -13 -3t-26 29t-69 36t-142 18q-44 0 -99 -15t-113 -35t-116 -38t-108 -22t-90 9t-60 57q-4 8 -10 21t-10 26t-4 25z" />
<glyph unicode="&#x2000;" horiz-adv-x="1020" />
<glyph unicode="&#x2001;" horiz-adv-x="2040" />
<glyph unicode="&#x2002;" horiz-adv-x="1020" />
<glyph unicode="&#x2003;" horiz-adv-x="2040" />
<glyph unicode="&#x2004;" horiz-adv-x="680" />
<glyph unicode="&#x2005;" horiz-adv-x="510" />
<glyph unicode="&#x2006;" horiz-adv-x="340" />
<glyph unicode="&#x2007;" horiz-adv-x="340" />
<glyph unicode="&#x2008;" horiz-adv-x="254" />
<glyph unicode="&#x2009;" horiz-adv-x="408" />
<glyph unicode="&#x200a;" horiz-adv-x="112" />
<glyph unicode="&#x2010;" d="M41 554q-1 20 4 38t17 33t32 21q26 6 105 10t183 6t219 2t213 -2t165 -6t75 -10q32 -22 23 -47t-35 -45t-60 -28t-54 8q-100 2 -207 -5t-216 -16t-217 -14t-210 5q-4 0 -16 6t-14 10q-6 14 -7 34z" />
<glyph unicode="&#x2011;" d="M41 554q-1 20 4 38t17 33t32 21q26 6 105 10t183 6t219 2t213 -2t165 -6t75 -10q32 -22 23 -47t-35 -45t-60 -28t-54 8q-100 2 -207 -5t-216 -16t-217 -14t-210 5q-4 0 -16 6t-14 10q-6 14 -7 34z" />
<glyph unicode="&#x2012;" d="M41 554q-1 20 4 38t17 33t32 21q26 6 105 10t183 6t219 2t213 -2t165 -6t75 -10q32 -22 23 -47t-35 -45t-60 -28t-54 8q-100 2 -207 -5t-216 -16t-217 -14t-210 5q-4 0 -16 6t-14 10q-6 14 -7 34z" />
<glyph unicode="&#x2013;" horiz-adv-x="958" d="M41 554q-1 20 4 38t17 33t32 21q26 6 91 8t148 1t173 -4t167 -8t130 -12t61 -13q32 -20 23 -46t-35 -45t-60 -27t-54 8q-100 2 -178 -1t-151 -7t-151 -5t-180 9q-4 0 -16 6t-14 10q-6 14 -7 34z" />
<glyph unicode="&#x2014;" horiz-adv-x="1434" d="M41 554q-1 20 4 38t17 33t32 21q20 4 82 6t149 2t193 -2t213 -6t210 -8t183 -9t132 -10t58 -9q32 -20 24 -46t-35 -45t-61 -27t-54 8q-100 2 -248 0t-306 -5t-306 -2t-250 11q-4 0 -16 6t-14 10q-6 14 -7 34z" />
<glyph unicode="&#x2018;" horiz-adv-x="346" d="M95 1328q-9 66 7 90q18 26 40 12t45 -53t43 -97t34 -119t20 -118t0 -96t-27 -51t-59 18q-4 2 -9 14t-7 16q-4 28 -23 97t-37 145t-27 142z" />
<glyph unicode="&#x2019;" horiz-adv-x="346" d="M95 1328q-9 66 7 90q18 26 40 12t45 -53t43 -97t34 -119t20 -118t0 -96t-27 -51t-59 18q-4 2 -9 14t-7 16q-4 28 -23 97t-37 145t-27 142z" />
<glyph unicode="&#x201a;" horiz-adv-x="346" d="M69 483q-1 35 9 51q24 36 55 2t59 -103t48 -155t22 -154t-17 -100t-71 6q-4 2 -9 15t-7 17q-2 18 -13 56t-23 86t-24 100t-20 98t-9 81z" />
<glyph unicode="&#x201c;" horiz-adv-x="520" d="M64 976q-2 12 4 60t17 107t26 118t33 94t38 33t40 -62q8 -24 -1 -75t-23 -108t-27 -108t-13 -73q-4 -16 -18 -21t-31 -3t-30 12t-15 26zM286 1036q4 44 27 94t57 94t63 64t43 2t-2 -92q-2 -8 -9 -26t-14 -38t-14 -37t-11 -23q20 -28 14 -52t-26 -38t-47 -17t-51 9 q-34 16 -30 60z" />
<glyph unicode="&#x201d;" horiz-adv-x="520" d="M64 976q-2 12 4 60t17 107t26 118t33 94t38 33t40 -62q8 -24 -1 -75t-23 -108t-27 -108t-13 -73q-4 -16 -18 -21t-31 -3t-30 12t-15 26zM286 1036q4 44 27 94t57 94t63 64t43 2t-2 -92q-2 -8 -9 -26t-14 -38t-14 -37t-11 -23q20 -28 14 -52t-26 -38t-47 -17t-51 9 q-34 16 -30 60z" />
<glyph unicode="&#x201e;" horiz-adv-x="520" d="M64 8q-2 12 4 60t17 107t26 118t33 93t38 33t40 -63q8 -24 -1 -75t-23 -108t-27 -107t-13 -72q-4 -16 -18 -22t-31 -3t-30 13t-15 26zM286 68q4 44 27 93t57 94t63 64t43 2t-2 -91q-2 -8 -9 -27t-14 -39t-14 -37t-11 -23q20 -28 14 -51t-26 -37t-47 -17t-51 9 q-34 16 -30 60z" />
<glyph unicode="&#x2022;" horiz-adv-x="532" d="M115 616q-13 56 14 102t87 74t142 20q62 -64 66 -127t-27 -109t-87 -65t-116 5q-66 44 -79 100z" />
<glyph unicode="&#x2026;" horiz-adv-x="1302" d="M197 243q-1 35 19 57q78 -10 118 -44t51 -76t-1 -83t-35 -64t-51 -20t-52 51q-6 10 -18 41t-21 67t-10 71zM631 243q-1 35 19 57q78 -10 118 -44t51 -76t-1 -83t-35 -64t-51 -20t-52 51q-6 10 -18 41t-21 67t-10 71zM1065 243q-1 35 19 57q78 -10 118 -44t51 -76t-1 -83 t-35 -64t-51 -20t-52 51q-6 10 -18 41t-21 67t-10 71z" />
<glyph unicode="&#x202f;" horiz-adv-x="408" />
<glyph unicode="&#x2039;" horiz-adv-x="1276" d="M14 212q2 32 21 55t59 15q16 10 55 37t82 57t80 58t51 40q6 4 34 31t63 62l70 70l55 55q26 28 45 59t36 63t35 62t42 54q6 6 32 -3t44 -32t17 -58t-47 -81l-378 -378q-46 -28 -89 -59t-83 -67q2 -10 14 -15t25 -9t24 -5t15 -1q110 -16 224 -35t229 -32t230 -18t229 5 q24 -36 -5 -65t-79 -47t-104 -22t-78 8q-24 4 -75 11t-115 16t-134 20t-134 20t-114 16t-74 11q-4 0 -15 3t-24 6t-25 5t-14 2h-174q-26 0 -39 27t-11 59z" />
<glyph unicode="&#x203a;" horiz-adv-x="882" d="M30 836q-8 32 12 46t50 17t59 1t37 -2q116 4 189 9t136 7t135 -1t186 -15q16 -36 18 -78t-2 -78q-8 -24 -30 -82t-48 -123t-49 -123t-31 -82q-10 -28 -28 -89t-45 -121t-63 -99t-84 -23q-6 4 -17 15l-15 15q-8 28 16 87t63 133t86 155t84 154t54 130t-3 83q-4 6 -22 12 t-26 4h-426q-6 0 -31 -7t-56 -14t-60 -11t-41 0q-22 10 -33 34t-15 46z" />
<glyph unicode="&#x205f;" horiz-adv-x="510" />
<glyph unicode="&#x20ac;" horiz-adv-x="1442" d="M32 513q6 27 37 42t83 21t116 4q-2 40 1 81t7 83h-78q-40 0 -80 -2q-22 10 -38 24t-22 38q-8 28 9 46t52 27t82 10t99 -1q34 166 98 308t146 224q52 52 98 62t85 -7t69 -57t48 -87t23 -96t-6 -85t-38 -55t-73 -5q-22 26 -13 66t18 81t3 78t-56 57q-52 20 -98 -13 t-84 -104t-67 -169t-47 -206q48 -6 93 -13t79 -13t56 -11l22 -5q46 -34 55 -67t-2 -54t-33 -21t-38 34l-124 8q-62 4 -126 6q-6 -44 -9 -86t-5 -82q96 -10 189 -29t155 -38t80 -36t-36 -25q-30 2 -73 -1t-93 -8t-105 -11t-109 -12q8 -56 20 -98t32 -64q42 -50 91 -78 t103 -40t113 -12t119 4q70 4 128 33t111 65t106 71t111 51q76 22 84 -3t-32 -71t-121 -103t-187 -99t-227 -58t-241 18q-132 38 -205 140t-101 238q-84 -4 -147 3t-85 35q-28 40 -22 67z" />
<glyph unicode="&#x2122;" horiz-adv-x="3282" d="M23 1372q-7 22 9 46q34 12 136 34t241 47t301 49t320 41t296 23t228 -6t118 -46t-34 -96h-14q-8 4 -33 16t-31 18h-45q-23 0 -45 2l14 -14q-4 -38 -1 -87t8 -100t13 -101t14 -90q52 134 114 209t127 100t129 3t120 -81t101 -150t71 -205q38 20 68 71t64 111t77 117 t105 93q104 60 211 57t199 -52t159 -137t93 -198q10 -46 14 -116t4 -152t-5 -170t-11 -169t-15 -151t-19 -114q10 -6 19 0t20 15t24 16t31 -1q8 -26 -6 -68t-40 -77t-60 -51t-66 8q-4 4 -17 16t-17 16q-8 56 -4 134t13 168t21 186t22 186t14 170t-2 138q-10 90 -50 152 t-100 95t-133 41t-145 -9t-138 -56t-112 -97q-42 -54 -72 -133t-53 -170t-39 -190t-31 -194t-28 -180t-29 -147q0 -4 -6 -10t-8 -6q-10 -2 -40 -2t-40 2q-12 10 -13 71t2 148t11 187t15 190t12 157t5 87q-8 156 -60 249t-124 110t-150 -47t-138 -218q-22 -54 -34 -145 t-20 -196t-15 -215t-19 -207t-32 -168t-54 -99q-26 18 -40 44t-24 52v16q16 106 27 255t15 306t2 306t-12 257q-2 20 -13 49t-24 61t-21 65t-4 61q-132 0 -263 -8t-261 -30v-78q32 -348 50 -684t12 -686q-6 -16 -17 -19t-23 2t-23 15t-15 16q-18 32 -26 70t-9 78t5 79t14 75 q2 120 8 263t3 291t-23 293t-68 271q-64 8 -142 -3t-158 -31t-154 -41t-128 -35q-14 -20 -37 -19t-41 15t-25 36z" />
<glyph unicode="&#x2212;" horiz-adv-x="958" d="M41 554q-1 20 4 38t17 33t32 21q26 6 91 8t148 1t173 -4t167 -8t130 -12t61 -13q32 -20 23 -46t-35 -45t-60 -27t-54 8q-100 2 -178 -1t-151 -7t-151 -5t-180 9q-4 0 -16 6t-14 10q-6 14 -7 34z" />
<glyph unicode="&#xe000;" horiz-adv-x="1115" d="M0 1115h1115v-1115h-1115v1115z" />
<glyph unicode="&#xfb01;" horiz-adv-x="1168" d="M985 296v67q0 69 1 146q2 115 5 216t8 175t11 94q12 6 26 0t25 -16t19 -24t8 -24v-882q0 -22 -12 -33t-29 -11t-32 11t-21 33q-4 12 -6 81t-3 167zM1006 1347q0 13 1 24t3 15q16 8 36 14q12 4 25 4q8 0 17 -2q34 -44 43 -71q5 -14 5 -25q0 -10 -4 -17q-8 -15 -27 -18 q-8 -1 -16 -1q-11 0 -23 2q-20 4 -37 13t-19 21q-2 6 -3 17t-1 24zM42 636q6 22 36 26q8 0 44 -2q24 -1 50 -1h27q41 1 76 8t41 25q-2 84 -6 180t-4 195t9 196t31 187q14 52 41 72q16 12 43 12q19 0 44 -6q48 -10 100 -49t97 -91t78 -111t39 -111q2 -20 -17 -36t-43 -14 t-45 31t-21 99q0 4 -6 15t-10 15l-142 142q-17 7 -31 7q-18 0 -30 -12q-21 -21 -31 -55t-13 -72t-5 -58q-6 -76 -11 -138t-6 -122v-24q0 -48 3 -98q4 -62 14 -138q8 -2 57 17t116 42t139 43t125 22h8q47 0 68 -21q10 -10 10 -26q0 -23 -19 -61q-12 -22 -36 -21t-42 5 q-14 -4 -48 -15t-71 -24t-71 -24t-46 -15q-6 -2 -25 -6t-40 -10t-40 -10t-23 -6q-6 -2 -13 -3t-15 -5t-18 -6v-568q0 -16 -15 -20q-7 -2 -14 -2q-9 0 -18 3q-17 5 -32 18t-15 33v520q-16 2 -34 2q-33 0 -70 -7q-58 -11 -102 -27q-20 -8 -39 10t-27 43q-5 14 -5 28q0 10 3 19 z" />
<glyph unicode="&#xfb02;" horiz-adv-x="1228" d="M1024 1445q0 63 4 97q12 10 22 10q15 0 27 -23q19 -39 29 -112t13 -165t3 -174t-2 -138t-2 -58q10 -188 13 -371t19 -369q21 -40 21 -87q0 -39 -12 -63q-11 -23 -31 -23q-3 0 -6 1q-24 4 -52 60q-8 32 -12 88t-4 125t1 145t3 148q1 48 1 92v42q-1 62 -5 102q-2 30 -5 89 t-7 133t-9 156t-7 157t-2 138zM42 636q6 22 36 26q8 0 44 -2q24 -1 50 -1h27q41 1 76 8t41 25q-2 84 -6 180t-4 195t9 196t31 187q14 52 41 72q16 12 43 12q19 0 44 -6q48 -10 100 -49t97 -91t78 -111t39 -111q2 -20 -17 -36t-43 -14t-45 31t-21 99q0 4 -6 15t-10 15 l-142 142q-17 7 -31 7q-18 0 -30 -12q-21 -21 -31 -55t-13 -72t-5 -58q-6 -76 -11 -138t-6 -122v-24q0 -48 3 -98q4 -62 14 -138q8 -2 57 17t116 42t139 43t125 22h8q47 0 68 -21q10 -10 10 -26q0 -23 -19 -61q-12 -22 -36 -21t-42 5q-14 -4 -48 -15t-71 -24t-71 -24 t-46 -15q-6 -2 -25 -6t-40 -10t-40 -10t-23 -6q-6 -2 -13 -3t-15 -5t-18 -6v-568q0 -16 -15 -20q-7 -2 -14 -2q-9 0 -18 3q-17 5 -32 18t-15 33v520q-16 2 -34 2q-33 0 -70 -7q-58 -11 -102 -27q-20 -8 -39 10t-27 43q-5 14 -5 28q0 10 3 19z" />
<glyph unicode="&#xfb03;" horiz-adv-x="2114" d="M1931 296v67q0 69 1 146q2 115 5 216t8 175t11 94q12 6 26 0t25 -16t19 -24t8 -24v-882q0 -22 -12 -33t-29 -11t-32 11t-21 33q-4 12 -6 81t-3 167zM1952 1347q0 13 1 24t3 15q16 8 36 14q12 4 25 4q8 0 17 -2q34 -44 43 -71q5 -14 5 -25q0 -10 -4 -17q-8 -15 -27 -18 q-8 -1 -16 -1q-11 0 -23 2q-20 4 -37 13t-19 21q-2 6 -3 17t-1 24zM988 636q6 22 36 26q8 0 44 -2q24 -1 50 -1h27q41 1 76 8t41 25q-2 84 -6 180t-4 195t9 196t31 187q14 52 41 72q16 12 43 12q19 0 44 -6q48 -10 100 -49t97 -91t78 -111t39 -111q2 -20 -17 -36t-43 -14 t-45 31t-21 99q0 4 -6 15t-10 15l-142 142q-17 7 -31 7q-18 0 -30 -12q-21 -21 -31 -55t-13 -72t-5 -58q-6 -76 -11 -138t-6 -122v-24q0 -48 3 -98q4 -62 14 -138q8 -2 57 17t116 42t139 43t125 22h8q47 0 68 -21q10 -10 10 -26q0 -23 -19 -61q-12 -22 -36 -21t-42 5 q-14 -4 -48 -15t-71 -24t-71 -24t-46 -15q-6 -2 -25 -6t-40 -10t-40 -10t-23 -6q-6 -2 -13 -3t-15 -5t-18 -6v-568q0 -16 -15 -20q-7 -2 -14 -2q-9 0 -18 3q-17 5 -32 18t-15 33v520q-16 2 -34 2q-33 0 -70 -7q-58 -11 -102 -27q-20 -8 -39 10t-27 43q-5 14 -5 28q0 10 3 19 zM42 636q6 22 36 26q8 0 44 -2q24 -1 50 -1h27q41 1 76 8t41 25q-2 84 -6 180t-4 195t9 196t31 187q14 52 41 72q16 12 43 12q19 0 44 -6q48 -10 100 -49t97 -91t78 -111t39 -111q2 -20 -17 -36t-43 -14t-45 31t-21 99q0 4 -6 15t-10 15l-142 142q-17 7 -31 7q-18 0 -30 -12 q-21 -21 -31 -55t-13 -72t-5 -58q-6 -76 -11 -138t-6 -122v-24q0 -48 3 -98q4 -62 14 -138q8 -2 57 17t116 42t139 43t125 22h8q47 0 68 -21q10 -10 10 -26q0 -23 -19 -61q-12 -22 -36 -21t-42 5q-14 -4 -48 -15t-71 -24t-71 -24t-46 -15q-6 -2 -25 -6t-40 -10t-40 -10 t-23 -6q-6 -2 -13 -3t-15 -5t-18 -6v-568q0 -16 -15 -20q-7 -2 -14 -2q-9 0 -18 3q-17 5 -32 18t-15 33v520q-16 2 -34 2q-33 0 -70 -7q-58 -11 -102 -27q-20 -8 -39 10t-27 43q-5 14 -5 28q0 10 3 19z" />
<glyph unicode="&#xfb04;" horiz-adv-x="2174" d="M1970 1445q0 63 4 97q12 10 22 10q15 0 27 -23q19 -39 29 -112t13 -165t3 -174t-2 -138t-2 -58q10 -188 13 -371t19 -369q21 -40 21 -87q0 -39 -12 -63q-11 -23 -31 -23q-3 0 -6 1q-24 4 -52 60q-8 32 -12 88t-4 125t1 145t3 148q1 48 1 92v42q-1 62 -5 102q-2 30 -5 89 t-7 133t-9 156t-7 157t-2 138zM988 636q6 22 36 26q8 0 44 -2q24 -1 50 -1h27q41 1 76 8t41 25q-2 84 -6 180t-4 195t9 196t31 187q14 52 41 72q16 12 43 12q19 0 44 -6q48 -10 100 -49t97 -91t78 -111t39 -111q2 -20 -17 -36t-43 -14t-45 31t-21 99q0 4 -6 15t-10 15 l-142 142q-17 7 -31 7q-18 0 -30 -12q-21 -21 -31 -55t-13 -72t-5 -58q-6 -76 -11 -138t-6 -122v-24q0 -48 3 -98q4 -62 14 -138q8 -2 57 17t116 42t139 43t125 22h8q47 0 68 -21q10 -10 10 -26q0 -23 -19 -61q-12 -22 -36 -21t-42 5q-14 -4 -48 -15t-71 -24t-71 -24 t-46 -15q-6 -2 -25 -6t-40 -10t-40 -10t-23 -6q-6 -2 -13 -3t-15 -5t-18 -6v-568q0 -16 -15 -20q-7 -2 -14 -2q-9 0 -18 3q-17 5 -32 18t-15 33v520q-16 2 -34 2q-33 0 -70 -7q-58 -11 -102 -27q-20 -8 -39 10t-27 43q-5 14 -5 28q0 10 3 19zM42 636q6 22 36 26q8 0 44 -2 q24 -1 50 -1h27q41 1 76 8t41 25q-2 84 -6 180t-4 195t9 196t31 187q14 52 41 72q16 12 43 12q19 0 44 -6q48 -10 100 -49t97 -91t78 -111t39 -111q2 -20 -17 -36t-43 -14t-45 31t-21 99q0 4 -6 15t-10 15l-142 142q-17 7 -31 7q-18 0 -30 -12q-21 -21 -31 -55t-13 -72 t-5 -58q-6 -76 -11 -138t-6 -122v-24q0 -48 3 -98q4 -62 14 -138q8 -2 57 17t116 42t139 43t125 22h8q47 0 68 -21q10 -10 10 -26q0 -23 -19 -61q-12 -22 -36 -21t-42 5q-14 -4 -48 -15t-71 -24t-71 -24t-46 -15q-6 -2 -25 -6t-40 -10t-40 -10t-23 -6q-6 -2 -13 -3t-15 -5 t-18 -6v-568q0 -16 -15 -20q-7 -2 -14 -2q-9 0 -18 3q-17 5 -32 18t-15 33v520q-16 2 -34 2q-33 0 -70 -7q-58 -11 -102 -27q-20 -8 -39 10t-27 43q-5 14 -5 28q0 10 3 19z" />
</font>
</defs>
</svg>
